STARTFONT 2.1
FONT -FontForge-Ostrich Sans-Heavy-R-Normal-Sans-88-660-96-96--320--
SIZE 66 96 96
FONTBOUNDINGBOX 66 95 -10 -19
COMMENT "Generated by fontforge, http://fontforge.sourceforge.net"
COMMENT "Copyright (c) 2013 by The League of Moveable Type. All rights reserved."
STARTPROPERTIES 39
FOUNDRY "FontForge"
FAMILY_NAME "Ostrich Sans"
WEIGHT_NAME "Heavy"
SLANT "R"
SETWIDTH_NAME "Normal"
ADD_STYLE_NAME "Sans"
PIXEL_SIZE 88
POINT_SIZE 660
RESOLUTION_X 96
RESOLUTION_Y 96
SPACING ""
AVERAGE_WIDTH 0
CHARSET_REGISTRY ""
CHARSET_ENCODING ""
FONTNAME_REGISTRY ""
CHARSET_COLLECTIONS "ISO10646-1"
FONT_NAME "OstrichSans-Heavy"
FACE_NAME "Ostrich Sans Heavy"
COPYRIGHT "Copyright (c) 2013 by The League of Moveable Type. All rights reserved."
FONT_VERSION "001.001"
FONT_ASCENT 70
FONT_DESCENT 18
UNDERLINE_POSITION -7
UNDERLINE_THICKNESS 5
X_HEIGHT 58
CAP_HEIGHT 58
RAW_ASCENT 800
RAW_DESCENT 200
NORM_SPACE 18
RELATIVE_WEIGHT 90
RELATIVE_SETWIDTH 50
SUPERSCRIPT_X 0
SUPERSCRIPT_Y 30
SUPERSCRIPT_SIZE 52
SUBSCRIPT_X 0
SUBSCRIPT_Y 6
SUBSCRIPT_SIZE 52
AVG_LOWERCASE_WIDTH 344
AVG_UPPERCASE_WIDTH 345
ENDPROPERTIES
CHARS 310
STARTCHAR CR
ENCODING 13
SWIDTH 210 0
DWIDTH 18 0
BBX 1 1 0 0
BITMAP
00
ENDCHAR
STARTCHAR space
ENCODING 32
SWIDTH 210 0
DWIDTH 18 0
BBX 1 1 0 0
BITMAP
00
ENDCHAR
STARTCHAR exclam
ENCODING 33
SWIDTH 143 0
DWIDTH 13 0
BBX 9 59 -1 0
BITMAP
7F00
7F80
FF80
FF80
FF80
FF80
FF80
FF80
FF80
FF80
FF80
FF80
FF80
FF80
FF80
FF80
FF80
FF80
FF80
FF80
FF80
FF80
FF80
FF80
FF80
FF80
FF80
FF80
FF80
FF80
FF80
FF80
FF80
FF80
FF80
FF80
FF80
FF80
FF80
FF80
FF80
FF80
FF80
FF80
7F80
7F80
3F00
0000
0000
1E00
7F00
7F80
FF80
FF80
FF80
FF80
7F80
7F80
3F00
ENDCHAR
STARTCHAR quotedbl
ENCODING 34
SWIDTH 212 0
DWIDTH 19 0
BBX 13 13 0 46
BITMAP
7FF0
FFF8
FFF8
FFF8
FFF8
FFF8
FFF8
FFF8
FFF8
FFF8
FFF8
FFF8
7FF0
ENDCHAR
STARTCHAR numbersign
ENCODING 35
SWIDTH 592 0
DWIDTH 52 0
BBX 46 59 -2 0
BITMAP
00001FC07F00
00003FE0FF00
00003FE0FF00
00003FE1FF00
00003FE1FF00
00007FC1FF00
00007FC1FF00
00007FC1FF00
00007FC3FE00
00007FC3FE00
0000FF83FE00
0000FF83FE00
0000FF83FE00
0000FF83FC00
0000FF87FC00
0001FF07FC00
0001FF07FC00
07FFFFFFFFF0
1FFFFFFFFFFC
1FFFFFFFFFFC
1FFFFFFFFFFC
1FFFFFFFFFFC
1FFFFFFFFFFC
1FFFFFFFFFFC
1FFFFFFFFFFC
0FFFFFFFFFF8
0007FC1FF000
0007FC1FF000
0007FC1FF000
0007FC3FE000
0007F83FE000
000FF83FE000
3FFFFFFFFFC0
7FFFFFFFFFE0
FFFFFFFFFFF0
FFFFFFFFFFF0
FFFFFFFFFFF0
FFFFFFFFFFF0
FFFFFFFFFFF0
7FFFFFFFFFF0
7FFFFFFFFFE0
003FE0FF8000
003FE0FF8000
003FE0FF8000
003FE1FF0000
003FE1FF0000
007FC1FF0000
007FC1FF0000
007FC1FF0000
007FC3FE0000
007FC3FE0000
00FF83FE0000
00FF83FE0000
00FF83FE0000
00FF83FC0000
00FF87FC0000
00FF07FC0000
00FF03FC0000
007E01F80000
ENDCHAR
STARTCHAR dollar
ENCODING 36
SWIDTH 398 0
DWIDTH 35 0
BBX 29 71 0 -6
BITMAP
001FC000
003FE000
003FE000
003FE000
003FE000
003FE000
007FF000
01FFFC00
07FFFF00
0FFFFF80
1FFFFFC0
3FFFFFC0
3FFFFFE0
7FFFFFE0
7FFCFFF0
7FE03FF0
7FC01FF0
FF801FF8
FF800FF8
FF800FF8
FF800FF8
FF800FF8
FF800FF8
FF800FF8
FFC00FF8
7FC007F8
7FE007F0
7FF00000
3FF80000
3FFC0000
1FFE0000
0FFF8000
0FFFC000
07FFE000
03FFF000
01FFF800
00FFFE00
003FFF00
001FFF80
000FFF80
0003FFC0
0001FFE0
0000FFE0
1C007FF0
7F003FF0
FF801FF8
FF801FF8
FF800FF8
FF800FF8
FF800FF8
FF800FF8
FF800FF8
FF800FF8
7FC00FF8
7FC01FF8
7FE03FF0
7FFFFFF0
3FFFFFF0
3FFFFFE0
1FFFFFE0
1FFFFFC0
0FFFFF80
03FFFF00
01FFFC00
003FE000
003FE000
003FE000
003FE000
003FE000
001FC000
000F8000
ENDCHAR
STARTCHAR percent
ENCODING 37
SWIDTH 554 0
DWIDTH 49 0
BBX 47 59 0 0
BITMAP
01F80001F800
07FE0003FC00
1FFF8007FC00
1FFFC007FC00
3FFFC00FFC00
7FFFE00FFC00
7FFFE00FF800
7FFFE01FF800
7FFFE01FF000
FF9FF03FF000
FF9FF03FF000
FF9FF03FE000
FF9FF07FE000
FF9FF07FC000
FF9FF0FFC000
FF9FF0FFC000
FF9FF0FF8000
FF9FF1FF8000
FFFFF1FF0000
7FFFE3FF0000
7FFFE3FF0000
7FFFE3FE0000
3FFFC7FE0000
3FFFC7FC0000
1FFF8FFC0000
0FFF0FFC0000
03FC0FF80000
00001FF80000
00001FF00000
00003FF00000
00003FF00000
00003FE00000
00007FE07F80
00007FC1FFE0
0000FFC3FFF0
0000FFC7FFF8
0000FF87FFFC
0001FF8FFFFC
0001FF0FFFFC
0003FF0FFFFE
0003FF0FFFFE
0003FE0FF3FE
0007FE0FF3FE
0007FC0FF3FE
000FFC0FF3FE
000FFC0FF3FE
000FF80FF3FE
001FF80FF3FE
001FF00FF3FE
003FF00FF3FE
003FF00FFFFE
003FE00FFFFC
007FE00FFFFC
007FC007FFFC
00FFC007FFF8
00FFC003FFF8
00FF8001FFF0
00FF8000FFE0
007F00003F80
ENDCHAR
STARTCHAR ampersand
ENCODING 38
SWIDTH 479 0
DWIDTH 42 0
BBX 37 59 -1 0
BITMAP
001FF80000
003FFE0000
00FFFF0000
00FFFF8000
01FFFF8000
01FFFFC000
03FFFFC000
03FFFFE000
03FF7FE000
03FE3FE000
03FC1FE000
03FC1FE000
03FC1FE000
03FC1FE000
03FE3FE000
03FE3FE000
03FE3FE000
01FF7FE000
01FF7FE000
01FF7FC000
01FFFFC000
00FFFFC000
00FFFF8000
007FFF8000
007FFF0000
003FFE0000
007FFE0000
00FFFC0000
01FFF80000
03FFFC0F80
07FFFE3FC0
0FFFFE3FC0
0FFFFF3FE0
1FFFFF3FE0
3FFDFFBFE0
3FF9FFBFE0
3FF0FFFFE0
7FE0FFFFE0
7FC07FFFC0
7FC03FFFC0
7F803FFFC0
FF801FFFC0
FF801FFFC0
FF800FFFC0
7F8007FF80
7FC007FF80
7FC003FF80
7FC003FF80
7FE007FF80
3FF00FFFC0
3FFFFFFFC0
3FFFFFFFE0
1FFFFFFFE0
0FFFFFFFF0
07FFFFFFF0
03FFFFFFF8
01FFFF8FF8
007FFF0FF8
000FF807F0
ENDCHAR
STARTCHAR quotesingle
ENCODING 39
SWIDTH 131 0
DWIDTH 12 0
BBX 8 13 0 46
BITMAP
7E
FF
FF
FF
FF
FF
FF
FF
FF
FF
FF
FF
7E
ENDCHAR
STARTCHAR parenleft
ENCODING 40
SWIDTH 216 0
DWIDTH 19 0
BBX 16 59 -1 0
BITMAP
0078
00FC
01FC
03FE
03FE
07FF
07FE
0FFE
0FFC
1FF8
1FF0
1FF0
3FF0
3FE0
3FE0
3FE0
3FC0
7FC0
7FC0
7FC0
7FC0
7FC0
7F80
7F80
7F80
7F80
7F80
FF80
FF80
FF80
FF80
FF80
FF80
7F80
7F80
7F80
7F80
7FC0
7FC0
7FC0
7FC0
7FC0
7FC0
3FE0
3FE0
3FE0
3FF0
1FF0
1FF0
1FF8
0FFC
0FFE
07FE
07FF
03FE
03FE
01FC
00FC
0078
ENDCHAR
STARTCHAR parenright
ENCODING 41
SWIDTH 208 0
DWIDTH 18 0
BBX 15 59 0 0
BITMAP
1C00
3E00
7F00
7F80
FFC0
FFC0
FFE0
7FE0
3FF0
1FF0
1FF8
0FF8
0FF8
0FF8
07FC
07FC
07FC
07FC
03FC
03FE
03FE
03FE
03FE
03FE
03FE
03FE
03FE
03FE
03FE
03FE
03FE
03FE
03FE
03FE
03FE
03FE
03FE
03FE
03FE
03FC
07FC
07FC
07FC
07FC
07FC
0FF8
0FF8
1FF8
1FF8
3FF0
3FF0
7FE0
FFE0
FFC0
FFC0
7F80
7F00
3E00
1C00
ENDCHAR
STARTCHAR asterisk
ENCODING 42
SWIDTH 345 0
DWIDTH 30 0
BBX 26 25 0 34
BITMAP
003F0000
007F8000
007F8000
007F8000
007F8000
187F8E00
3F7FBF00
7FFFFF80
7FFFFF80
FFFFFF80
FFFFFFC0
FFFFFFC0
7FFFFF80
3FFFFF00
0FFFF800
07FFF800
0FFFFC00
1FFFFE00
3FFFFE00
3FFFFF00
3FF3FF00
3FE3FE00
1FC1FE00
0FC0F800
03007000
ENDCHAR
STARTCHAR plus
ENCODING 43
SWIDTH 434 0
DWIDTH 38 0
BBX 32 32 0 13
BITMAP
0007E000
000FF000
000FF800
000FF800
000FF800
000FF800
000FF800
000FF800
000FF800
000FF800
000FF800
000FF800
7FFFFFFE
7FFFFFFF
FFFFFFFF
FFFFFFFF
FFFFFFFF
FFFFFFFF
7FFFFFFF
7FFFFFFE
000FF800
000FF800
000FF800
000FF800
000FF800
000FF800
000FF800
000FF800
000FF800
000FF800
000FF000
0003E000
ENDCHAR
STARTCHAR comma
ENCODING 44
SWIDTH 135 0
DWIDTH 12 0
BBX 9 13 0 -3
BITMAP
7E00
FF00
FF00
FF80
FF80
FF80
FF80
FF80
FF80
FF80
FF00
FF00
7E00
ENDCHAR
STARTCHAR hyphen
ENCODING 45
SWIDTH 349 0
DWIDTH 31 0
BBX 26 9 0 25
BITMAP
3FFFFF00
7FFFFF80
FFFFFFC0
FFFFFFC0
FFFFFFC0
FFFFFFC0
FFFFFFC0
7FFFFF80
3FFFFF00
ENDCHAR
STARTCHAR period
ENCODING 46
SWIDTH 131 0
DWIDTH 12 0
BBX 9 10 0 0
BITMAP
3C00
FF00
FF00
FF80
FF80
FF80
FF80
FF00
FF00
7E00
ENDCHAR
STARTCHAR slash
ENCODING 47
SWIDTH 434 0
DWIDTH 38 0
BBX 30 59 1 0
BITMAP
000003F8
000003FC
000007FC
000007FC
00000FFC
00000FF8
00000FF8
00001FF8
00001FF0
00003FF0
00003FE0
00003FE0
00007FE0
00007FC0
0000FFC0
0000FF80
0000FF80
0001FF80
0001FF00
0003FF00
0003FE00
0003FE00
0007FE00
0007FC00
000FFC00
000FF800
000FF800
001FF800
001FF000
003FF000
003FE000
003FE000
007FE000
007FC000
00FFC000
00FF8000
00FF8000
01FF8000
01FF0000
03FF0000
03FE0000
03FE0000
07FE0000
07FC0000
0FFC0000
0FF80000
0FF80000
1FF80000
1FF00000
3FF00000
3FE00000
3FE00000
7FE00000
7FC00000
FFC00000
FF800000
FF800000
FF800000
7E000000
ENDCHAR
STARTCHAR zero
ENCODING 48
SWIDTH 370 0
DWIDTH 33 0
BBX 26 59 0 0
BITMAP
00FFC000
03FFF000
07FFF800
0FFFFC00
1FFFFE00
3FFFFE00
3FFFFF00
7FFFFF00
7FFFFF80
7FC1FF80
FFC0FF80
FF807F80
FF807FC0
FF807FC0
FF807FC0
FF807FC0
FF807FC0
FF807FC0
FF807FC0
FF807FC0
FF807FC0
FF807FC0
FF807FC0
FF807FC0
FF807FC0
FF807FC0
FF807FC0
FF807FC0
FF807FC0
FF807FC0
FF807FC0
FF807FC0
FF807FC0
FF807FC0
FF807FC0
FF807FC0
FF807FC0
FF807FC0
FF807FC0
FF807FC0
FF807FC0
FF807FC0
FF807FC0
FF807FC0
FF807FC0
FF807FC0
FF807F80
FF80FF80
7FC0FF80
7FE1FF80
7FFFFF80
3FFFFF00
3FFFFF00
3FFFFE00
1FFFFE00
0FFFFC00
07FFF800
01FFE000
007F8000
ENDCHAR
STARTCHAR one
ENCODING 49
SWIDTH 244 0
DWIDTH 21 0
BBX 16 59 0 0
BITMAP
007E
00FF
01FF
03FF
07FF
07FF
0FFF
1FFF
3FFF
3FFF
7FFF
FFFF
FFFF
FFFF
FFFF
7FFF
3EFF
1CFF
00FF
00FF
00FF
00FF
00FF
00FF
00FF
00FF
00FF
00FF
00FF
00FF
00FF
00FF
00FF
00FF
00FF
00FF
00FF
00FF
00FF
00FF
00FF
00FF
00FF
00FF
00FF
00FF
00FF
00FF
00FF
00FF
00FF
00FF
00FF
00FF
00FF
00FF
00FF
00FF
007E
ENDCHAR
STARTCHAR two
ENCODING 50
SWIDTH 370 0
DWIDTH 33 0
BBX 26 59 0 0
BITMAP
00FFC000
03FFF000
07FFF800
0FFFFC00
1FFFFE00
3FFFFF00
3FFFFF00
7FFFFF80
7FFBFF80
7FE0FF80
7FC0FFC0
FF807FC0
FF807FC0
FF807FC0
FF807FC0
FF807FC0
FF807FC0
FF807FC0
7F007FC0
00007FC0
00007FC0
0000FF80
0000FF80
0001FF80
0001FF80
0003FF00
0007FF00
0007FE00
000FFE00
001FFC00
003FFC00
007FF800
00FFF000
01FFE000
03FFC000
07FF8000
07FF0000
0FFE0000
0FFC0000
1FF80000
1FF80000
3FF00000
3FE00000
3FE00000
7FE00000
7FC00000
7FC00000
7FC00000
7F800000
FF800000
FFFFFF00
FFFFFF80
FFFFFFC0
FFFFFFC0
FFFFFFC0
FFFFFFC0
FFFFFFC0
7FFFFFC0
3FFFFF80
ENDCHAR
STARTCHAR three
ENCODING 51
SWIDTH 353 0
DWIDTH 31 0
BBX 26 59 0 0
BITMAP
00FFC000
03FFE000
07FFF800
0FFFFC00
1FFFFE00
3FFFFE00
3FFFFF00
7FFFFF00
7FF7FF80
7FE1FF80
7FC0FF80
FF80FFC0
FF807FC0
FF807FC0
FF807FC0
FF807FC0
FF807FC0
FF807FC0
FF807FC0
7F007FC0
1C00FFC0
0000FF80
0001FF80
0003FF80
0007FF00
00FFFF00
01FFFE00
01FFFE00
01FFFC00
01FFF800
01FFFC00
01FFFE00
01FFFE00
007FFF00
0007FF00
0001FF80
0000FF80
0000FF80
3E007FC0
7F007FC0
FF807FC0
FF807FC0
FF807FC0
FF807FC0
FF807FC0
FF807FC0
FF807FC0
FFC0FF80
7FC0FF80
7FE1FF80
7FFFFF80
3FFFFF00
3FFFFF00
1FFFFE00
1FFFFC00
0FFFFC00
07FFF000
01FFE000
007F8000
ENDCHAR
STARTCHAR four
ENCODING 52
SWIDTH 374 0
DWIDTH 33 0
BBX 27 59 0 0
BITMAP
00000FC0
00001FE0
00003FE0
00003FE0
00007FE0
00007FE0
0000FFE0
0000FFE0
0001FFE0
0001FFE0
0003FFE0
0003FFE0
0007FFE0
0007FFE0
000FFFE0
001FFFE0
001FFFE0
003FFFE0
003FFFE0
007FFFE0
007FDFE0
00FFDFE0
00FF9FE0
01FF9FE0
01FF1FE0
03FE1FE0
03FE1FE0
07FC1FE0
0FFC1FE0
0FF81FE0
1FF81FE0
1FF01FE0
3FE01FE0
3FE01FE0
7FFFFFE0
7FFFFFE0
FFFFFFE0
FFFFFFE0
FFFFFFE0
FFFFFFE0
FFFFFFE0
7FFFFFE0
3FFFFFE0
00001FE0
00001FE0
00001FE0
00001FE0
00001FE0
00001FE0
00001FE0
00001FE0
00001FE0
00001FE0
00001FE0
00001FE0
00001FE0
00001FE0
00001FE0
00000FC0
ENDCHAR
STARTCHAR five
ENCODING 53
SWIDTH 360 0
DWIDTH 32 0
BBX 26 59 0 0
BITMAP
7FFFFF80
FFFFFFC0
FFFFFFC0
FFFFFFC0
FFFFFFC0
FFFFFFC0
FFFFFFC0
FFFFFF80
FF800000
FF800000
FF800000
FF800000
FF800000
FF800000
FF800000
FF800000
FF800000
FF800000
FF800000
FF800000
FFBFE000
FFFFF000
FFFFFC00
FFFFFE00
FFFFFE00
FFFFFF00
FFFFFF00
FFFFFF80
FFFFFF80
FFC1FF80
FF80FF80
FF80FFC0
FF807FC0
FF807FC0
FF007FC0
7E007FC0
00007FC0
00007FC0
00007FC0
00007FC0
00007FC0
7F007FC0
FF807FC0
FF807FC0
FF807FC0
FF807FC0
FF807FC0
FF80FF80
FF80FF80
FFC1FF80
7FFFFF00
7FFFFF00
7FFFFF00
3FFFFE00
3FFFFC00
1FFFFC00
0FFFF800
07FFE000
01FF8000
ENDCHAR
STARTCHAR six
ENCODING 54
SWIDTH 362 0
DWIDTH 32 0
BBX 26 59 0 0
BITMAP
007FC000
01FFF000
07FFF800
0FFFFC00
0FFFFE00
1FFFFF00
1FFFFF00
3FFFFF80
3FFFFF80
7FE1FF80
7FC0FF80
7FC07FC0
7F807FC0
FF807FC0
FF807FC0
FF807FC0
FF803F80
FF801F00
FF800000
FF800000
FF9FC000
FFFFF000
FFFFF800
FFFFFC00
FFFFFE00
FFFFFF00
FFFFFF00
FFFFFF80
FFFFFF80
FFE1FF80
FFC0FF80
FFC0FF80
FF807FC0
FF807FC0
FF807FC0
FF807FC0
FF807FC0
FF807FC0
FF807FC0
FF807FC0
FF807FC0
FF807FC0
FF807FC0
FF807FC0
FF807FC0
FF807FC0
FF80FF80
FF80FF80
FFC0FF80
7FC1FF80
7FFFFF00
7FFFFF00
3FFFFE00
3FFFFE00
1FFFFC00
0FFFF800
07FFF000
03FFE000
007F0000
ENDCHAR
STARTCHAR seven
ENCODING 55
SWIDTH 426 0
DWIDTH 37 0
BBX 32 59 0 0
BITMAP
7FFFFFFE
FFFFFFFF
FFFFFFFF
FFFFFFFF
FFFFFFFF
FFFFFFFF
FFFFFFFF
7FFFFFFF
000003FE
000007FE
000007FC
000007FC
00000FFC
00000FF8
00001FF8
00001FF0
00003FF0
00003FF0
00003FE0
00007FE0
00007FC0
0000FFC0
0000FF80
0001FF80
0001FF80
0001FF00
0003FF00
0003FE00
0007FE00
0007FC00
0007FC00
000FFC00
000FF800
001FF800
001FF000
003FF000
003FF000
003FE000
007FE000
007FC000
00FFC000
00FF8000
00FF8000
01FF8000
01FF0000
03FF0000
03FE0000
07FE0000
07FE0000
07FC0000
0FFC0000
0FF80000
1FF80000
1FF00000
1FF00000
3FF00000
3FE00000
1FE00000
1FC00000
ENDCHAR
STARTCHAR eight
ENCODING 56
SWIDTH 382 0
DWIDTH 34 0
BBX 27 59 0 0
BITMAP
00FFE000
03FFF800
0FFFFE00
1FFFFF00
1FFFFF80
3FFFFF80
3FFFFFC0
7FFFFFC0
7FFBFFC0
7FE07FE0
FFC03FE0
FF803FE0
FF803FE0
FF803FE0
FF801FE0
FF801FE0
FF801FE0
FF801FE0
FF801FE0
FF803FE0
FF803FE0
FF803FE0
FF803FE0
7FC07FE0
7FE0FFC0
7FFFFFC0
3FFFFFC0
3FFFFF80
1FFFFF80
1FFFFF00
1FFFFF80
3FFFFF80
7FFFFFC0
7FFFFFC0
7FE0FFC0
7FC07FE0
FF803FE0
FF803FE0
FF803FE0
FF801FE0
FF801FE0
FF801FE0
FF801FE0
FF801FE0
FF801FE0
FF803FE0
FF803FE0
FF803FE0
FFC03FE0
7FE07FE0
7FFFFFC0
7FFFFFC0
3FFFFFC0
3FFFFF80
1FFFFF00
0FFFFF00
07FFFC00
03FFF800
007FC000
ENDCHAR
STARTCHAR nine
ENCODING 57
SWIDTH 358 0
DWIDTH 32 0
BBX 26 59 0 0
BITMAP
007F8000
01FFF000
07FFF800
0FFFFC00
0FFFFE00
1FFFFF00
3FFFFF00
3FFFFF80
7FFFFF80
7FE1FF80
7FC0FF80
FFC0FFC0
FF807FC0
FF807FC0
FF807FC0
FF807FC0
FF807FC0
FF807FC0
FF807FC0
FF807FC0
FF807FC0
FF807FC0
FF807FC0
FF807FC0
FF807FC0
FF807FC0
FF80FFC0
FF80FFC0
FFC0FFC0
7FE1FFC0
7FFFFFC0
7FFFFFC0
3FFFFFC0
3FFFFFC0
1FFFFFC0
0FFFFFC0
0FFFFFC0
03FF7FC0
00FE7FC0
00007FC0
00007FC0
7E007FC0
FF007FC0
FF807FC0
FF807F80
FF807F80
FF80FF80
FF80FF80
FFC0FF80
FFC1FF00
7FFFFF00
7FFFFF00
3FFFFE00
3FFFFE00
1FFFFC00
0FFFF800
07FFF000
03FFE000
007F0000
ENDCHAR
STARTCHAR colon
ENCODING 58
SWIDTH 163 0
DWIDTH 14 0
BBX 9 34 0 13
BITMAP
7E00
FF00
FF00
FF80
FF80
FF80
FF80
FF80
FF80
FF80
FF00
7F00
0000
0000
0000
0000
0000
0000
0000
0000
0000
0000
7E00
FF00
FF80
FF80
FF80
FF80
FF80
FF80
FF80
FF80
FF00
7E00
ENDCHAR
STARTCHAR semicolon
ENCODING 59
SWIDTH 147 0
DWIDTH 13 0
BBX 9 37 0 10
BITMAP
3C00
FF00
FF00
FF80
FF80
FF80
FF80
FF80
FF80
FF80
FF00
7F00
1C00
0000
0000
0000
0000
0000
0000
0000
0000
0000
7E00
FF00
FF80
FF80
FF80
FF80
FF80
FF80
FF80
FF80
FF80
FF80
FF80
FF00
7E00
ENDCHAR
STARTCHAR less
ENCODING 60
SWIDTH 292 0
DWIDTH 26 0
BBX 23 30 -1 17
BITMAP
0001F0
0007F8
000FF8
001FF8
007FF8
00FFF0
01FFE0
03FFC0
07FF80
0FFF00
1FFE00
3FFC00
7FF800
FFF000
FFE000
FFE000
FFF000
7FF800
3FFC00
1FFE00
0FFF00
07FF80
03FFC0
01FFE0
00FFF0
007FF8
003FF8
001FF8
0007F8
0003F0
ENDCHAR
STARTCHAR equal
ENCODING 61
SWIDTH 362 0
DWIDTH 32 0
BBX 26 25 0 16
BITMAP
3FFFFF00
7FFFFF80
FFFFFFC0
FFFFFFC0
FFFFFFC0
FFFFFFC0
FFFFFFC0
7FFFFF80
3FFFFF00
00000000
00000000
00000000
00000000
00000000
00000000
00000000
00000000
7FFFFF80
7FFFFF80
FFFFFFC0
FFFFFFC0
FFFFFFC0
FFFFFFC0
FFFFFFC0
7FFFFF80
ENDCHAR
STARTCHAR greater
ENCODING 62
SWIDTH 292 0
DWIDTH 26 0
BBX 21 30 0 17
BITMAP
7C0000
FF0000
FF8000
FFC000
FFF000
7FF800
3FFC00
1FFE00
0FFF00
07FF80
03FFC0
01FFE0
00FFF0
007FF8
003FF8
003FF8
007FF8
00FFF0
01FFE0
03FFC0
07FF80
0FFF00
1FFE00
3FFC00
7FF800
FFF000
FFE000
FFC000
FF8000
7E0000
ENDCHAR
STARTCHAR question
ENCODING 63
SWIDTH 353 0
DWIDTH 31 0
BBX 26 59 0 0
BITMAP
007F8000
01FFF000
07FFF800
0FFFFC00
1FFFFE00
1FFFFF00
3FFFFF00
3FFFFF80
7FFFFF80
7FE0FF80
7FC0FFC0
7FC07FC0
7FC07FC0
FF807FC0
FF807FC0
FF807FC0
FF807FC0
FF807FC0
FF807FC0
7F807FC0
3E007FC0
0000FFC0
0000FF80
0001FF80
0003FF00
0003FF00
0007FE00
000FFE00
000FFC00
001FF800
003FF800
003FF000
007FE000
007FC000
00FFC000
00FF8000
00FF8000
01FF0000
01FF0000
01FF0000
01FF0000
01FF0000
01FF0000
01FF0000
01FF0000
01FE0000
00FC0000
00000000
00000000
00780000
00FE0000
01FE0000
01FF0000
01FF0000
01FF0000
01FF0000
01FF0000
01FE0000
00FC0000
ENDCHAR
STARTCHAR at
ENCODING 64
SWIDTH 697 0
DWIDTH 61 0
BBX 53 57 0 0
BITMAP
0000000C000000
000003FFF00000
00001FFFFE0000
0000FFFFFF8000
0001FFFFFFE000
0007FFFFFFF000
000FFFFFFFF800
001FFFFFFFFE00
003FFFFFFFFE00
007FFFF1FFFF00
00FFFE000FFF80
01FFF00003FFC0
03FFE00001FFC0
07FF800000FFE0
07FF0060007FE0
0FFE0FFFE03FE0
0FFC1FFFF83FF0
1FF87FFFFC1FF0
1FF8FFFFFC1FF0
3FF0FFFFFE1FF0
3FF1FFFFFE0FF8
3FE1FFFFFC0FF8
3FE3FFFFFC0FF8
7FC3FF07FC0FF8
7FC3FE07FC0FF8
7FC7FE07F80FF8
7FC7FC0FF80FF8
7FC7FC0FF80FF8
7F87FC0FF80FF8
FF87FC0FF81FF0
FF87FC1FF81FF0
FF87FFFFF83FF0
FF87FFFFF07FF0
7F83FFFFF0FFE0
7FC3FFFFF3FFE0
7FC3FFFFFFFFC0
7FC1FFFFFFFF80
7FC0FFFFFFFF80
7FE07FFFFFFF00
3FE01FFFFFFC00
3FF0000FFFF800
1FF80007FFF000
1FFC0003FFC780
0FFE0000FC0FC0
0FFF0000003FC0
07FFC00000FFE0
03FFF80007FFE0
03FFFF80FFFFE0
01FFFFFFFFFFE0
007FFFFFFFFFC0
003FFFFFFFFF80
001FFFFFFFFE00
0007FFFFFFFC00
0001FFFFFFF000
00007FFFFF8000
00000FFFFC0000
0000002E000000
ENDCHAR
STARTCHAR A
ENCODING 65
SWIDTH 442 0
DWIDTH 39 0
BBX 33 59 0 0
BITMAP
0003F00000
0007F00000
000FF80000
000FF80000
000FF80000
000FF80000
001FFC0000
001FFC0000
001FFC0000
001FFC0000
001FFE0000
003FFE0000
003FFE0000
003FFE0000
003FFE0000
007FFF0000
007FFF0000
007FFF0000
007FFF0000
00FFFF8000
00FF7F8000
00FF7F8000
00FF7F8000
00FF7F8000
01FF7FC000
01FF3FC000
01FE3FC000
01FE3FC000
03FE3FE000
03FE3FE000
03FE3FE000
03FE3FE000
07FC1FF000
07FC1FF000
07FFFFF000
07FFFFF000
07FFFFF000
0FFFFFF800
0FFFFFF800
0FFFFFF800
0FFFFFF800
1FFFFFFC00
1FFFFFFC00
1FF007FC00
1FF007FC00
3FE003FE00
3FE003FE00
3FE003FE00
3FE003FE00
3FE003FE00
7FC001FF00
7FC001FF00
7FC001FF00
7FC001FF00
FF8000FF80
FF8000FF80
FF8000FF80
7F8000FF00
3E00007E00
ENDCHAR
STARTCHAR B
ENCODING 66
SWIDTH 386 0
DWIDTH 34 0
BBX 26 59 1 0
BITMAP
7FFF8000
FFFFF000
FFFFF800
FFFFFC00
FFFFFE00
FFFFFF00
FFFFFF00
FFFFFF80
FF0FFF80
FF01FFC0
FF00FFC0
FF007FC0
FF007FC0
FF007FC0
FF007FC0
FF003FC0
FF003FC0
FF003FC0
FF007FC0
FF007FC0
FF007FC0
FF007FC0
FF00FFC0
FF00FF80
FF03FF80
FFFFFF80
FFFFFF00
FFFFFF00
FFFFFE00
FFFFFE00
FFFFFE00
FFFFFF00
FFFFFF00
FFFFFF80
FF01FF80
FF00FFC0
FF007FC0
FF007FC0
FF007FC0
FF007FC0
FF007FC0
FF003FC0
FF003FC0
FF003FC0
FF007FC0
FF007FC0
FF007FC0
FF007FC0
FF00FFC0
FF01FF80
FFFFFF80
FFFFFF80
FFFFFF00
FFFFFF00
FFFFFE00
FFFFFC00
FFFFF800
FFFFE000
7FFF0000
ENDCHAR
STARTCHAR C
ENCODING 67
SWIDTH 394 0
DWIDTH 35 0
BBX 29 59 0 0
BITMAP
007FF000
01FFFC00
07FFFE00
0FFFFF00
1FFFFF80
1FFFFFC0
3FFFFFE0
3FFFFFE0
7FFDFFF0
7FE03FF0
7FC01FF0
FFC01FF0
FF801FF0
FF800FF8
FF800FF8
FF800FF8
FF800FF8
FF800FF8
FF800FF8
FF800FF0
FF8007F0
FF800000
FF800000
FF800000
FF800000
FF800000
FF800000
FF800000
FF800000
FF800000
FF800000
FF800000
FF800000
FF800000
FF800000
FF800000
FF800000
FF8003E0
FF8007F0
FF800FF8
FF800FF8
FF800FF8
FF800FF8
FF800FF8
FF800FF8
FF800FF8
FF801FF0
FFC01FF0
7FC01FF0
7FE07FF0
7FFFFFE0
3FFFFFE0
3FFFFFC0
1FFFFFC0
0FFFFF80
07FFFF00
03FFFE00
01FFF800
003FE000
ENDCHAR
STARTCHAR D
ENCODING 68
SWIDTH 398 0
DWIDTH 35 0
BBX 28 59 0 0
BITMAP
7FFFC000
7FFFF800
FFFFFC00
FFFFFE00
FFFFFF00
FFFFFF80
FFFFFFC0
FFFFFFC0
FF83FFE0
FF80FFE0
FF807FE0
FF803FE0
FF803FF0
FF801FF0
FF801FF0
FF801FF0
FF801FF0
FF801FF0
FF801FF0
FF801FF0
FF801FF0
FF801FF0
FF801FF0
FF801FF0
FF801FF0
FF801FF0
FF801FF0
FF801FF0
FF801FF0
FF801FF0
FF801FF0
FF801FF0
FF801FF0
FF801FF0
FF801FF0
FF801FF0
FF801FF0
FF801FF0
FF801FF0
FF801FF0
FF801FF0
FF801FF0
FF801FF0
FF801FF0
FF801FF0
FF801FF0
FF803FF0
FF803FE0
FF807FE0
FF80FFE0
FFFFFFC0
FFFFFFC0
FFFFFFC0
FFFFFF80
FFFFFF00
FFFFFE00
FFFFFC00
7FFFF000
3FFF8000
ENDCHAR
STARTCHAR E
ENCODING 69
SWIDTH 353 0
DWIDTH 31 0
BBX 25 59 0 0
BITMAP
7FFFFF00
FFFFFF80
FFFFFF80
FFFFFF80
FFFFFF80
FFFFFF80
FFFFFF80
FFFFFF00
FF800000
FF800000
FF800000
FF800000
FF800000
FF800000
FF800000
FF800000
FF800000
FF800000
FF800000
FF800000
FF800000
FF800000
FF800000
FF800000
FF800000
FFFFFC00
FFFFFC00
FFFFFE00
FFFFFE00
FFFFFE00
FFFFFE00
FFFFFE00
FFFFFC00
FFFFF800
FF800000
FF800000
FF800000
FF800000
FF800000
FF800000
FF800000
FF800000
FF800000
FF800000
FF800000
FF800000
FF800000
FF800000
FF800000
FF800000
FFFFFE00
FFFFFF80
FFFFFF80
FFFFFF80
FFFFFF80
FFFFFF80
FFFFFF80
FFFFFF80
7FFFFF00
ENDCHAR
STARTCHAR F
ENCODING 70
SWIDTH 358 0
DWIDTH 32 0
BBX 25 59 0 0
BITMAP
7FFFFF00
FFFFFF80
FFFFFF80
FFFFFF80
FFFFFF80
FFFFFF80
FFFFFF80
FFFFFF00
FF800000
FF800000
FF800000
FF800000
FF800000
FF800000
FF800000
FF800000
FF800000
FF800000
FF800000
FF800000
FF800000
FF800000
FF800000
FF800000
FF800000
FFFFF000
FFFFF800
FFFFFC00
FFFFFC00
FFFFFC00
FFFFFC00
FFFFF800
FFFFF800
FFFFC000
FF800000
FF800000
FF800000
FF800000
FF800000
FF800000
FF800000
FF800000
FF800000
FF800000
FF800000
FF800000
FF800000
FF800000
FF800000
FF800000
FF800000
FF800000
FF800000
FF800000
FF800000
FF800000
FF000000
FF000000
7E000000
ENDCHAR
STARTCHAR G
ENCODING 71
SWIDTH 402 0
DWIDTH 35 0
BBX 29 59 0 0
BITMAP
007FF000
01FFFC00
07FFFF00
0FFFFF80
1FFFFFC0
1FFFFFC0
3FFFFFE0
3FFFFFF0
7FFDFFF0
7FE03FF0
7FC01FF0
FFC01FF8
FF800FF8
FF800FF8
FF800FF8
FF800FF8
FF800FF8
FF800FF8
FF800FF8
FF8007F8
FF8007F0
FF800000
FF800000
FF800000
FF800000
FF800000
FF800000
FF800000
FF800000
FF80FFE0
FF83FFF0
FF83FFF8
FF87FFF8
FF87FFF8
FF87FFF8
FF83FFF8
FF83FFF8
FF81FFF8
FF800FF8
FF800FF8
FF800FF8
FF800FF8
FF800FF8
FF800FF8
FF800FF8
FF800FF8
FF800FF8
7FC01FF8
7FE01FF0
7FF03FF0
7FFFFFF0
3FFFFFE0
3FFFFFE0
1FFFFFC0
0FFFFFC0
07FFFF80
03FFFE00
01FFFC00
003FE000
ENDCHAR
STARTCHAR H
ENCODING 72
SWIDTH 394 0
DWIDTH 35 0
BBX 27 59 0 0
BITMAP
7F000FC0
FF801FE0
FF801FE0
FF801FE0
FF801FE0
FF801FE0
FF801FE0
FF801FE0
FF801FE0
FF801FE0
FF801FE0
FF801FE0
FF801FE0
FF801FE0
FF801FE0
FF801FE0
FF801FE0
FF801FE0
FF801FE0
FF801FE0
FF801FE0
FF801FE0
FF801FE0
FF801FE0
FF801FE0
FFFFFFE0
FFFFFFE0
FFFFFFE0
FFFFFFE0
FFFFFFE0
FFFFFFE0
FFFFFFE0
FFFFFFE0
FFFFFFE0
FF801FE0
FF801FE0
FF801FE0
FF801FE0
FF801FE0
FF801FE0
FF801FE0
FF801FE0
FF801FE0
FF801FE0
FF801FE0
FF801FE0
FF801FE0
FF801FE0
FF801FE0
FF801FE0
FF801FE0
FF801FE0
FF801FE0
FF801FE0
FF801FE0
FF801FE0
FF801FE0
7F001FE0
7E000FC0
ENDCHAR
STARTCHAR I
ENCODING 73
SWIDTH 164 0
DWIDTH 14 0
BBX 9 59 0 0
BITMAP
7E00
FF00
FF80
FF80
FF80
FF80
FF80
FF80
FF80
FF80
FF80
FF80
FF80
FF80
FF80
FF80
FF80
FF80
FF80
FF80
FF80
FF80
FF80
FF80
FF80
FF80
FF80
FF80
FF80
FF80
FF80
FF80
FF80
FF80
FF80
FF80
FF80
FF80
FF80
FF80
FF80
FF80
FF80
FF80
FF80
FF80
FF80
FF80
FF80
FF80
FF80
FF80
FF80
FF80
FF80
FF80
FF00
FF00
7E00
ENDCHAR
STARTCHAR J
ENCODING 74
SWIDTH 374 0
DWIDTH 33 0
BBX 27 59 -1 0
BITMAP
00000FC0
00001FE0
00001FE0
00001FE0
00001FE0
00001FE0
00001FE0
00001FE0
00001FE0
00001FE0
00001FE0
00001FE0
00001FE0
00001FE0
00001FE0
00001FE0
00001FE0
00001FE0
00001FE0
00001FE0
00001FE0
00001FE0
00001FE0
00001FE0
00001FE0
00001FE0
00001FE0
00001FE0
00001FE0
00001FE0
00001FE0
00001FE0
00001FE0
00001FE0
00001FE0
00001FE0
00001FE0
00001FE0
00001FE0
7F001FE0
FF801FE0
FF801FE0
FF801FE0
FF801FE0
FF801FE0
FF801FE0
FF803FE0
7FC03FE0
7FC03FE0
7FE07FE0
7FFFFFC0
3FFFFFC0
3FFFFFC0
1FFFFF80
1FFFFF00
0FFFFF00
07FFFC00
01FFF800
007FC000
ENDCHAR
STARTCHAR K
ENCODING 75
SWIDTH 388 0
DWIDTH 34 0
BBX 30 59 0 0
BITMAP
7F0003F8
FF0007FC
FF8007FC
FF800FFC
FF801FFC
FF801FF8
FF803FF8
FF803FF0
FF807FE0
FF80FFE0
FF80FFC0
FF81FFC0
FF81FF80
FF83FF00
FF87FF00
FF87FE00
FF8FFC00
FF9FFC00
FF9FF800
FFBFF800
FFBFF000
FFFFE000
FFFFE000
FFFFC000
FFFFC000
FFFF8000
FFFF0000
FFFF0000
FFFE0000
FFFF0000
FFFF8000
FFFF8000
FFFFC000
FFFFC000
FFFFE000
FFFFE000
FFFFF000
FFBFF800
FF9FF800
FF9FFC00
FF8FFC00
FF87FE00
FF87FE00
FF83FF00
FF83FF00
FF81FF80
FF81FFC0
FF80FFC0
FF807FE0
FF807FE0
FF803FF0
FF803FF0
FF801FF8
FF801FFC
FF800FFC
FF8007FC
FF8007FC
FF0003FC
7E0001F8
ENDCHAR
STARTCHAR L
ENCODING 76
SWIDTH 335 0
DWIDTH 29 0
BBX 26 59 -1 0
BITMAP
3F000000
7F800000
FF800000
FF800000
FF800000
FF800000
FF800000
FF800000
FF800000
FF800000
FF800000
FF800000
FF800000
FF800000
FF800000
FF800000
FF800000
FF800000
FF800000
FF800000
FF800000
FF800000
FF800000
FF800000
FF800000
FF800000
FF800000
FF800000
FF800000
FF800000
FF800000
FF800000
FF800000
FF800000
FF800000
FF800000
FF800000
FF800000
FF800000
FF800000
FF800000
FF800000
FF800000
FF800000
FF800000
FF800000
FF800000
FF800000
FF800000
FF800000
FFFFFE00
FFFFFF80
FFFFFF80
FFFFFFC0
FFFFFFC0
FFFFFFC0
7FFFFF80
7FFFFF80
3FFFFF00
ENDCHAR
STARTCHAR M
ENCODING 77
SWIDTH 443 0
DWIDTH 39 0
BBX 31 59 0 0
BITMAP
7F0000FC
FF0001FE
FF8003FE
FF8003FE
FF8003FE
FF8003FE
FFC003FE
FFC007FE
FFC007FE
FFC007FE
FFC007FE
FFE007FE
FFE007FE
FFE00FFE
FFE00FFE
FFE00FFE
FFF00FFE
FFF00FFE
FFF01FFE
FFF01FFE
FFF01FFE
FFF81FFE
FFF81FFE
FFF83FFE
FFF83FFE
FFF83FFE
FFF83FFE
FFFC3FFE
FFFC7FFE
FFFC7FFE
FFFC7FFE
FFFC7FFE
FFFE7FFE
FFFEFFFE
FFFEFFFE
FFFEFFFE
FFFEFFFE
FFFFFFFE
FFFFFDFE
FFFFFDFE
FFFFFDFE
FFFFFDFE
FFBFFDFE
FFBFFDFE
FFBFF9FE
FFBFF9FE
FFBFF9FE
FFBFF9FE
FFBFF9FE
FF9FF9FE
FF9FF9FE
FF9FF1FE
FF9FF1FE
FF9FF1FE
FF9FF1FE
FF8FF1FE
FF8FF1FE
FF0FE1FE
7E07C0FC
ENDCHAR
STARTCHAR N
ENCODING 78
SWIDTH 410 0
DWIDTH 36 0
BBX 29 59 0 0
BITMAP
7E0007F0
FF0007F8
FF800FF8
FF800FF8
FF800FF8
FFC00FF8
FFC00FF8
FFE00FF8
FFE00FF8
FFE00FF8
FFF00FF8
FFF00FF8
FFF80FF8
FFF80FF8
FFF80FF8
FFFC0FF8
FFFC0FF8
FFFE0FF8
FFFE0FF8
FFFE0FF8
FFFF0FF8
FFFF0FF8
FFFF8FF8
FFFF8FF8
FFFF8FF8
FFFFCFF8
FFFFCFF8
FFFFEFF8
FFBFEFF8
FFBFEFF8
FFBFFFF8
FF9FFFF8
FF9FFFF8
FF8FFFF8
FF8FFFF8
FF8FFFF8
FF87FFF8
FF87FFF8
FF83FFF8
FF83FFF8
FF83FFF8
FF81FFF8
FF81FFF8
FF80FFF8
FF80FFF8
FF80FFF8
FF807FF8
FF807FF8
FF803FF8
FF803FF8
FF803FF8
FF801FF8
FF801FF8
FF800FF8
FF800FF8
FF800FF8
FF8007F8
FF0007F8
7E0003F0
ENDCHAR
STARTCHAR O
ENCODING 79
SWIDTH 406 0
DWIDTH 36 0
BBX 29 59 0 0
BITMAP
007FF000
01FFFC00
07FFFF00
0FFFFF80
1FFFFFC0
1FFFFFC0
3FFFFFE0
3FFFFFE0
7FFDFFF0
7FE03FF0
7FC01FF0
FFC01FF0
FF800FF8
FF800FF8
FF800FF8
FF800FF8
FF800FF8
FF800FF8
FF800FF8
FF800FF8
FF800FF8
FF800FF8
FF800FF8
FF800FF8
FF800FF8
FF800FF8
FF800FF8
FF800FF8
FF800FF8
FF800FF8
FF800FF8
FF800FF8
FF800FF8
FF800FF8
FF800FF8
FF800FF8
FF800FF8
FF800FF8
FF800FF8
FF800FF8
FF800FF8
FF800FF8
FF800FF8
FF800FF8
FF800FF8
FF800FF8
FF800FF8
7FC01FF0
7FC01FF0
7FF07FF0
7FFFFFF0
3FFFFFE0
3FFFFFE0
1FFFFFC0
0FFFFF80
07FFFF00
03FFFE00
00FFFC00
003FE000
ENDCHAR
STARTCHAR P
ENCODING 80
SWIDTH 390 0
DWIDTH 34 0
BBX 28 59 0 0
BITMAP
7FFFE000
FFFFFC00
FFFFFE00
FFFFFF00
FFFFFF80
FFFFFFC0
FFFFFFC0
FFFFFFE0
FF87FFE0
FF807FF0
FF803FF0
FF801FF0
FF801FF0
FF801FF0
FF801FF0
FF801FF0
FF800FF0
FF801FF0
FF801FF0
FF801FF0
FF801FF0
FF801FF0
FF803FF0
FF807FF0
FF80FFE0
FFFFFFE0
FFFFFFC0
FFFFFFC0
FFFFFF80
FFFFFF00
FFFFFE00
FFFFFC00
FFFFF000
FFFA0000
FF800000
FF800000
FF800000
FF800000
FF800000
FF800000
FF800000
FF800000
FF800000
FF800000
FF800000
FF800000
FF800000
FF800000
FF800000
FF800000
FF800000
FF800000
FF800000
FF800000
FF800000
FF800000
FF800000
7F000000
3E000000
ENDCHAR
STARTCHAR Q
ENCODING 81
SWIDTH 398 0
DWIDTH 35 0
BBX 31 62 0 -3
BITMAP
003FE000
01FFFC00
07FFFE00
0FFFFF00
1FFFFF80
1FFFFFC0
3FFFFFE0
7FFFFFE0
7FFFFFE0
7FE07FF0
FFC03FF0
FFC01FF0
FF801FF0
FF800FF8
FF800FF8
FF800FF8
FF800FF8
FF800FF8
FF800FF8
FF800FF8
FF800FF8
FF800FF8
FF800FF8
FF800FF8
FF800FF8
FF800FF8
FF800FF8
FF800FF8
FF800FF8
FF800FF8
FF800FF8
FF800FF8
FF800FF8
FF800FF8
FF800FF8
FF800FF8
FF800FF8
FF800FF8
FF800FF8
FF800FF8
FF800FF8
FF800FF8
FF800FF8
FF800FF8
FF800FF8
FF83FFF0
FF87FFF0
FFC7FFF0
FFC7FFF0
7FE7FFF0
7FFBFFE0
7FFFFFE0
3FFFFFE0
1FFFFFF0
1FFFFFF0
0FFFFFF8
07FFFFFC
01FFFFFE
007FEFFE
000007FE
000003FC
000000F8
ENDCHAR
STARTCHAR R
ENCODING 82
SWIDTH 398 0
DWIDTH 35 0
BBX 29 59 0 0
BITMAP
3FFFE000
7FFFFC00
FFFFFF00
FFFFFF80
FFFFFFC0
FFFFFFE0
FFFFFFE0
FFFFFFF0
FFFFFFF0
FF803FF0
FF801FF0
FF801FF8
FF800FF8
FF800FF8
FF800FF8
FF800FF8
FF800FF8
FF800FF8
FF800FF8
FF800FF8
FF800FF8
FF800FF8
FF801FF8
FF801FF0
FF807FF0
FF83FFF0
FFFFFFF0
FFFFFFE0
FFFFFFC0
FFFFFFC0
FFFFFF80
FFFFFF80
FFFFFFC0
FFFFFFE0
FFFFFFE0
FF807FF0
FF803FF0
FF801FF0
FF801FF0
FF801FF0
FF800FF0
FF800FF0
FF800FF0
FF800FF0
FF800FF0
FF800FF0
FF800FF0
FF800FF0
FF800FF0
FF800FF0
FF800FF0
FF800FF0
FF800FF0
FF800FF0
FF800FF0
FF800FF0
FF800FF0
FF800FF0
7F0007E0
ENDCHAR
STARTCHAR S
ENCODING 83
SWIDTH 398 0
DWIDTH 35 0
BBX 29 59 0 0
BITMAP
003FE000
01FFFC00
03FFFE00
0FFFFF80
1FFFFF80
1FFFFFC0
3FFFFFE0
3FFFFFE0
7FFFFFF0
7FF07FF0
7FC01FF0
FFC01FF8
FF800FF8
FF800FF8
FF800FF8
FF800FF8
FF800FF8
FF800FF8
FFC00FF8
FFC00FF8
7FE007F0
7FF001E0
7FF80000
3FFC0000
1FFE0000
1FFF0000
0FFF8000
07FFC000
03FFF000
01FFF800
00FFFC00
007FFE00
003FFF00
000FFF80
0007FFC0
0003FFE0
0001FFE0
00007FF0
7F003FF0
FF003FF0
FF801FF8
FF800FF8
FF800FF8
FF800FF8
FF800FF8
FF800FF8
FF800FF8
FFC00FF8
7FC01FF8
7FE03FF8
7FFDFFF0
3FFFFFF0
3FFFFFE0
1FFFFFE0
1FFFFFC0
0FFFFF80
07FFFF00
01FFFE00
007FF000
ENDCHAR
STARTCHAR T
ENCODING 84
SWIDTH 401 0
DWIDTH 35 0
BBX 29 59 0 0
BITMAP
7FFFFFF0
FFFFFFF8
FFFFFFF8
FFFFFFF8
FFFFFFF8
FFFFFFF8
FFFFFFF8
FFFFFFF8
7FFFFFE0
003FE000
003FE000
003FE000
003FE000
003FE000
003FE000
003FE000
003FE000
003FE000
003FE000
003FE000
003FE000
003FE000
003FE000
003FE000
003FE000
003FE000
003FE000
003FE000
003FE000
003FE000
003FE000
003FE000
003FE000
003FE000
003FE000
003FE000
003FE000
003FE000
003FE000
003FE000
003FE000
003FE000
003FE000
003FE000
003FE000
003FE000
003FE000
003FE000
003FE000
003FE000
003FE000
003FE000
003FE000
003FE000
003FE000
003FE000
003FE000
003FC000
001FC000
ENDCHAR
STARTCHAR U
ENCODING 85
SWIDTH 409 0
DWIDTH 36 0
BBX 29 59 -1 0
BITMAP
3F0003F0
7F8007F8
7F8007F8
FF8007F8
FF8007F8
FF8007F8
FF8007F8
FF8007F8
FF8007F8
FF8007F8
FF8007F8
FF8007F8
FF8007F8
FF8007F8
FF8007F8
FF8007F8
FF8007F8
FF8007F8
FF8007F8
FF8007F8
FF8007F8
FF8007F8
FF8007F8
FF8007F8
FF8007F8
FF8007F8
FF8007F8
FF8007F8
FF8007F8
FF8007F8
FF8007F8
FF8007F8
FF8007F8
FF8007F8
FF8007F8
FF8007F8
FF8007F8
FF8007F8
FF8007F8
FF8007F8
FF8007F8
FF8007F8
FF8007F8
FF8007F8
FF800FF8
7F800FF8
7F800FF8
7FC00FF8
7FC01FF8
7FE03FF8
7FFCFFF0
3FFFFFF0
3FFFFFF0
1FFFFFE0
1FFFFFC0
0FFFFF80
07FFFF00
01FFFE00
007FF800
ENDCHAR
STARTCHAR V
ENCODING 86
SWIDTH 435 0
DWIDTH 38 0
BBX 33 59 0 0
BITMAP
3E00003F00
7F00007F80
FF80007F80
FF8000FF80
FF8000FF80
7FC000FF80
7FC000FF80
7FC001FF00
7FC001FF00
3FE001FF00
3FE001FF00
3FE001FF00
3FE003FE00
1FF003FE00
1FF003FE00
1FF003FE00
1FF007FC00
0FF807FC00
0FF807FC00
0FF807FC00
0FF80FF800
0FF80FF800
07FC0FF800
07FC0FF800
07FC1FF000
07FC1FF000
03FE1FF000
03FE1FF000
03FE1FF000
03FE3FE000
01FF3FE000
01FF3FE000
01FF3FE000
01FF7FC000
00FF7FC000
00FFFFC000
00FFFFC000
00FFFF8000
00FFFF8000
007FFF8000
007FFF8000
007FFF0000
007FFF0000
003FFF0000
003FFF0000
003FFF0000
003FFE0000
001FFE0000
001FFE0000
001FFE0000
001FFC0000
000FFC0000
000FFC0000
000FFC0000
000FF80000
0007F80000
0007F80000
0007F80000
0003F00000
ENDCHAR
STARTCHAR W
ENCODING 87
SWIDTH 560 0
DWIDTH 49 0
BBX 43 59 0 0
BITMAP
7E003F001FC0
FF007F803FC0
FF807F803FE0
FF807F803FE0
FF807FC07FC0
FF807FC07FC0
FF80FFC07FC0
FF80FFC07FC0
7F80FFC07FC0
7FC0FFC07FC0
7FC0FFE0FF80
7FC0FFE0FF80
7FC1FFE0FF80
7FC1FFE0FF80
3FC1FFE0FF80
3FE1FFE0FF80
3FE1FFF0FF00
3FE1FFF1FF00
3FE3FFF1FF00
3FE3FFF1FF00
1FE3FFF1FF00
1FE3FFF9FF00
1FF3FFF9FF00
1FF3FFF9FE00
1FF7FFFBFE00
1FF7FFFBFE00
1FF7FFFBFE00
0FF7FFFFFE00
0FFFFFFFFE00
0FFFFFFFFC00
0FFFFBFFFC00
0FFFFBFFFC00
0FFFFBFFFC00
07FFF3FFFC00
07FFF3FFFC00
07FFF3FFF800
07FFF1FFF800
07FFF1FFF800
07FFE1FFF800
03FFE1FFF800
03FFE1FFF800
03FFE1FFF800
03FFE0FFF000
03FFE0FFF000
03FFC0FFF000
01FFC0FFF000
01FFC0FFF000
01FFC0FFF000
01FFC07FE000
01FFC07FE000
01FF807FE000
00FF807FE000
00FF807FE000
00FF807FE000
00FF803FC000
00FF803FC000
00FF003FC000
007F003FC000
003E001F8000
ENDCHAR
STARTCHAR X
ENCODING 88
SWIDTH 442 0
DWIDTH 39 0
BBX 34 59 -1 0
BITMAP
7F00003F80
FF80007FC0
FF80007FC0
FFC0007FC0
7FC000FFC0
7FE000FF80
7FE001FF80
3FF001FF00
3FF003FF00
1FF803FE00
1FF807FE00
0FFC07FC00
0FFC0FFC00
07FE0FF800
07FE1FF800
03FF1FF800
03FF3FF000
01FFBFF000
01FFFFE000
00FFFFE000
00FFFFC000
007FFFC000
007FFF8000
003FFF8000
003FFF0000
001FFF0000
001FFE0000
001FFE0000
000FFC0000
000FFC0000
000FFE0000
001FFE0000
001FFF0000
003FFF0000
003FFF0000
007FFF8000
007FFF8000
00FFFFC000
00FFFFC000
00FFFFE000
01FFBFE000
01FF3FF000
03FF1FF000
03FE1FF800
07FE0FF800
07FC0FFC00
0FFC0FFC00
0FF807FE00
1FF807FE00
1FF803FF00
3FF003FF00
3FF001FF80
7FE001FF80
7FE000FFC0
FFC000FFC0
FFC0007FC0
FF80007FC0
FF80003FC0
7F00001F80
ENDCHAR
STARTCHAR Y
ENCODING 89
SWIDTH 406 0
DWIDTH 36 0
BBX 33 59 -2 0
BITMAP
7F0000FF00
7F8000FF00
FFC001FF80
7FC001FF00
7FE003FF00
7FE003FF00
3FF007FE00
3FF007FE00
1FF007FC00
1FF80FFC00
0FF80FFC00
0FFC1FF800
0FFC1FF800
07FE3FF000
07FE3FF000
03FF7FE000
03FF7FE000
01FF7FC000
01FFFFC000
01FFFFC000
00FFFF8000
00FFFF8000
007FFF0000
007FFF0000
003FFE0000
003FFE0000
003FFE0000
001FFC0000
001FFC0000
000FF80000
000FF80000
000FF80000
000FF80000
000FF80000
000FF80000
000FF80000
000FF80000
000FF80000
000FF80000
000FF80000
000FF80000
000FF80000
000FF80000
000FF80000
000FF80000
000FF80000
000FF80000
000FF80000
000FF80000
000FF80000
000FF80000
000FF80000
000FF80000
000FF80000
000FF80000
000FF80000
000FF80000
0007F00000
0003E00000
ENDCHAR
STARTCHAR Z
ENCODING 90
SWIDTH 411 0
DWIDTH 36 0
BBX 30 59 -1 0
BITMAP
7FFFFFF8
7FFFFFFC
FFFFFFFC
FFFFFFFC
FFFFFFFC
FFFFFFFC
7FFFFFFC
7FFFFFF8
00001FF8
00001FF0
00003FF0
00003FF0
00003FE0
00007FE0
00007FC0
0000FFC0
0000FFC0
0001FF80
0001FF80
0001FF00
0003FF00
0003FE00
0007FE00
0007FE00
0007FC00
000FFC00
000FF800
001FF800
001FF800
003FF000
003FF000
003FE000
007FE000
007FC000
00FFC000
00FFC000
00FF8000
01FF8000
01FF0000
03FF0000
03FE0000
07FE0000
07FE0000
07FC0000
0FFC0000
0FF80000
1FF80000
1FF80000
1FF00000
3FF00000
3FFFFFF0
7FFFFFF8
7FFFFFFC
7FFFFFFC
7FFFFFFC
7FFFFFFC
7FFFFFFC
7FFFFFF8
3FFFFFF0
ENDCHAR
STARTCHAR backslash
ENCODING 92
SWIDTH 430 0
DWIDTH 38 0
BBX 30 59 1 0
BITMAP
7F000000
FF800000
FF800000
FFC00000
7FC00000
7FC00000
7FE00000
3FE00000
3FF00000
1FF00000
1FF00000
1FF80000
0FF80000
0FFC0000
07FC0000
07FC0000
07FE0000
03FE0000
03FF0000
01FF0000
01FF0000
01FF8000
00FF8000
00FFC000
007FC000
007FC000
007FE000
003FE000
003FF000
001FF000
001FF000
001FF800
000FF800
000FFC00
0007FC00
0007FC00
0007FE00
0003FE00
0003FF00
0001FF00
0001FF00
0001FF80
0000FF80
0000FFC0
00007FC0
00007FC0
00007FE0
00003FE0
00003FF0
00001FF0
00001FF0
00001FF8
00000FF8
00000FFC
000007FC
000007FC
000007FC
000003FC
000001F8
ENDCHAR
STARTCHAR asciicircum
ENCODING 94
SWIDTH 237 0
DWIDTH 21 0
BBX 22 13 -1 63
BITMAP
01FE00
03FF00
07FF80
07FFC0
0FFFE0
1FFFF0
3FFFF0
7FFFF8
FFFFFC
FFEFFC
FFC7FC
7F87FC
3F01F8
ENDCHAR
STARTCHAR underscore
ENCODING 95
SWIDTH 511 0
DWIDTH 45 0
BBX 38 9 1 -3
BITMAP
3FFFFFFFF8
7FFFFFFFFC
FFFFFFFFFC
FFFFFFFFFC
FFFFFFFFFC
FFFFFFFFFC
FFFFFFFFFC
7FFFFFFFFC
3FFFFFFFF0
ENDCHAR
STARTCHAR grave
ENCODING 96
SWIDTH 222 0
DWIDTH 20 0
BBX 20 13 0 63
BITMAP
300000
7F0000
FFE000
FFF000
FFFC00
7FFF00
3FFF80
0FFFC0
07FFE0
01FFF0
007FF0
001FE0
0007E0
ENDCHAR
STARTCHAR a
ENCODING 97
SWIDTH 442 0
DWIDTH 39 0
BBX 33 59 0 0
BITMAP
0003F00000
0007F00000
000FF80000
000FF80000
000FF80000
000FF80000
001FFC0000
001FFC0000
001FFC0000
001FFC0000
001FFE0000
003FFE0000
003FFE0000
003FFE0000
003FFE0000
007FFF0000
007FFF0000
007FFF0000
007FFF0000
00FFFF8000
00FF7F8000
00FF7F8000
00FF7F8000
00FF7F8000
01FF7FC000
01FF3FC000
01FE3FC000
01FE3FC000
03FE3FE000
03FE3FE000
03FE3FE000
03FE3FE000
07FC1FF000
07FC1FF000
07FFFFF000
07FFFFF000
07FFFFF000
0FFFFFF800
0FFFFFF800
0FFFFFF800
0FFFFFF800
1FFFFFFC00
1FFFFFFC00
1FF007FC00
1FF007FC00
3FE003FE00
3FE003FE00
3FE003FE00
3FE003FE00
3FE003FE00
7FC001FF00
7FC001FF00
7FC001FF00
7FC001FF00
FF8000FF80
FF8000FF80
FF8000FF80
7F8000FF00
3E00007E00
ENDCHAR
STARTCHAR b
ENCODING 98
SWIDTH 386 0
DWIDTH 34 0
BBX 26 59 1 0
BITMAP
7FFF8000
FFFFF000
FFFFF800
FFFFFC00
FFFFFE00
FFFFFF00
FFFFFF00
FFFFFF80
FF0FFF80
FF01FFC0
FF00FFC0
FF007FC0
FF007FC0
FF007FC0
FF007FC0
FF003FC0
FF003FC0
FF003FC0
FF007FC0
FF007FC0
FF007FC0
FF007FC0
FF00FFC0
FF00FF80
FF03FF80
FFFFFF80
FFFFFF00
FFFFFF00
FFFFFE00
FFFFFE00
FFFFFE00
FFFFFF00
FFFFFF00
FFFFFF80
FF01FF80
FF00FFC0
FF007FC0
FF007FC0
FF007FC0
FF007FC0
FF007FC0
FF003FC0
FF003FC0
FF003FC0
FF007FC0
FF007FC0
FF007FC0
FF007FC0
FF00FFC0
FF01FF80
FFFFFF80
FFFFFF80
FFFFFF00
FFFFFF00
FFFFFE00
FFFFFC00
FFFFF800
FFFFE000
7FFF0000
ENDCHAR
STARTCHAR c
ENCODING 99
SWIDTH 394 0
DWIDTH 35 0
BBX 29 59 0 0
BITMAP
007FF000
01FFFC00
07FFFE00
0FFFFF00
1FFFFF80
1FFFFFC0
3FFFFFE0
3FFFFFE0
7FFDFFF0
7FE03FF0
7FC01FF0
FFC01FF0
FF801FF0
FF800FF8
FF800FF8
FF800FF8
FF800FF8
FF800FF8
FF800FF8
FF800FF0
FF8007F0
FF800000
FF800000
FF800000
FF800000
FF800000
FF800000
FF800000
FF800000
FF800000
FF800000
FF800000
FF800000
FF800000
FF800000
FF800000
FF800000
FF8003E0
FF8007F0
FF800FF8
FF800FF8
FF800FF8
FF800FF8
FF800FF8
FF800FF8
FF800FF8
FF801FF0
FFC01FF0
7FC01FF0
7FE07FF0
7FFFFFE0
3FFFFFE0
3FFFFFC0
1FFFFFC0
0FFFFF80
07FFFF00
03FFFE00
01FFF800
003FE000
ENDCHAR
STARTCHAR d
ENCODING 100
SWIDTH 398 0
DWIDTH 35 0
BBX 28 59 0 0
BITMAP
7FFFC000
7FFFF800
FFFFFC00
FFFFFE00
FFFFFF00
FFFFFF80
FFFFFFC0
FFFFFFC0
FF83FFE0
FF80FFE0
FF807FE0
FF803FE0
FF803FF0
FF801FF0
FF801FF0
FF801FF0
FF801FF0
FF801FF0
FF801FF0
FF801FF0
FF801FF0
FF801FF0
FF801FF0
FF801FF0
FF801FF0
FF801FF0
FF801FF0
FF801FF0
FF801FF0
FF801FF0
FF801FF0
FF801FF0
FF801FF0
FF801FF0
FF801FF0
FF801FF0
FF801FF0
FF801FF0
FF801FF0
FF801FF0
FF801FF0
FF801FF0
FF801FF0
FF801FF0
FF801FF0
FF801FF0
FF803FF0
FF803FE0
FF807FE0
FF80FFE0
FFFFFFC0
FFFFFFC0
FFFFFFC0
FFFFFF80
FFFFFF00
FFFFFE00
FFFFFC00
7FFFF000
3FFF8000
ENDCHAR
STARTCHAR e
ENCODING 101
SWIDTH 353 0
DWIDTH 31 0
BBX 25 59 0 0
BITMAP
7FFFFF00
FFFFFF80
FFFFFF80
FFFFFF80
FFFFFF80
FFFFFF80
FFFFFF80
FFFFFF00
FF800000
FF800000
FF800000
FF800000
FF800000
FF800000
FF800000
FF800000
FF800000
FF800000
FF800000
FF800000
FF800000
FF800000
FF800000
FF800000
FF800000
FFFFFC00
FFFFFC00
FFFFFE00
FFFFFE00
FFFFFE00
FFFFFE00
FFFFFE00
FFFFFC00
FFFFF800
FF800000
FF800000
FF800000
FF800000
FF800000
FF800000
FF800000
FF800000
FF800000
FF800000
FF800000
FF800000
FF800000
FF800000
FF800000
FF800000
FFFFFE00
FFFFFF80
FFFFFF80
FFFFFF80
FFFFFF80
FFFFFF80
FFFFFF80
FFFFFF80
7FFFFF00
ENDCHAR
STARTCHAR f
ENCODING 102
SWIDTH 358 0
DWIDTH 32 0
BBX 25 59 0 0
BITMAP
7FFFFF00
FFFFFF80
FFFFFF80
FFFFFF80
FFFFFF80
FFFFFF80
FFFFFF80
FFFFFF00
FF800000
FF800000
FF800000
FF800000
FF800000
FF800000
FF800000
FF800000
FF800000
FF800000
FF800000
FF800000
FF800000
FF800000
FF800000
FF800000
FF800000
FFFFF000
FFFFF800
FFFFFC00
FFFFFC00
FFFFFC00
FFFFFC00
FFFFF800
FFFFF800
FF800000
FF800000
FF800000
FF800000
FF800000
FF800000
FF800000
FF800000
FF800000
FF800000
FF800000
FF800000
FF800000
FF800000
FF800000
FF800000
FF800000
FF800000
FF800000
FF800000
FF800000
FF800000
FF800000
FF000000
FF000000
3E000000
ENDCHAR
STARTCHAR g
ENCODING 103
SWIDTH 402 0
DWIDTH 35 0
BBX 29 59 0 0
BITMAP
007FF000
01FFFC00
07FFFF00
0FFFFF80
1FFFFFC0
1FFFFFC0
3FFFFFE0
3FFFFFF0
7FFDFFF0
7FE03FF0
7FC01FF0
FFC01FF8
FF800FF8
FF800FF8
FF800FF8
FF800FF8
FF800FF8
FF800FF8
FF800FF8
FF8007F8
FF8007F0
FF800000
FF800000
FF800000
FF800000
FF800000
FF800000
FF800000
FF800000
FF80FFE0
FF83FFF0
FF83FFF8
FF87FFF8
FF87FFF8
FF87FFF8
FF83FFF8
FF83FFF8
FF81FFF8
FF800FF8
FF800FF8
FF800FF8
FF800FF8
FF800FF8
FF800FF8
FF800FF8
FF800FF8
FF800FF8
7FC01FF8
7FE01FF0
7FF03FF0
7FFFFFF0
3FFFFFE0
3FFFFFE0
1FFFFFC0
0FFFFFC0
07FFFF80
03FFFE00
01FFFC00
003FE000
ENDCHAR
STARTCHAR h
ENCODING 104
SWIDTH 394 0
DWIDTH 35 0
BBX 27 59 0 0
BITMAP
7F000FC0
FF801FE0
FF801FE0
FF801FE0
FF801FE0
FF801FE0
FF801FE0
FF801FE0
FF801FE0
FF801FE0
FF801FE0
FF801FE0
FF801FE0
FF801FE0
FF801FE0
FF801FE0
FF801FE0
FF801FE0
FF801FE0
FF801FE0
FF801FE0
FF801FE0
FF801FE0
FF801FE0
FF801FE0
FFFFFFE0
FFFFFFE0
FFFFFFE0
FFFFFFE0
FFFFFFE0
FFFFFFE0
FFFFFFE0
FFFFFFE0
FFFFFFE0
FF801FE0
FF801FE0
FF801FE0
FF801FE0
FF801FE0
FF801FE0
FF801FE0
FF801FE0
FF801FE0
FF801FE0
FF801FE0
FF801FE0
FF801FE0
FF801FE0
FF801FE0
FF801FE0
FF801FE0
FF801FE0
FF801FE0
FF801FE0
FF801FE0
FF801FE0
FF801FE0
7F001FE0
7E000FC0
ENDCHAR
STARTCHAR i
ENCODING 105
SWIDTH 164 0
DWIDTH 14 0
BBX 9 59 0 0
BITMAP
7E00
FF00
FF80
FF80
FF80
FF80
FF80
FF80
FF80
FF80
FF80
FF80
FF80
FF80
FF80
FF80
FF80
FF80
FF80
FF80
FF80
FF80
FF80
FF80
FF80
FF80
FF80
FF80
FF80
FF80
FF80
FF80
FF80
FF80
FF80
FF80
FF80
FF80
FF80
FF80
FF80
FF80
FF80
FF80
FF80
FF80
FF80
FF80
FF80
FF80
FF80
FF80
FF80
FF80
FF80
FF80
FF00
FF00
7E00
ENDCHAR
STARTCHAR j
ENCODING 106
SWIDTH 374 0
DWIDTH 33 0
BBX 27 59 -1 0
BITMAP
00000FC0
00001FE0
00001FE0
00001FE0
00001FE0
00001FE0
00001FE0
00001FE0
00001FE0
00001FE0
00001FE0
00001FE0
00001FE0
00001FE0
00001FE0
00001FE0
00001FE0
00001FE0
00001FE0
00001FE0
00001FE0
00001FE0
00001FE0
00001FE0
00001FE0
00001FE0
00001FE0
00001FE0
00001FE0
00001FE0
00001FE0
00001FE0
00001FE0
00001FE0
00001FE0
00001FE0
00001FE0
00001FE0
00001FE0
7F001FE0
FF801FE0
FF801FE0
FF801FE0
FF801FE0
FF801FE0
FF801FE0
FF803FE0
7FC03FE0
7FC03FE0
7FE07FE0
7FFFFFC0
3FFFFFC0
3FFFFFC0
1FFFFF80
1FFFFF00
0FFFFF00
07FFFC00
01FFF800
007FC000
ENDCHAR
STARTCHAR k
ENCODING 107
SWIDTH 410 0
DWIDTH 36 0
BBX 30 59 0 0
BITMAP
7F0003F8
FF0007FC
FF8007FC
FF800FFC
FF801FFC
FF801FF8
FF803FF8
FF803FF0
FF807FE0
FF80FFE0
FF80FFC0
FF81FFC0
FF81FF80
FF83FF00
FF87FF00
FF87FE00
FF8FFC00
FF9FFC00
FF9FF800
FFBFF800
FFBFF000
FFFFE000
FFFFE000
FFFFC000
FFFFC000
FFFF8000
FFFF0000
FFFF0000
FFFE0000
FFFF0000
FFFF8000
FFFF8000
FFFFC000
FFFFC000
FFFFE000
FFFFE000
FFFFF000
FFBFF800
FF9FF800
FF9FFC00
FF8FFC00
FF87FE00
FF87FE00
FF83FF00
FF83FF00
FF81FF80
FF81FFC0
FF80FFC0
FF807FE0
FF807FE0
FF803FF0
FF803FF0
FF801FF8
FF801FFC
FF800FFC
FF8007FC
FF8007FC
FF0003FC
7E0001F8
ENDCHAR
STARTCHAR l
ENCODING 108
SWIDTH 335 0
DWIDTH 29 0
BBX 26 59 -1 0
BITMAP
3F000000
7F800000
FF800000
FF800000
FF800000
FF800000
FF800000
FF800000
FF800000
FF800000
FF800000
FF800000
FF800000
FF800000
FF800000
FF800000
FF800000
FF800000
FF800000
FF800000
FF800000
FF800000
FF800000
FF800000
FF800000
FF800000
FF800000
FF800000
FF800000
FF800000
FF800000
FF800000
FF800000
FF800000
FF800000
FF800000
FF800000
FF800000
FF800000
FF800000
FF800000
FF800000
FF800000
FF800000
FF800000
FF800000
FF800000
FF800000
FF800000
FF800000
FFFFFE00
FFFFFF80
FFFFFF80
FFFFFFC0
FFFFFFC0
FFFFFFC0
7FFFFF80
7FFFFF80
3FFFFF00
ENDCHAR
STARTCHAR m
ENCODING 109
SWIDTH 443 0
DWIDTH 39 0
BBX 31 59 0 0
BITMAP
7F0000FC
FF0001FE
FF8003FE
FF8003FE
FF8003FE
FF8003FE
FFC003FE
FFC007FE
FFC007FE
FFC007FE
FFC007FE
FFE007FE
FFE007FE
FFE00FFE
FFE00FFE
FFE00FFE
FFF00FFE
FFF00FFE
FFF01FFE
FFF01FFE
FFF01FFE
FFF81FFE
FFF81FFE
FFF83FFE
FFF83FFE
FFF83FFE
FFF83FFE
FFFC3FFE
FFFC7FFE
FFFC7FFE
FFFC7FFE
FFFC7FFE
FFFE7FFE
FFFEFFFE
FFFEFFFE
FFFEFFFE
FFFEFFFE
FFFFFFFE
FFFFFDFE
FFFFFDFE
FFFFFDFE
FFFFFDFE
FFBFFDFE
FFBFFDFE
FFBFF9FE
FFBFF9FE
FFBFF9FE
FFBFF9FE
FFBFF9FE
FF9FF9FE
FF9FF9FE
FF9FF1FE
FF9FF1FE
FF9FF1FE
FF9FF1FE
FF8FF1FE
FF8FF1FE
FF0FE1FE
7E07C0FC
ENDCHAR
STARTCHAR n
ENCODING 110
SWIDTH 410 0
DWIDTH 36 0
BBX 29 59 0 0
BITMAP
7E0007F0
FF0007F8
FF800FF8
FF800FF8
FF800FF8
FFC00FF8
FFC00FF8
FFE00FF8
FFE00FF8
FFE00FF8
FFF00FF8
FFF00FF8
FFF80FF8
FFF80FF8
FFF80FF8
FFFC0FF8
FFFC0FF8
FFFE0FF8
FFFE0FF8
FFFE0FF8
FFFF0FF8
FFFF0FF8
FFFF8FF8
FFFF8FF8
FFFF8FF8
FFFFCFF8
FFFFCFF8
FFFFEFF8
FFBFEFF8
FFBFEFF8
FFBFFFF8
FF9FFFF8
FF9FFFF8
FF8FFFF8
FF8FFFF8
FF8FFFF8
FF87FFF8
FF87FFF8
FF83FFF8
FF83FFF8
FF83FFF8
FF81FFF8
FF81FFF8
FF80FFF8
FF80FFF8
FF80FFF8
FF807FF8
FF807FF8
FF803FF8
FF803FF8
FF803FF8
FF801FF8
FF801FF8
FF800FF8
FF800FF8
FF800FF8
FF8007F8
FF0007F8
7E0003F0
ENDCHAR
STARTCHAR o
ENCODING 111
SWIDTH 406 0
DWIDTH 36 0
BBX 29 59 0 0
BITMAP
007FF000
01FFFC00
07FFFF00
0FFFFF80
1FFFFFC0
1FFFFFC0
3FFFFFE0
3FFFFFE0
7FFDFFF0
7FE03FF0
7FC01FF0
FFC01FF0
FF800FF8
FF800FF8
FF800FF8
FF800FF8
FF800FF8
FF800FF8
FF800FF8
FF800FF8
FF800FF8
FF800FF8
FF800FF8
FF800FF8
FF800FF8
FF800FF8
FF800FF8
FF800FF8
FF800FF8
FF800FF8
FF800FF8
FF800FF8
FF800FF8
FF800FF8
FF800FF8
FF800FF8
FF800FF8
FF800FF8
FF800FF8
FF800FF8
FF800FF8
FF800FF8
FF800FF8
FF800FF8
FF800FF8
FF800FF8
FF800FF8
7FC01FF0
7FC01FF0
7FF07FF0
7FFFFFF0
3FFFFFE0
3FFFFFE0
1FFFFFC0
0FFFFF80
07FFFF00
03FFFE00
00FFFC00
003FE000
ENDCHAR
STARTCHAR p
ENCODING 112
SWIDTH 390 0
DWIDTH 34 0
BBX 28 59 0 0
BITMAP
7FFFF000
FFFFFC00
FFFFFE00
FFFFFF00
FFFFFF80
FFFFFFC0
FFFFFFC0
FFFFFFE0
FF87FFE0
FF807FF0
FF803FF0
FF801FF0
FF801FF0
FF801FF0
FF801FF0
FF801FF0
FF800FF0
FF801FF0
FF801FF0
FF801FF0
FF801FF0
FF801FF0
FF803FF0
FF807FF0
FF80FFE0
FFFFFFE0
FFFFFFC0
FFFFFFC0
FFFFFF80
FFFFFF00
FFFFFE00
FFFFFC00
FFFFF000
FFF80000
FF800000
FF800000
FF800000
FF800000
FF800000
FF800000
FF800000
FF800000
FF800000
FF800000
FF800000
FF800000
FF800000
FF800000
FF800000
FF800000
FF800000
FF800000
FF800000
FF800000
FF800000
FF800000
FF800000
7F000000
3E000000
ENDCHAR
STARTCHAR q
ENCODING 113
SWIDTH 398 0
DWIDTH 35 0
BBX 31 62 0 -3
BITMAP
007FE000
01FFFC00
07FFFE00
0FFFFF00
1FFFFF80
3FFFFFC0
3FFFFFE0
7FFFFFE0
7FFFFFE0
7FE07FF0
FFC03FF0
FFC01FF0
FF801FF0
FF800FF8
FF800FF8
FF800FF8
FF800FF8
FF800FF8
FF800FF8
FF800FF8
FF800FF8
FF800FF8
FF800FF8
FF800FF8
FF800FF8
FF800FF8
FF800FF8
FF800FF8
FF800FF8
FF800FF8
FF800FF8
FF800FF8
FF800FF8
FF800FF8
FF800FF8
FF800FF8
FF800FF8
FF800FF8
FF800FF8
FF800FF8
FF800FF8
FF800FF8
FF800FF8
FF800FF8
FF800FF8
FF83FFF0
FF87FFF0
FFC7FFF0
7FC7FFF0
7FE7FFF0
7FFFFFE0
7FFFFFE0
3FFFFFE0
1FFFFFF0
1FFFFFF0
0FFFFFF8
07FFFFFC
01FFFFFE
007FEFFE
000007FE
000003FC
000000F0
ENDCHAR
STARTCHAR r
ENCODING 114
SWIDTH 398 0
DWIDTH 35 0
BBX 29 60 0 0
BITMAP
1FFE0000
7FFFF800
FFFFFE00
FFFFFF80
FFFFFFC0
FFFFFFC0
FFFFFFE0
FFFFFFE0
FFFFFFF0
FFFFFFF0
FF803FF0
FF801FF8
FF800FF8
FF800FF8
FF800FF8
FF800FF8
FF800FF8
FF800FF8
FF800FF8
FF800FF8
FF800FF8
FF800FF8
FF800FF8
FF801FF8
FF803FF0
FF807FF0
FFFFFFF0
FFFFFFE0
FFFFFFE0
FFFFFFC0
FFFFFF80
FFFFFF80
FFFFFFC0
FFFFFFC0
FFFFFFE0
FF80FFE0
FF807FF0
FF803FF0
FF801FF0
FF801FF0
FF801FF0
FF800FF0
FF800FF0
FF800FF0
FF800FF0
FF800FF0
FF800FF0
FF800FF0
FF800FF0
FF800FF0
FF800FF0
FF800FF0
FF800FF0
FF800FF0
FF800FF0
FF800FF0
FF800FF0
FF800FF0
7F000FF0
3E0007E0
ENDCHAR
STARTCHAR s
ENCODING 115
SWIDTH 398 0
DWIDTH 35 0
BBX 29 59 0 0
BITMAP
007FF000
01FFFC00
07FFFF00
0FFFFF80
1FFFFFC0
3FFFFFC0
3FFFFFE0
7FFFFFE0
7FFFFFF0
7FE03FF0
7FC01FF0
FF801FF8
FF800FF8
FF800FF8
FF800FF8
FF800FF8
FF800FF8
FF800FF8
FFC00FF8
7FC007F8
7FE007F0
7FF00000
3FF80000
3FFC0000
1FFE0000
1FFF0000
0FFFC000
07FFE000
03FFF000
01FFF800
00FFFE00
003FFF00
001FFF80
000FFF80
0007FFC0
0001FFE0
0000FFE0
00007FF0
7F003FF0
FF801FF8
FF801FF8
FF800FF8
FF800FF8
FF800FF8
FF800FF8
FF800FF8
FF800FF8
7FC00FF8
7FC01FF8
7FE03FF0
7FFFFFF0
3FFFFFF0
3FFFFFE0
1FFFFFE0
1FFFFFC0
0FFFFF80
03FFFF00
01FFFC00
003FE000
ENDCHAR
STARTCHAR t
ENCODING 116
SWIDTH 401 0
DWIDTH 35 0
BBX 29 59 0 0
BITMAP
7FFFFFF0
FFFFFFF8
FFFFFFF8
FFFFFFF8
FFFFFFF8
FFFFFFF8
FFFFFFF8
7FFFFFF0
1FFFFFC0
003FE000
003FE000
003FE000
003FE000
003FE000
003FE000
003FE000
003FE000
003FE000
003FE000
003FE000
003FE000
003FE000
003FE000
003FE000
003FE000
003FE000
003FE000
003FE000
003FE000
003FE000
003FE000
003FE000
003FE000
003FE000
003FE000
003FE000
003FE000
003FE000
003FE000
003FE000
003FE000
003FE000
003FE000
003FE000
003FE000
003FE000
003FE000
003FE000
003FE000
003FE000
003FE000
003FE000
003FE000
003FE000
003FE000
003FE000
003FE000
003FC000
001F8000
ENDCHAR
STARTCHAR u
ENCODING 117
SWIDTH 409 0
DWIDTH 36 0
BBX 29 59 -1 0
BITMAP
3F0003F0
7F8007F8
FF8007F8
FF8007F8
FF8007F8
FF8007F8
FF8007F8
FF8007F8
FF8007F8
FF8007F8
FF8007F8
FF8007F8
FF8007F8
FF8007F8
FF8007F8
FF8007F8
FF8007F8
FF8007F8
FF8007F8
FF8007F8
FF8007F8
FF8007F8
FF8007F8
FF8007F8
FF8007F8
FF8007F8
FF8007F8
FF8007F8
FF8007F8
FF8007F8
FF8007F8
FF8007F8
FF8007F8
FF8007F8
FF8007F8
FF8007F8
FF8007F8
FF8007F8
FF8007F8
FF8007F8
FF8007F8
FF8007F8
FF8007F8
FF8007F8
FF8007F8
7F800FF8
7FC00FF8
7FC00FF8
7FE01FF8
7FF03FF8
3FFFFFF0
3FFFFFF0
3FFFFFE0
1FFFFFE0
0FFFFFC0
07FFFF80
03FFFF00
00FFFC00
003FF000
ENDCHAR
STARTCHAR v
ENCODING 118
SWIDTH 435 0
DWIDTH 38 0
BBX 33 59 0 0
BITMAP
7F00003F00
FF80007F80
FF80007F80
FF8000FF80
7FC000FF80
7FC000FF80
7FC000FF80
7FC001FF00
7FC001FF00
3FE001FF00
3FE001FF00
3FE003FE00
3FE003FE00
1FF003FE00
1FF003FE00
1FF003FE00
1FF007FC00
0FF807FC00
0FF807FC00
0FF807FC00
0FF80FF800
07F80FF800
07FC0FF800
07FC0FF800
07FC1FF000
03FC1FF000
03FE1FF000
03FE1FF000
03FE3FE000
03FE3FE000
01FF3FE000
01FF3FE000
01FF3FE000
01FF7FC000
00FFFFC000
00FFFFC000
00FFFFC000
00FFFF8000
007FFF8000
007FFF8000
007FFF8000
007FFF0000
003FFF0000
003FFF0000
003FFF0000
003FFE0000
003FFE0000
001FFE0000
001FFE0000
001FFE0000
001FFC0000
000FFC0000
000FFC0000
000FFC0000
000FF80000
0007F80000
0007F80000
0007F00000
0003E00000
ENDCHAR
STARTCHAR w
ENCODING 119
SWIDTH 555 0
DWIDTH 49 0
BBX 43 59 0 0
BITMAP
7E003F001FC0
FF007F803FC0
FF807F803FE0
FF807F803FE0
FF807FC07FC0
FF807FC07FC0
FF80FFC07FC0
FF80FFC07FC0
7F80FFC07FC0
7FC0FFC07FC0
7FC0FFE0FF80
7FC0FFE0FF80
7FC1FFE0FF80
7FC1FFE0FF80
3FC1FFE0FF80
3FE1FFE0FF80
3FE1FFF0FF00
3FE1FFF1FF00
3FE3FFF1FF00
3FE3FFF1FF00
1FE3FFF1FF00
1FE3FFF9FF00
1FF3FFF9FF00
1FF3FFF9FE00
1FF7FFFBFE00
1FF7FFFBFE00
1FF7FFFBFE00
0FF7FFFFFE00
0FFFFFFFFE00
0FFFFFFFFC00
0FFFFBFFFC00
0FFFFBFFFC00
0FFFFBFFFC00
07FFF3FFFC00
07FFF3FFFC00
07FFF3FFF800
07FFF1FFF800
07FFF1FFF800
07FFE1FFF800
03FFE1FFF800
03FFE1FFF800
03FFE1FFF800
03FFE0FFF000
03FFE0FFF000
03FFC0FFF000
01FFC0FFF000
01FFC0FFF000
01FFC0FFF000
01FFC07FE000
01FFC07FE000
01FF807FE000
00FF807FE000
00FF807FE000
00FF807FE000
00FF803FC000
00FF803FC000
00FF003FC000
007F003FC000
003E001F8000
ENDCHAR
STARTCHAR x
ENCODING 120
SWIDTH 442 0
DWIDTH 39 0
BBX 34 59 -1 0
BITMAP
7F00003F80
FF80007FC0
FF80007FC0
FFC0007FC0
7FC000FFC0
7FE000FF80
7FE001FF80
3FF001FF00
3FF003FF00
1FF803FE00
1FF807FE00
0FFC07FC00
0FFC0FFC00
07FE0FF800
07FE1FF800
03FF1FF800
03FF3FF000
01FFBFF000
01FFFFE000
00FFFFE000
00FFFFC000
007FFFC000
007FFF8000
003FFF8000
003FFF0000
001FFF0000
001FFE0000
001FFE0000
000FFC0000
000FFC0000
000FFE0000
001FFE0000
001FFF0000
003FFF0000
003FFF0000
007FFF8000
007FFF8000
00FFFFC000
00FFFFC000
00FFFFE000
01FFBFE000
01FF3FF000
03FF1FF000
03FE1FF800
07FE0FF800
07FC0FFC00
0FFC0FFC00
0FF807FE00
1FF807FE00
1FF803FF00
3FF003FF00
3FF001FF80
7FE001FF80
7FE000FFC0
FFC000FFC0
FFC0007FC0
FF80007FC0
FF80003FC0
7F00001F80
ENDCHAR
STARTCHAR y
ENCODING 121
SWIDTH 406 0
DWIDTH 36 0
BBX 33 59 -2 0
BITMAP
7F0000FF00
7F8000FF00
FFC001FF80
7FC001FF00
7FE003FF00
7FE003FF00
3FF007FE00
3FF007FE00
1FF007FC00
1FF80FFC00
0FF80FFC00
0FFC1FF800
0FFC1FF800
07FE3FF000
07FE3FF000
03FF7FE000
03FF7FE000
01FF7FC000
01FFFFC000
01FFFFC000
00FFFF8000
00FFFF8000
007FFF0000
007FFF0000
003FFE0000
003FFE0000
003FFE0000
001FFC0000
001FFC0000
000FF80000
000FF80000
000FF80000
000FF80000
000FF80000
000FF80000
000FF80000
000FF80000
000FF80000
000FF80000
000FF80000
000FF80000
000FF80000
000FF80000
000FF80000
000FF80000
000FF80000
000FF80000
000FF80000
000FF80000
000FF80000
000FF80000
000FF80000
000FF80000
000FF80000
000FF80000
000FF80000
000FF80000
0007F00000
0003E00000
ENDCHAR
STARTCHAR z
ENCODING 122
SWIDTH 411 0
DWIDTH 36 0
BBX 30 59 -1 0
BITMAP
7FFFFFF8
7FFFFFFC
FFFFFFFC
FFFFFFFC
FFFFFFFC
FFFFFFFC
7FFFFFFC
7FFFFFF8
00001FF8
00001FF0
00003FF0
00003FF0
00003FE0
00007FE0
00007FC0
0000FFC0
0000FFC0
0001FF80
0001FF80
0001FF00
0003FF00
0003FE00
0007FE00
0007FE00
0007FC00
000FFC00
000FF800
001FF800
001FF800
003FF000
003FF000
003FE000
007FE000
007FC000
00FFC000
00FFC000
00FF8000
01FF8000
01FF0000
03FF0000
03FE0000
07FE0000
07FE0000
07FC0000
0FFC0000
0FF80000
1FF80000
1FF80000
1FF00000
3FF00000
3FFFFFF0
7FFFFFF8
7FFFFFFC
7FFFFFFC
7FFFFFFC
7FFFFFFC
7FFFFFFC
7FFFFFF8
3FFFFFF0
ENDCHAR
STARTCHAR bar
ENCODING 124
SWIDTH 139 0
DWIDTH 12 0
BBX 9 59 0 0
BITMAP
7E00
FF00
FF80
FF80
FF80
FF80
FF80
FF80
FF80
FF80
FF80
FF80
FF80
FF80
FF80
FF80
FF80
FF80
FF80
FF80
FF80
FF80
FF80
FF80
FF80
FF80
FF80
FF80
FF80
FF80
FF80
FF80
FF80
FF80
FF80
FF80
FF80
FF80
FF80
FF80
FF80
FF80
FF80
FF80
FF80
FF80
FF80
FF80
FF80
FF80
FF80
FF80
FF80
FF80
FF80
FF80
FF00
FF00
7E00
ENDCHAR
STARTCHAR asciitilde
ENCODING 126
SWIDTH 322 0
DWIDTH 28 0
BBX 28 13 -1 55
BITMAP
01F80000
07FE0000
0FFF0FE0
1FFF9FF0
3FFFFFF0
7FFFFFF0
7FFFFFF0
FFFFFFE0
FFFFFFC0
7FDFFFC0
7F8FFF80
0003FE00
00007000
ENDCHAR
STARTCHAR exclamdown
ENCODING 161
SWIDTH 143 0
DWIDTH 13 0
BBX 9 59 -1 0
BITMAP
7F00
7F80
FF80
FF80
FF80
FF80
FF80
7F80
7F00
0000
0000
0000
3F00
7F80
FF80
FF80
FF80
FF80
FF80
FF80
FF80
FF80
FF80
FF80
FF80
FF80
FF80
FF80
FF80
FF80
FF80
FF80
FF80
FF80
FF80
FF80
FF80
FF80
FF80
FF80
FF80
FF80
FF80
FF80
FF80
FF80
FF80
FF80
FF80
FF80
FF80
FF80
FF80
FF80
FF80
FF80
7F80
7F80
3F00
ENDCHAR
STARTCHAR sterling
ENCODING 163
SWIDTH 373 0
DWIDTH 33 0
BBX 30 59 -1 0
BITMAP
0007FE00
001FFF00
003FFFC0
007FFFE0
00FFFFE0
01FFFFF0
01FFFFF0
03FFFFF0
03FFBFF8
03FE0FF8
03FE07F8
07FE07F0
07FC03E0
07FC0180
07FC0000
07FC0000
07FC0000
07FC0000
07FC0000
07FC0000
07FC0000
07FC0000
07FC0000
07FC0000
07FC0000
3FFFFF00
7FFFFF80
7FFFFFC0
FFFFFFC0
FFFFFFC0
FFFFFFC0
7FFFFFC0
7FFFFF80
1FFFFF00
07FC0000
07FC0000
07FC0000
07FC0000
07FC0000
07FC0000
07FC0000
07FC0000
07F80000
07F80000
0FF80000
0FF80000
0FF80000
1FF80000
1FF00000
3FF00000
3FFFFFF0
7FFFFFF8
7FFFFFFC
FFFFFFFC
FFFFFFFC
FFFFFFFC
FFFFFFFC
7FFFFFF8
3FFFFFF0
ENDCHAR
STARTCHAR dieresis
ENCODING 168
SWIDTH 229 0
DWIDTH 20 0
BBX 20 10 -1 63
BITMAP
3E03C0
7F0FF0
FF8FF0
FF8FF0
FF8FF0
FF8FF0
FF8FF0
FF8FF0
7F0FF0
3E07E0
ENDCHAR
STARTCHAR copyright
ENCODING 169
SWIDTH 709 0
DWIDTH 62 0
BBX 55 60 1 0
BITMAP
000000FE000000
00001FFFE00000
0000FFFFFC0000
0003FFFFFF0000
0007FFFFFFC000
001FFFFFFFE000
003FFFFFFFF000
007FFFFFFFFC00
00FFFFFFFFFE00
01FFFE00FFFE00
03FFF0001FFF00
03FFC0FC07FF80
07FF87FF83FFC0
0FFE0FFFC1FFC0
0FFC1FFFE0FFE0
1FF83FFFF07FE0
1FF87FFFF83FF0
3FF07FFFF81FF0
3FE07FFFFC1FF8
3FE0FFFFFC0FF8
7FC0FF87FC0FF8
7FC0FF87FC07FC
7FC0FF83FC07FC
7F80FF83FC07FC
FF80FF83FC07FC
FF80FF83FC03FC
FF80FF83FC03FC
FF80FF81F803FC
FF80FF800003FE
FF80FF800003FE
FF80FF800003FE
FF80FF800003FE
FF80FF81F803FE
FF80FF83FC03FC
FF80FF83FC03FC
FF80FF83FC03FC
7F80FF83FC07FC
7FC0FF83FC07FC
7FC0FF87FC07FC
7FC0FF87FC0FF8
7FE0FFFFFC0FF8
3FE0FFFFFC1FF8
3FF07FFFF81FF0
1FF07FFFF83FF0
1FF83FFFF03FF0
1FFC1FFFF07FE0
0FFE0FFFE0FFE0
07FF07FF81FFC0
07FF81FE07FF80
03FFE0000FFF80
01FFF8007FFF00
00FFFFEFFFFE00
007FFFFFFFFC00
003FFFFFFFF800
001FFFFFFFF000
000FFFFFFFC000
0003FFFFFF8000
0000FFFFFE0000
00003FFFF80000
000003FF800000
ENDCHAR
STARTCHAR registered
ENCODING 174
SWIDTH 723 0
DWIDTH 64 0
BBX 55 60 1 0
BITMAP
000000FC000000
00001FFFE00000
0000FFFFFC0000
0003FFFFFF0000
0007FFFFFFC000
001FFFFFFFE000
003FFFFFFFF000
007FFFFFFFF800
00FFFFFFFFFC00
01FFFE00FFFE00
03FFF0001FFF00
03FFC0000FFF80
07FF800003FFC0
0FFE1FFF81FFC0
0FFC1FFFC0FFE0
1FF83FFFE07FE0
1FF83FFFF03FF0
3FF03FFFF01FF0
3FE03FFFF81FF8
3FE03FFFF80FF8
7FC03FFFF80FF8
7FC03FEFF807FC
7FC03FE7F807FC
7F803FE7F807FC
FF803FE7F807FC
FF803FE7F803FC
FF803FE7F803FC
FF803FEFF803FC
FF803FFFF803FE
FF803FFFF803FE
FF803FFFF003FE
FF803FFFF003FE
FF803FFFF003FE
FF803FFFF803FC
FF803FFFF803FC
FF803FFFF803FC
7F803FEFF807FC
7FC03FE7F807FC
7FC03FE7F807FC
7FC03FE7F80FF8
3FE03FE7F80FF8
3FE03FE7F81FF8
3FF03FE7F81FF0
1FF03FE7F83FF0
1FF83FE7F83FF0
0FFC3FE7F87FE0
0FFE1FC7F8FFE0
07FF0FC3F1FFC0
07FF800007FF80
03FFE0000FFF80
01FFF8007FFF00
00FFFFEFFFFE00
007FFFFFFFFC00
003FFFFFFFF800
001FFFFFFFF000
000FFFFFFFC000
0003FFFFFF8000
0000FFFFFE0000
00003FFFF80000
000003FF800000
ENDCHAR
STARTCHAR macron
ENCODING 175
SWIDTH 231 0
DWIDTH 20 0
BBX 21 9 -1 63
BITMAP
3FFFE0
7FFFF0
7FFFF0
FFFFF8
FFFFF8
FFFFF8
7FFFF0
7FFFF0
3FFFE0
ENDCHAR
STARTCHAR degree
ENCODING 176
SWIDTH 142 0
DWIDTH 13 0
BBX 13 13 -1 57
BITMAP
0700
1FC0
3FE0
7FF0
FFF8
F8F8
F8F8
F8F8
FFF8
7FF0
7FF0
3FE0
0F80
ENDCHAR
STARTCHAR acute
ENCODING 180
SWIDTH 247 0
DWIDTH 22 0
BBX 20 13 0 63
BITMAP
0007C0
001FE0
00FFF0
01FFF0
07FFE0
0FFFE0
3FFF80
7FFF00
FFFC00
FFF000
FFE000
7F0000
3C0000
ENDCHAR
STARTCHAR periodcentered
ENCODING 183
SWIDTH 83 0
DWIDTH 7 0
BBX 9 10 -1 29
BITMAP
3C00
FF00
FF00
FF80
FF80
FF80
FF80
FF00
FF00
7E00
ENDCHAR
STARTCHAR cedilla
ENCODING 184
SWIDTH 201 0
DWIDTH 18 0
BBX 19 21 -1 -19
BITMAP
0FC000
0FE000
0FE000
0FE000
0FE000
0FF800
0FFF00
0FFF80
0FFFC0
0FFFC0
0FFFE0
07FFE0
000FE0
781FE0
FFFFE0
FFFFC0
FFFFC0
7FFF80
3FFF00
1FFE00
03C000
ENDCHAR
STARTCHAR ordmasculine
ENCODING 186
SWIDTH 140 0
DWIDTH 12 0
BBX 13 13 -1 57
BITMAP
0700
1FC0
3FE0
7FF0
FFF8
F8F8
F8F8
F8F8
FFF8
7FF0
7FF0
3FE0
0F80
ENDCHAR
STARTCHAR questiondown
ENCODING 191
SWIDTH 353 0
DWIDTH 31 0
BBX 26 59 -2 0
BITMAP
000FE000
001FE000
001FF000
001FF000
001FF000
001FF000
001FF000
001FE000
000FE000
00000000
00000000
00000000
000FC000
001FE000
001FF000
001FF000
001FF000
001FF000
001FE000
003FE000
003FE000
003FE000
003FE000
007FC000
007FC000
00FFC000
01FF8000
03FF8000
03FF0000
07FE0000
0FFE0000
0FFC0000
1FF80000
3FF80000
3FF00000
7FE00000
7FE00000
7FC00000
7FC01F80
FF803FC0
FF807FC0
FF807FC0
FF807FC0
FF807FC0
FF807FC0
FF807FC0
FF807FC0
7FC07FC0
7FC0FF80
7FE1FF80
3FFFFF80
3FFFFF80
3FFFFF00
1FFFFF00
0FFFFE00
07FFFC00
03FFF800
01FFE000
003F8000
ENDCHAR
STARTCHAR Agrave
ENCODING 192
SWIDTH 442 0
DWIDTH 39 0
BBX 33 76 0 0
BITMAP
007C000000
00FF800000
00FFE00000
00FFF80000
00FFFC0000
007FFF0000
003FFF8000
000FFFC000
0007FFE000
0001FFE000
00007FE000
00001FE000
000003C000
0000000000
0000000000
0000000000
0000000000
0003F00000
0007F00000
000FF80000
000FF80000
000FF80000
000FF80000
001FFC0000
001FFC0000
001FFC0000
001FFC0000
001FFE0000
003FFE0000
003FFE0000
003FFE0000
003FFE0000
007FFF0000
007FFF0000
007FFF0000
007FFF0000
00FFFF8000
00FF7F8000
00FF7F8000
00FF7F8000
00FF7F8000
01FF7FC000
01FF3FC000
01FE3FC000
01FE3FC000
03FE3FE000
03FE3FE000
03FE3FE000
03FE3FE000
07FC1FF000
07FC1FF000
07FFFFF000
07FFFFF000
07FFFFF000
0FFFFFF800
0FFFFFF800
0FFFFFF800
0FFFFFF800
1FFFFFFC00
1FFFFFFC00
1FF007FC00
1FF007FC00
3FE003FE00
3FE003FE00
3FE003FE00
3FE003FE00
3FE003FE00
7FC001FF00
7FC001FF00
7FC001FF00
7FC001FF00
FF8000FF80
FF8000FF80
FF8000FF80
7F8000FF00
3E00007E00
ENDCHAR
STARTCHAR Aacute
ENCODING 193
SWIDTH 442 0
DWIDTH 39 0
BBX 33 76 0 0
BITMAP
0000078000
00003FC000
0000FFC000
0003FFE000
000FFFC000
001FFFC000
007FFF0000
00FFFE0000
01FFF80000
01FFF00000
01FFC00000
01FF000000
00F8000000
0000000000
0000000000
0000000000
0000000000
0003F00000
0007F00000
000FF80000
000FF80000
000FF80000
000FF80000
001FFC0000
001FFC0000
001FFC0000
001FFC0000
001FFE0000
003FFE0000
003FFE0000
003FFE0000
003FFE0000
007FFF0000
007FFF0000
007FFF0000
007FFF0000
00FFFF8000
00FF7F8000
00FF7F8000
00FF7F8000
00FF7F8000
01FF7FC000
01FF3FC000
01FE3FC000
01FE3FC000
03FE3FE000
03FE3FE000
03FE3FE000
03FE3FE000
07FC1FF000
07FC1FF000
07FFFFF000
07FFFFF000
07FFFFF000
0FFFFFF800
0FFFFFF800
0FFFFFF800
0FFFFFF800
1FFFFFFC00
1FFFFFFC00
1FF007FC00
1FF007FC00
3FE003FE00
3FE003FE00
3FE003FE00
3FE003FE00
3FE003FE00
7FC001FF00
7FC001FF00
7FC001FF00
7FC001FF00
FF8000FF80
FF8000FF80
FF8000FF80
7F8000FF00
3E00007E00
ENDCHAR
STARTCHAR Acircumflex
ENCODING 194
SWIDTH 442 0
DWIDTH 39 0
BBX 33 76 0 0
BITMAP
0003F00000
0007F80000
000FFC0000
001FFE0000
003FFF0000
003FFF8000
007FFF8000
00FFFFC000
01FFFFE000
01FFFFE000
01FF3FE000
01FF3FE000
00FC0F8000
0000000000
0000000000
0000000000
0000000000
0003F00000
0007F00000
000FF80000
000FF80000
000FF80000
000FF80000
001FFC0000
001FFC0000
001FFC0000
001FFC0000
001FFE0000
003FFE0000
003FFE0000
003FFE0000
003FFE0000
007FFF0000
007FFF0000
007FFF0000
007FFF0000
00FFFF8000
00FF7F8000
00FF7F8000
00FF7F8000
00FF7F8000
01FF7FC000
01FF3FC000
01FE3FC000
01FE3FC000
03FE3FE000
03FE3FE000
03FE3FE000
03FE3FE000
07FC1FF000
07FC1FF000
07FFFFF000
07FFFFF000
07FFFFF000
0FFFFFF800
0FFFFFF800
0FFFFFF800
0FFFFFF800
1FFFFFFC00
1FFFFFFC00
1FF007FC00
1FF007FC00
3FE003FE00
3FE003FE00
3FE003FE00
3FE003FE00
3FE003FE00
7FC001FF00
7FC001FF00
7FC001FF00
7FC001FF00
FF8000FF80
FF8000FF80
FF8000FF80
7F8000FF00
3E00007E00
ENDCHAR
STARTCHAR Atilde
ENCODING 195
SWIDTH 442 0
DWIDTH 39 0
BBX 33 74 0 0
BITMAP
003F000000
00FFC00000
03FFE3FC00
03FFFBFE00
07FFFFFE00
0FFFFFFE00
0FFFFFFC00
1FFFFFFC00
1FFFFFF800
1FF3FFF000
0FE1FFE000
00007F8000
0000000000
0000000000
0000000000
0003F00000
0007F00000
000FF80000
000FF80000
000FF80000
000FF80000
001FFC0000
001FFC0000
001FFC0000
001FFC0000
001FFE0000
003FFE0000
003FFE0000
003FFE0000
003FFE0000
007FFF0000
007FFF0000
007FFF0000
007FFF0000
00FFFF8000
00FF7F8000
00FF7F8000
00FF7F8000
00FF7F8000
01FF7FC000
01FF3FC000
01FE3FC000
01FE3FC000
03FE3FE000
03FE3FE000
03FE3FE000
03FE3FE000
07FC1FF000
07FC1FF000
07FFFFF000
07FFFFF000
07FFFFF000
0FFFFFF800
0FFFFFF800
0FFFFFF800
0FFFFFF800
1FFFFFFC00
1FFFFFFC00
1FF007FC00
1FF007FC00
3FE003FE00
3FE003FE00
3FE003FE00
3FE003FE00
3FE003FE00
7FC001FF00
7FC001FF00
7FC001FF00
7FC001FF00
FF8000FF80
FF8000FF80
FF8000FF80
7F8000FF00
3E00007E00
ENDCHAR
STARTCHAR Adieresis
ENCODING 196
SWIDTH 442 0
DWIDTH 39 0
BBX 33 73 0 0
BITMAP
007C0F8000
01FE1FC000
01FE3FE000
01FF3FE000
01FF3FE000
01FF3FE000
01FF3FE000
01FE3FE000
01FE1FE000
00FC0FC000
0000000000
0000000000
0000000000
0000000000
0003F00000
0007F00000
000FF80000
000FF80000
000FF80000
000FF80000
001FFC0000
001FFC0000
001FFC0000
001FFC0000
001FFE0000
003FFE0000
003FFE0000
003FFE0000
003FFE0000
007FFF0000
007FFF0000
007FFF0000
007FFF0000
00FFFF8000
00FF7F8000
00FF7F8000
00FF7F8000
00FF7F8000
01FF7FC000
01FF3FC000
01FE3FC000
01FE3FC000
03FE3FE000
03FE3FE000
03FE3FE000
03FE3FE000
07FC1FF000
07FC1FF000
07FFFFF000
07FFFFF000
07FFFFF000
0FFFFFF800
0FFFFFF800
0FFFFFF800
0FFFFFF800
1FFFFFFC00
1FFFFFFC00
1FF007FC00
1FF007FC00
3FE003FE00
3FE003FE00
3FE003FE00
3FE003FE00
3FE003FE00
7FC001FF00
7FC001FF00
7FC001FF00
7FC001FF00
FF8000FF80
FF8000FF80
FF8000FF80
7F8000FF00
3E00007E00
ENDCHAR
STARTCHAR Aring
ENCODING 197
SWIDTH 442 0
DWIDTH 39 0
BBX 33 76 0 0
BITMAP
0001F00000
0007F80000
000FFC0000
001FFE0000
001FFE0000
001F1F0000
001E1F0000
001E1F0000
001FFF0000
001FFE0000
000FFE0000
0007FC0000
0003F00000
0000000000
0000000000
0000000000
0000000000
0003F00000
0007F00000
000FF80000
000FF80000
000FF80000
000FF80000
001FFC0000
001FFC0000
001FFC0000
001FFC0000
001FFC0000
003FFE0000
003FFE0000
003FFE0000
003FFE0000
007FFF0000
007FFF0000
007FFF0000
007FFF0000
00FFFF8000
00FF7F8000
00FF7F8000
00FF7F8000
00FF7F8000
01FF7FC000
01FF3FC000
01FE3FC000
01FE3FC000
03FE3FE000
03FE3FE000
03FE3FE000
03FE3FE000
07FC1FF000
07FC1FF000
07FFFFF000
07FFFFF000
0FFFFFF000
0FFFFFF800
0FFFFFF800
0FFFFFF800
0FFFFFF800
1FFFFFFC00
1FFFFFFC00
1FF007FC00
1FF007FC00
3FE003FE00
3FE003FE00
3FE003FE00
3FE003FE00
3FE003FE00
7FC001FF00
7FC001FF00
7FC001FF00
7FC001FF00
FF8000FF80
FF8000FF80
FF8000FF80
7F8000FF00
3E00007E00
ENDCHAR
STARTCHAR AE
ENCODING 198
SWIDTH 665 0
DWIDTH 59 0
BBX 50 59 0 0
BITMAP
0000007FFFFF80
0000007FFFFF80
000000FFFFFFC0
000000FFFFFFC0
000001FFFFFFC0
000001FFFFFFC0
000003FFFFFFC0
000003FFFFFF80
000007FF800000
000007FF800000
000007FF800000
00000FFF800000
00000FFF800000
00001FFF800000
00001FFF800000
00003FFF800000
00003FFF800000
00007FFF800000
00007FFF800000
0000FFFF800000
0000FFFF800000
0000FFFF800000
0001FFFF800000
0001FFFF800000
0003FFFF800000
0003FEFFFFFF00
0007FEFFFFFF80
0007FEFFFFFFC0
000FFCFFFFFFC0
000FFCFFFFFFC0
000FF8FFFFFFC0
001FF8FFFFFFC0
001FF0FFFFFF80
003FF0FFFFFF00
003FFFFF800000
007FFFFF800000
007FFFFF800000
00FFFFFF800000
00FFFFFF800000
01FFFFFF800000
01FFFFFF800000
01FFFFFF800000
03FFFFFF800000
03FE00FF800000
07FE00FF800000
07FC00FF800000
0FFC00FF800000
0FF800FF800000
1FF800FF800000
1FF000FF800000
3FF000FFFFFF00
3FF000FFFFFF80
3FE000FFFFFFC0
7FE000FFFFFFC0
7FC000FFFFFFC0
FFC000FFFFFFC0
FF8000FFFFFFC0
7F80007FFFFF80
3F00003FFFFF00
ENDCHAR
STARTCHAR Ccedilla
ENCODING 199
SWIDTH 394 0
DWIDTH 35 0
BBX 29 77 0 -18
BITMAP
007FF000
01FFFC00
07FFFE00
0FFFFF00
1FFFFF80
1FFFFFC0
3FFFFFE0
3FFFFFE0
7FFDFFF0
7FE03FF0
7FC01FF0
FFC01FF0
FF801FF0
FF800FF8
FF800FF8
FF800FF8
FF800FF8
FF800FF8
FF800FF8
FF800FF0
FF8007F0
FF800000
FF800000
FF800000
FF800000
FF800000
FF800000
FF800000
FF800000
FF800000
FF800000
FF800000
FF800000
FF800000
FF800000
FF800000
FF800000
FF8003E0
FF8007F0
FF800FF8
FF800FF8
FF800FF8
FF800FF8
FF800FF8
FF800FF8
FF800FF8
FF801FF0
FFC01FF0
7FC01FF0
7FE07FF0
7FFFFFE0
3FFFFFE0
3FFFFFC0
1FFFFFC0
0FFFFF80
07FFFF00
03FFFE00
01FFF800
003FE000
001FC000
001FC000
001FC000
001FC000
001FFE00
001FFF00
001FFF80
001FFF80
001FFFC0
001FFFC0
00007FC0
00F07FC0
01FFFFC0
01FFFFC0
00FFFF80
00FFFF00
007FFE00
001FF800
ENDCHAR
STARTCHAR Egrave
ENCODING 200
SWIDTH 353 0
DWIDTH 31 0
BBX 25 76 0 0
BITMAP
03000000
07F00000
0FFE0000
0FFF0000
0FFFC000
07FFF000
03FFF800
00FFFC00
007FFE00
001FFF00
000FFF00
0001FE00
00007E00
00000000
00000000
00000000
00000000
7FFFFF00
FFFFFF80
FFFFFF80
FFFFFF80
FFFFFF80
FFFFFF80
FFFFFF80
FFFFFF80
FFFFFE00
FF800000
FF800000
FF800000
FF800000
FF800000
FF800000
FF800000
FF800000
FF800000
FF800000
FF800000
FF800000
FF800000
FF800000
FF800000
FF800000
FFFFF800
FFFFFC00
FFFFFE00
FFFFFE00
FFFFFE00
FFFFFE00
FFFFFE00
FFFFFE00
FFFFFC00
FF800000
FF800000
FF800000
FF800000
FF800000
FF800000
FF800000
FF800000
FF800000
FF800000
FF800000
FF800000
FF800000
FF800000
FF800000
FF800000
FF800000
FFFFFF00
FFFFFF80
FFFFFF80
FFFFFF80
FFFFFF80
FFFFFF80
FFFFFF80
7FFFFF00
ENDCHAR
STARTCHAR Eacute
ENCODING 201
SWIDTH 353 0
DWIDTH 31 0
BBX 25 76 0 0
BITMAP
00007800
0003FC00
000FFE00
003FFE00
00FFFE00
01FFFC00
03FFF000
0FFFE000
0FFF8000
1FFF0000
1FFC0000
0FF00000
07800000
00000000
00000000
00000000
00000000
7FFFFF00
FFFFFF80
FFFFFF80
FFFFFF80
FFFFFF80
FFFFFF80
FFFFFF80
FFFFFF00
FF800000
FF800000
FF800000
FF800000
FF800000
FF800000
FF800000
FF800000
FF800000
FF800000
FF800000
FF800000
FF800000
FF800000
FF800000
FF800000
FF800000
FFFFFC00
FFFFFC00
FFFFFE00
FFFFFE00
FFFFFE00
FFFFFE00
FFFFFE00
FFFFFC00
FFFFF800
FF800000
FF800000
FF800000
FF800000
FF800000
FF800000
FF800000
FF800000
FF800000
FF800000
FF800000
FF800000
FF800000
FF800000
FF800000
FF800000
FFFFFE00
FFFFFF80
FFFFFF80
FFFFFF80
FFFFFF80
FFFFFF80
FFFFFF80
FFFFFF80
7FFFFF00
ENDCHAR
STARTCHAR Ecircumflex
ENCODING 202
SWIDTH 353 0
DWIDTH 31 0
BBX 25 76 0 0
BITMAP
003E0000
00FF8000
00FFC000
01FFC000
03FFE000
07FFF000
0FFFF800
0FFFFC00
1FFFFC00
3FF7FE00
3FF7FE00
1FE3FC00
0FC1F800
00000000
00000000
00000000
00000000
7FFFFF00
FFFFFF80
FFFFFF80
FFFFFF80
FFFFFF80
FFFFFF80
FFFFFF80
FFFFFF00
FF800000
FF800000
FF800000
FF800000
FF800000
FF800000
FF800000
FF800000
FF800000
FF800000
FF800000
FF800000
FF800000
FF800000
FF800000
FF800000
FF800000
FFFFFC00
FFFFFC00
FFFFFE00
FFFFFE00
FFFFFE00
FFFFFE00
FFFFFE00
FFFFFC00
FFFFF800
FF800000
FF800000
FF800000
FF800000
FF800000
FF800000
FF800000
FF800000
FF800000
FF800000
FF800000
FF800000
FF800000
FF800000
FF800000
FF800000
FFFFFE00
FFFFFF80
FFFFFF80
FFFFFF80
FFFFFF80
FFFFFF80
FFFFFF80
FFFFFF80
7FFFFF00
ENDCHAR
STARTCHAR Edieresis
ENCODING 203
SWIDTH 353 0
DWIDTH 31 0
BBX 25 73 0 0
BITMAP
07C0F800
0FE1FE00
1FF1FE00
1FF3FE00
1FF3FE00
1FF3FE00
1FF3FE00
1FF3FE00
1FE1FE00
07C0FC00
00000000
00000000
00000000
00000000
7FFFFF00
FFFFFF80
FFFFFF80
FFFFFF80
FFFFFF80
FFFFFF80
FFFFFF80
FFFFFF00
FF800000
FF800000
FF800000
FF800000
FF800000
FF800000
FF800000
FF800000
FF800000
FF800000
FF800000
FF800000
FF800000
FF800000
FF800000
FF800000
FF800000
FFFFFC00
FFFFFC00
FFFFFE00
FFFFFE00
FFFFFE00
FFFFFE00
FFFFFE00
FFFFFC00
FFFFF800
FF800000
FF800000
FF800000
FF800000
FF800000
FF800000
FF800000
FF800000
FF800000
FF800000
FF800000
FF800000
FF800000
FF800000
FF800000
FF800000
FFFFFE00
FFFFFF80
FFFFFF80
FFFFFF80
FFFFFF80
FFFFFF80
FFFFFF80
FFFFFF80
7FFFFF00
ENDCHAR
STARTCHAR Igrave
ENCODING 204
SWIDTH 159 0
DWIDTH 14 0
BBX 20 76 -4 0
BITMAP
3C0000
FF8000
FFE000
FFF800
FFFC00
7FFF00
3FFF80
0FFFE0
07FFE0
01FFF0
007FE0
001FE0
0003C0
000000
000000
000000
000000
07E000
0FF000
0FF800
0FF800
0FF800
0FF800
0FF800
0FF800
0FF800
0FF800
0FF800
0FF800
0FF800
0FF800
0FF800
0FF800
0FF800
0FF800
0FF800
0FF800
0FF800
0FF800
0FF800
0FF800
0FF800
0FF800
0FF800
0FF800
0FF800
0FF800
0FF800
0FF800
0FF800
0FF800
0FF800
0FF800
0FF800
0FF800
0FF800
0FF800
0FF800
0FF800
0FF800
0FF800
0FF800
0FF800
0FF800
0FF800
0FF800
0FF800
0FF800
0FF800
0FF800
0FF800
0FF800
0FF800
0FF000
0FF000
07E000
ENDCHAR
STARTCHAR Iacute
ENCODING 205
SWIDTH 159 0
DWIDTH 14 0
BBX 20 76 -5 0
BITMAP
0007C0
001FE0
007FF0
01FFF0
07FFE0
0FFFE0
3FFF80
7FFF00
FFFC00
FFF000
FFE000
7F8000
3C0000
000000
000000
000000
000000
03F000
07F800
07FC00
07FC00
07FC00
07FC00
07FC00
07FC00
07FC00
07FC00
07FC00
07FC00
07FC00
07FC00
07FC00
07FC00
07FC00
07FC00
07FC00
07FC00
07FC00
07FC00
07FC00
07FC00
07FC00
07FC00
07FC00
07FC00
07FC00
07FC00
07FC00
07FC00
07FC00
07FC00
07FC00
07FC00
07FC00
07FC00
07FC00
07FC00
07FC00
07FC00
07FC00
07FC00
07FC00
07FC00
07FC00
07FC00
07FC00
07FC00
07FC00
07FC00
07FC00
07FC00
07FC00
07FC00
07F800
07F800
03F000
ENDCHAR
STARTCHAR Icircumflex
ENCODING 206
SWIDTH 159 0
DWIDTH 14 0
BBX 21 76 -6 0
BITMAP
00F800
03FE00
03FF00
07FF00
0FFF80
1FFFC0
3FFFE0
7FFFF0
7FFFF0
FFDFF8
FFDFF8
7F8FF0
3F07E0
000000
000000
000000
000000
01F800
03FC00
03FE00
03FE00
03FE00
03FE00
03FE00
03FE00
03FE00
03FE00
03FE00
03FE00
03FE00
03FE00
03FE00
03FE00
03FE00
03FE00
03FE00
03FE00
03FE00
03FE00
03FE00
03FE00
03FE00
03FE00
03FE00
03FE00
03FE00
03FE00
03FE00
03FE00
03FE00
03FE00
03FE00
03FE00
03FE00
03FE00
03FE00
03FE00
03FE00
03FE00
03FE00
03FE00
03FE00
03FE00
03FE00
03FE00
03FE00
03FE00
03FE00
03FE00
03FE00
03FE00
03FE00
03FE00
03FC00
03FC00
01F800
ENDCHAR
STARTCHAR Idieresis
ENCODING 207
SWIDTH 159 0
DWIDTH 14 0
BBX 20 73 -5 0
BITMAP
3E07C0
7F0FF0
FF8FF0
FF9FF0
FF9FF0
FF9FF0
FF9FF0
FF9FF0
FF0FF0
3E07E0
000000
000000
000000
000000
03F000
07F800
07FC00
07FC00
07FC00
07FC00
07FC00
07FC00
07FC00
07FC00
07FC00
07FC00
07FC00
07FC00
07FC00
07FC00
07FC00
07FC00
07FC00
07FC00
07FC00
07FC00
07FC00
07FC00
07FC00
07FC00
07FC00
07FC00
07FC00
07FC00
07FC00
07FC00
07FC00
07FC00
07FC00
07FC00
07FC00
07FC00
07FC00
07FC00
07FC00
07FC00
07FC00
07FC00
07FC00
07FC00
07FC00
07FC00
07FC00
07FC00
07FC00
07FC00
07FC00
07FC00
07FC00
07FC00
07F800
07F800
03F000
ENDCHAR
STARTCHAR Eth
ENCODING 208
SWIDTH 398 0
DWIDTH 35 0
BBX 36 59 -8 0
BITMAP
007FFFC000
00FFFFF800
00FFFFFC00
00FFFFFE00
00FFFFFF00
00FFFFFF80
00FFFFFF80
00FFFFFFC0
00FF87FFC0
00FF80FFE0
00FF807FE0
00FF803FE0
00FF803FE0
00FF803FE0
00FF801FF0
00FF801FF0
00FF801FF0
00FF801FF0
00FF801FF0
00FF801FF0
00FF801FF0
00FF801FF0
00FF801FF0
00FF801FF0
00FF801FF0
3FFFFF1FF0
7FFFFF9FF0
FFFFFFDFF0
FFFFFFDFF0
FFFFFFDFF0
FFFFFFDFF0
7FFFFFDFF0
7FFFFF9FF0
3FFFFF1FF0
00FF801FF0
00FF801FF0
00FF801FF0
00FF801FF0
00FF801FF0
00FF801FF0
00FF801FF0
00FF801FF0
00FF801FF0
00FF801FF0
00FF801FE0
00FF803FE0
00FF803FE0
00FF803FE0
00FF807FE0
00FF80FFE0
00FFFFFFC0
00FFFFFFC0
00FFFFFF80
00FFFFFF80
00FFFFFF00
00FFFFFE00
00FFFFFC00
00FFFFF000
007FFF8000
ENDCHAR
STARTCHAR Ntilde
ENCODING 209
SWIDTH 410 0
DWIDTH 36 0
BBX 29 74 0 0
BITMAP
00FC0000
03FF0000
07FF8FF0
0FFFEFF8
1FFFFFF8
3FFFFFF8
3FFFFFF0
7FFFFFF0
7FFFFFE0
3FCFFFC0
3F87FF80
0001FE00
00000000
00000000
00000000
7E0007F0
FF0007F8
FF800FF8
FF800FF8
FF800FF8
FFC00FF8
FFC00FF8
FFE00FF8
FFE00FF8
FFE00FF8
FFF00FF8
FFF00FF8
FFF80FF8
FFF80FF8
FFF80FF8
FFFC0FF8
FFFC0FF8
FFFE0FF8
FFFE0FF8
FFFE0FF8
FFFF0FF8
FFFF0FF8
FFFF8FF8
FFFF8FF8
FFFF8FF8
FFFFCFF8
FFFFCFF8
FFFFEFF8
FFBFEFF8
FFBFEFF8
FFBFFFF8
FF9FFFF8
FF9FFFF8
FF8FFFF8
FF8FFFF8
FF8FFFF8
FF87FFF8
FF87FFF8
FF83FFF8
FF83FFF8
FF83FFF8
FF81FFF8
FF81FFF8
FF80FFF8
FF80FFF8
FF80FFF8
FF807FF8
FF807FF8
FF803FF8
FF803FF8
FF803FF8
FF801FF8
FF801FF8
FF800FF8
FF800FF8
FF800FF8
FF8007F8
FF0007F8
7E0003F0
ENDCHAR
STARTCHAR Ograve
ENCODING 210
SWIDTH 406 0
DWIDTH 36 0
BBX 29 76 0 0
BITMAP
01F00000
03FE0000
03FF8000
03FFE000
03FFF000
01FFFC00
00FFFE00
003FFF00
001FFF80
0007FF80
0001FF80
00007F80
00000F00
00000000
00000000
00000000
00000000
007FF000
01FFFC00
07FFFF00
0FFFFF80
1FFFFFC0
1FFFFFC0
3FFFFFE0
3FFFFFE0
7FFDFFF0
7FE03FF0
7FC01FF0
FFC01FF0
FF800FF8
FF800FF8
FF800FF8
FF800FF8
FF800FF8
FF800FF8
FF800FF8
FF800FF8
FF800FF8
FF800FF8
FF800FF8
FF800FF8
FF800FF8
FF800FF8
FF800FF8
FF800FF8
FF800FF8
FF800FF8
FF800FF8
FF800FF8
FF800FF8
FF800FF8
FF800FF8
FF800FF8
FF800FF8
FF800FF8
FF800FF8
FF800FF8
FF800FF8
FF800FF8
FF800FF8
FF800FF8
FF800FF8
FF800FF8
FF800FF8
7FC01FF0
7FC01FF0
7FF07FF0
7FFFFFF0
3FFFFFE0
3FFFFFE0
1FFFFFC0
0FFFFF80
07FFFF00
03FFFE00
00FFFC00
003FE000
ENDCHAR
STARTCHAR Oacute
ENCODING 211
SWIDTH 406 0
DWIDTH 36 0
BBX 29 76 0 0
BITMAP
00003C00
0001FE00
0007FF00
001FFF00
003FFF00
00FFFE00
01FFFC00
07FFF000
07FFE000
0FFF8000
0FFE0000
07F80000
03C00000
00000000
00000000
00000000
00000000
007FF000
01FFFC00
07FFFF00
0FFFFF80
1FFFFFC0
1FFFFFC0
3FFFFFE0
3FFFFFE0
7FFDFFF0
7FE03FF0
7FC01FF0
FFC01FF0
FF800FF8
FF800FF8
FF800FF8
FF800FF8
FF800FF8
FF800FF8
FF800FF8
FF800FF8
FF800FF8
FF800FF8
FF800FF8
FF800FF8
FF800FF8
FF800FF8
FF800FF8
FF800FF8
FF800FF8
FF800FF8
FF800FF8
FF800FF8
FF800FF8
FF800FF8
FF800FF8
FF800FF8
FF800FF8
FF800FF8
FF800FF8
FF800FF8
FF800FF8
FF800FF8
FF800FF8
FF800FF8
FF800FF8
FF800FF8
FF800FF8
7FC01FF0
7FC01FF0
7FF07FF0
7FFFFFF0
3FFFFFE0
3FFFFFE0
1FFFFFC0
0FFFFF80
07FFFF00
03FFFE00
00FFFC00
003FE000
ENDCHAR
STARTCHAR Ocircumflex
ENCODING 212
SWIDTH 406 0
DWIDTH 36 0
BBX 29 76 0 0
BITMAP
000FC000
001FE000
003FF000
007FF800
00FFF800
01FFFC00
03FFFE00
03FFFF00
07FFFF80
07FFFF80
07FDFF80
07F8FF00
03F07E00
00000000
00000000
00000000
00000000
007FF000
01FFFC00
07FFFF00
0FFFFF80
1FFFFFC0
1FFFFFC0
3FFFFFE0
3FFFFFE0
7FFDFFF0
7FE03FF0
7FC01FF0
FFC01FF0
FF800FF8
FF800FF8
FF800FF8
FF800FF8
FF800FF8
FF800FF8
FF800FF8
FF800FF8
FF800FF8
FF800FF8
FF800FF8
FF800FF8
FF800FF8
FF800FF8
FF800FF8
FF800FF8
FF800FF8
FF800FF8
FF800FF8
FF800FF8
FF800FF8
FF800FF8
FF800FF8
FF800FF8
FF800FF8
FF800FF8
FF800FF8
FF800FF8
FF800FF8
FF800FF8
FF800FF8
FF800FF8
FF800FF8
FF800FF8
FF800FF8
7FC01FF0
7FC01FF0
7FF07FF0
7FFFFFF0
3FFFFFE0
3FFFFFE0
1FFFFFC0
0FFFFF80
07FFFF00
03FFFE00
00FFFC00
003FE000
ENDCHAR
STARTCHAR Otilde
ENCODING 213
SWIDTH 406 0
DWIDTH 36 0
BBX 29 74 0 0
BITMAP
00FC0000
03FF0000
0FFF8FF0
1FFFFFF0
3FFFFFF8
3FFFFFF0
7FFFFFF0
7FFFFFE0
7FFFFFE0
7FCFFFC0
3F87FF80
0001FE00
00000000
00000000
00000000
007FF000
01FFFC00
07FFFF00
0FFFFF80
1FFFFFC0
1FFFFFC0
3FFFFFE0
3FFFFFE0
7FFDFFF0
7FE03FF0
7FC01FF0
FFC01FF0
FF800FF8
FF800FF8
FF800FF8
FF800FF8
FF800FF8
FF800FF8
FF800FF8
FF800FF8
FF800FF8
FF800FF8
FF800FF8
FF800FF8
FF800FF8
FF800FF8
FF800FF8
FF800FF8
FF800FF8
FF800FF8
FF800FF8
FF800FF8
FF800FF8
FF800FF8
FF800FF8
FF800FF8
FF800FF8
FF800FF8
FF800FF8
FF800FF8
FF800FF8
FF800FF8
FF800FF8
FF800FF8
FF800FF8
FF800FF8
FF800FF8
7FC01FF0
7FC01FF0
7FF07FF0
7FFFFFF0
3FFFFFE0
3FFFFFE0
1FFFFFC0
0FFFFF80
07FFFF00
03FFFE00
00FFFC00
003FE000
ENDCHAR
STARTCHAR Odieresis
ENCODING 214
SWIDTH 406 0
DWIDTH 36 0
BBX 29 73 0 0
BITMAP
01F03E00
07F87F00
07F8FF80
07FCFF80
07FCFF80
07FCFF80
07FCFF80
07F8FF80
07F87F80
03F03E00
00000000
00000000
00000000
00000000
007FF000
01FFFC00
07FFFF00
0FFFFF80
1FFFFFC0
1FFFFFC0
3FFFFFE0
3FFFFFE0
7FFDFFF0
7FE03FF0
7FC01FF0
FFC01FF0
FF800FF8
FF800FF8
FF800FF8
FF800FF8
FF800FF8
FF800FF8
FF800FF8
FF800FF8
FF800FF8
FF800FF8
FF800FF8
FF800FF8
FF800FF8
FF800FF8
FF800FF8
FF800FF8
FF800FF8
FF800FF8
FF800FF8
FF800FF8
FF800FF8
FF800FF8
FF800FF8
FF800FF8
FF800FF8
FF800FF8
FF800FF8
FF800FF8
FF800FF8
FF800FF8
FF800FF8
FF800FF8
FF800FF8
FF800FF8
FF800FF8
7FC01FF0
7FC01FF0
7FF07FF0
7FFFFFF0
3FFFFFE0
3FFFFFE0
1FFFFFC0
0FFFFF80
07FFFF00
03FFFE00
00FFFC00
003FE000
ENDCHAR
STARTCHAR multiply
ENCODING 215
SWIDTH 294 0
DWIDTH 26 0
BBX 21 22 0 19
BITMAP
1C01C0
3E03E0
7F07F0
FF8FF8
FFDFF8
FFFFF8
FFFFF8
7FFFF0
3FFFE0
1FFFC0
0FFF80
0FFF80
1FFFC0
3FFFE0
7FFFF0
FFFFF8
FFFFF8
FFDFF8
FF8FF8
7F07F0
3E03E0
080080
ENDCHAR
STARTCHAR Oslash
ENCODING 216
SWIDTH 406 0
DWIDTH 36 0
BBX 30 59 0 0
BITMAP
007FF1F8
01FFFFFC
07FFFFFC
0FFFFFFC
1FFFFFFC
1FFFFFFC
3FFFFFF8
3FFFFFF8
7FFDFFF0
7FE03FF0
7FC03FF0
FFC03FF0
FF807FF8
FF807FF8
FF80FFF8
FF80FFF8
FF80FFF8
FF81FFF8
FF81FFF8
FF83FFF8
FF83FFF8
FF83FFF8
FF87FFF8
FF87FFF8
FF8FFFF8
FF8FFFF8
FF8FFFF8
FF9FFFF8
FF9FFFF8
FF9FFFF8
FFBFFFF8
FFBFEFF8
FFFFEFF8
FFFFCFF8
FFFFCFF8
FFFFCFF8
FFFF8FF8
FFFF8FF8
FFFF0FF8
FFFF0FF8
FFFE0FF8
FFFE0FF8
FFFE0FF8
FFFC0FF8
FFFC0FF8
FFF80FF8
FFF80FF8
7FF81FF0
7FF01FF0
7FF07FF0
3FFFFFF0
3FFFFFE0
7FFFFFE0
7FFFFFC0
7FFFFF80
FFFFFF00
FFFFFE00
7FFFFC00
3F3FE000
ENDCHAR
STARTCHAR Ugrave
ENCODING 217
SWIDTH 409 0
DWIDTH 36 0
BBX 29 76 -1 0
BITMAP
00400000
01FC0000
01FF8000
03FFE000
01FFF000
01FFFC00
00FFFE00
003FFF80
001FFFC0
0007FFC0
0001FFC0
00007FC0
00001F80
00000000
00000000
00000000
00000000
3F0003F0
7F8007F8
7F8007F8
FF8007F8
FF8007F8
FF8007F8
FF8007F8
FF8007F8
FF8007F8
FF8007F8
FF8007F8
FF8007F8
FF8007F8
FF8007F8
FF8007F8
FF8007F8
FF8007F8
FF8007F8
FF8007F8
FF8007F8
FF8007F8
FF8007F8
FF8007F8
FF8007F8
FF8007F8
FF8007F8
FF8007F8
FF8007F8
FF8007F8
FF8007F8
FF8007F8
FF8007F8
FF8007F8
FF8007F8
FF8007F8
FF8007F8
FF8007F8
FF8007F8
FF8007F8
FF8007F8
FF8007F8
FF8007F8
FF8007F8
FF8007F8
FF800FF8
7F800FF8
7F800FF8
7FC00FF8
7FC01FF8
7FE03FF8
7FFCFFF0
3FFFFFF0
3FFFFFF0
1FFFFFE0
1FFFFFC0
0FFFFF80
07FFFF00
01FFFE00
007FF800
ENDCHAR
STARTCHAR Uacute
ENCODING 218
SWIDTH 409 0
DWIDTH 36 0
BBX 29 76 -1 0
BITMAP
00000200
00003F80
0000FFC0
0003FFC0
000FFFC0
001FFF80
007FFF00
00FFFE00
01FFF800
03FFE000
03FFC000
01FF0000
01F80000
00000000
00000000
00000000
00000000
3F0003F0
7F8007F8
7F8007F8
FF8007F8
FF8007F8
FF8007F8
FF8007F8
FF8007F8
FF8007F8
FF8007F8
FF8007F8
FF8007F8
FF8007F8
FF8007F8
FF8007F8
FF8007F8
FF8007F8
FF8007F8
FF8007F8
FF8007F8
FF8007F8
FF8007F8
FF8007F8
FF8007F8
FF8007F8
FF8007F8
FF8007F8
FF8007F8
FF8007F8
FF8007F8
FF8007F8
FF8007F8
FF8007F8
FF8007F8
FF8007F8
FF8007F8
FF8007F8
FF8007F8
FF8007F8
FF8007F8
FF8007F8
FF8007F8
FF8007F8
FF8007F8
FF800FF8
7F800FF8
7F800FF8
7FC00FF8
7FC01FF8
7FE03FF8
7FFCFFF0
3FFFFFF0
3FFFFFF0
1FFFFFE0
1FFFFFC0
0FFFFF80
07FFFF00
01FFFE00
007FF800
ENDCHAR
STARTCHAR Ucircumflex
ENCODING 219
SWIDTH 409 0
DWIDTH 36 0
BBX 29 76 -1 0
BITMAP
00070000
001FC000
003FE000
007FF000
00FFF800
00FFFC00
01FFFE00
03FFFE00
07FFFF00
07FFFF80
0FFDFF80
07FCFF80
07F8FF00
00000000
00000000
00000000
00000000
3F0003F0
7F8007F8
7F8007F8
FF8007F8
FF8007F8
FF8007F8
FF8007F8
FF8007F8
FF8007F8
FF8007F8
FF8007F8
FF8007F8
FF8007F8
FF8007F8
FF8007F8
FF8007F8
FF8007F8
FF8007F8
FF8007F8
FF8007F8
FF8007F8
FF8007F8
FF8007F8
FF8007F8
FF8007F8
FF8007F8
FF8007F8
FF8007F8
FF8007F8
FF8007F8
FF8007F8
FF8007F8
FF8007F8
FF8007F8
FF8007F8
FF8007F8
FF8007F8
FF8007F8
FF8007F8
FF8007F8
FF8007F8
FF8007F8
FF8007F8
FF8007F8
FF800FF8
7F800FF8
7F800FF8
7FC00FF8
7FC01FF8
7FE03FF8
7FFCFFF0
3FFFFFF0
3FFFFFF0
1FFFFFE0
1FFFFFC0
0FFFFF80
07FFFF00
01FFFE00
007FF800
ENDCHAR
STARTCHAR Udieresis
ENCODING 220
SWIDTH 409 0
DWIDTH 36 0
BBX 29 72 -1 0
BITMAP
03F83F80
07FC7F80
07FC7FC0
07FC7FC0
07FC7FC0
07FC7FC0
07FC7FC0
07FC7F80
03F83F80
00000000
00000000
00000000
00000000
3F0003F0
7F8007F8
7F8007F8
FF8007F8
FF8007F8
FF8007F8
FF8007F8
FF8007F8
FF8007F8
FF8007F8
FF8007F8
FF8007F8
FF8007F8
FF8007F8
FF8007F8
FF8007F8
FF8007F8
FF8007F8
FF8007F8
FF8007F8
FF8007F8
FF8007F8
FF8007F8
FF8007F8
FF8007F8
FF8007F8
FF8007F8
FF8007F8
FF8007F8
FF8007F8
FF8007F8
FF8007F8
FF8007F8
FF8007F8
FF8007F8
FF8007F8
FF8007F8
FF8007F8
FF8007F8
FF8007F8
FF8007F8
FF8007F8
FF8007F8
FF8007F8
FF800FF8
7F800FF8
7F800FF8
7FC00FF8
7FC01FF8
7FE03FF8
7FFCFFF0
3FFFFFF0
3FFFFFF0
1FFFFFE0
1FFFFFC0
0FFFFF80
07FFFF00
01FFFE00
007FF800
ENDCHAR
STARTCHAR Yacute
ENCODING 221
SWIDTH 406 0
DWIDTH 36 0
BBX 33 76 -2 0
BITMAP
0000078000
00003FE000
0000FFE000
0003FFE000
0007FFE000
001FFFC000
003FFF8000
00FFFE0000
00FFFC0000
01FFF00000
00FFC00000
00FF000000
0078000000
0000000000
0000000000
0000000000
0000000000
7F0000FF00
7F8000FF00
FFC001FF80
7FC001FF00
7FE003FF00
7FE003FF00
3FF007FE00
3FF007FE00
1FF007FC00
1FF80FFC00
0FF80FFC00
0FFC1FF800
0FFC1FF800
07FE3FF000
07FE3FF000
03FF7FE000
03FF7FE000
01FF7FC000
01FFFFC000
01FFFFC000
00FFFF8000
00FFFF8000
007FFF0000
007FFF0000
003FFE0000
003FFE0000
003FFE0000
001FFC0000
001FFC0000
000FF80000
000FF80000
000FF80000
000FF80000
000FF80000
000FF80000
000FF80000
000FF80000
000FF80000
000FF80000
000FF80000
000FF80000
000FF80000
000FF80000
000FF80000
000FF80000
000FF80000
000FF80000
000FF80000
000FF80000
000FF80000
000FF80000
000FF80000
000FF80000
000FF80000
000FF80000
000FF80000
000FF80000
0007F00000
0003E00000
ENDCHAR
STARTCHAR Thorn
ENCODING 222
SWIDTH 386 0
DWIDTH 34 0
BBX 32 59 0 0
BITMAP
7E000000
FF000000
FF000000
FF000000
FF000000
FF000000
FF000000
FF000000
FF000000
FF000000
FF000000
FF000000
FF000000
FF000000
FF000000
FFFFF800
FFFFFF00
FFFFFFC0
FFFFFFE0
FFFFFFF0
FFFFFFF8
FFFFFFFC
FFFFFFFE
FFFFFFFE
FF000FFE
FF0003FF
FF0001FF
FF0001FF
FF0001FF
FF0001FF
FF0001FF
FF0001FF
FF0003FF
FF0007FF
FF001FFE
FFFFFFFE
FFFFFFFC
FFFFFFFC
FFFFFFF8
FFFFFFF0
FFFFFFE0
FFFFFFC0
FFFFFE00
FFFFF000
FF000000
FF000000
FF000000
FF000000
FF000000
FF000000
FF000000
FF000000
FF000000
FF000000
FF000000
FF000000
FF000000
FF000000
7E000000
ENDCHAR
STARTCHAR germandbls
ENCODING 223
SWIDTH 376 0
DWIDTH 33 0
BBX 28 57 0 0
BITMAP
007F8000
03FFE000
07FFF800
0FFFFC00
1FFFFE00
3FFFFE00
3FFFFF00
7FFFFF00
7FF7FF80
FFC1FF80
FF80FF80
FF807F80
FF807F80
FF007F80
FF007FC0
FF007FC0
FF007F80
FF007F80
FF007F80
FF007F80
FF00FF80
FF00FF80
FF00FF00
FF01FF00
FF1FFF00
FF3FFE00
FF3FFE00
FF3FFC00
FF3FFE00
FF3FFF00
FF3FFF80
FF3FFFC0
FF07FFC0
FF007FE0
FF003FE0
FF003FE0
FF001FF0
FF001FF0
FF001FF0
FF000FF0
FF000FF0
FF000FF0
FF000FF0
FF001FF0
FF001FF0
FF001FF0
FF003FF0
FF003FE0
FF03FFE0
FF3FFFE0
FF3FFFC0
FF3FFFC0
FF3FFF80
FF3FFF00
FF3FFE00
FF3FFC00
7E1FE000
ENDCHAR
STARTCHAR agrave
ENCODING 224
SWIDTH 442 0
DWIDTH 39 0
BBX 33 76 0 0
BITMAP
007C000000
00FF800000
00FFE00000
00FFF80000
00FFFC0000
007FFF0000
003FFF8000
000FFFC000
0007FFE000
0001FFE000
00007FE000
00001FE000
000003C000
0000000000
0000000000
0000000000
0000000000
0003F00000
0007F00000
000FF80000
000FF80000
000FF80000
000FF80000
001FFC0000
001FFC0000
001FFC0000
001FFC0000
001FFE0000
003FFE0000
003FFE0000
003FFE0000
003FFE0000
007FFF0000
007FFF0000
007FFF0000
007FFF0000
00FFFF8000
00FF7F8000
00FF7F8000
00FF7F8000
00FF7F8000
01FF7FC000
01FF3FC000
01FE3FC000
01FE3FC000
03FE3FE000
03FE3FE000
03FE3FE000
03FE3FE000
07FC1FF000
07FC1FF000
07FFFFF000
07FFFFF000
07FFFFF000
0FFFFFF800
0FFFFFF800
0FFFFFF800
0FFFFFF800
1FFFFFFC00
1FFFFFFC00
1FF007FC00
1FF007FC00
3FE003FE00
3FE003FE00
3FE003FE00
3FE003FE00
3FE003FE00
7FC001FF00
7FC001FF00
7FC001FF00
7FC001FF00
FF8000FF80
FF8000FF80
FF8000FF80
7F8000FF00
3E00007E00
ENDCHAR
STARTCHAR aacute
ENCODING 225
SWIDTH 442 0
DWIDTH 39 0
BBX 33 76 0 0
BITMAP
0000078000
00003FC000
0000FFC000
0003FFE000
000FFFC000
001FFFC000
007FFF0000
00FFFE0000
01FFF80000
01FFF00000
01FFC00000
01FF000000
00F8000000
0000000000
0000000000
0000000000
0000000000
0003F00000
0007F00000
000FF80000
000FF80000
000FF80000
000FF80000
001FFC0000
001FFC0000
001FFC0000
001FFC0000
001FFE0000
003FFE0000
003FFE0000
003FFE0000
003FFE0000
007FFF0000
007FFF0000
007FFF0000
007FFF0000
00FFFF8000
00FF7F8000
00FF7F8000
00FF7F8000
00FF7F8000
01FF7FC000
01FF3FC000
01FE3FC000
01FE3FC000
03FE3FE000
03FE3FE000
03FE3FE000
03FE3FE000
07FC1FF000
07FC1FF000
07FFFFF000
07FFFFF000
07FFFFF000
0FFFFFF800
0FFFFFF800
0FFFFFF800
0FFFFFF800
1FFFFFFC00
1FFFFFFC00
1FF007FC00
1FF007FC00
3FE003FE00
3FE003FE00
3FE003FE00
3FE003FE00
3FE003FE00
7FC001FF00
7FC001FF00
7FC001FF00
7FC001FF00
FF8000FF80
FF8000FF80
FF8000FF80
7F8000FF00
3E00007E00
ENDCHAR
STARTCHAR acircumflex
ENCODING 226
SWIDTH 442 0
DWIDTH 39 0
BBX 33 76 0 0
BITMAP
0003F00000
0007F80000
000FFC0000
001FFE0000
003FFF0000
003FFF8000
007FFF8000
00FFFFC000
01FFFFE000
01FFFFE000
01FF3FE000
01FF3FE000
00FC0F8000
0000000000
0000000000
0000000000
0000000000
0003F00000
0007F00000
000FF80000
000FF80000
000FF80000
000FF80000
001FFC0000
001FFC0000
001FFC0000
001FFC0000
001FFE0000
003FFE0000
003FFE0000
003FFE0000
003FFE0000
007FFF0000
007FFF0000
007FFF0000
007FFF0000
00FFFF8000
00FF7F8000
00FF7F8000
00FF7F8000
00FF7F8000
01FF7FC000
01FF3FC000
01FE3FC000
01FE3FC000
03FE3FE000
03FE3FE000
03FE3FE000
03FE3FE000
07FC1FF000
07FC1FF000
07FFFFF000
07FFFFF000
07FFFFF000
0FFFFFF800
0FFFFFF800
0FFFFFF800
0FFFFFF800
1FFFFFFC00
1FFFFFFC00
1FF007FC00
1FF007FC00
3FE003FE00
3FE003FE00
3FE003FE00
3FE003FE00
3FE003FE00
7FC001FF00
7FC001FF00
7FC001FF00
7FC001FF00
FF8000FF80
FF8000FF80
FF8000FF80
7F8000FF00
3E00007E00
ENDCHAR
STARTCHAR atilde
ENCODING 227
SWIDTH 442 0
DWIDTH 39 0
BBX 33 74 0 0
BITMAP
003F000000
00FFC00000
03FFE3FC00
03FFFBFE00
07FFFFFE00
0FFFFFFE00
0FFFFFFC00
1FFFFFFC00
1FFFFFF800
1FF3FFF000
0FE1FFE000
00007F8000
0000000000
0000000000
0000000000
0003F00000
0007F00000
000FF80000
000FF80000
000FF80000
000FF80000
001FFC0000
001FFC0000
001FFC0000
001FFC0000
001FFE0000
003FFE0000
003FFE0000
003FFE0000
003FFE0000
007FFF0000
007FFF0000
007FFF0000
007FFF0000
00FFFF8000
00FF7F8000
00FF7F8000
00FF7F8000
00FF7F8000
01FF7FC000
01FF3FC000
01FE3FC000
01FE3FC000
03FE3FE000
03FE3FE000
03FE3FE000
03FE3FE000
07FC1FF000
07FC1FF000
07FFFFF000
07FFFFF000
07FFFFF000
0FFFFFF800
0FFFFFF800
0FFFFFF800
0FFFFFF800
1FFFFFFC00
1FFFFFFC00
1FF007FC00
1FF007FC00
3FE003FE00
3FE003FE00
3FE003FE00
3FE003FE00
3FE003FE00
7FC001FF00
7FC001FF00
7FC001FF00
7FC001FF00
FF8000FF80
FF8000FF80
FF8000FF80
7F8000FF00
3E00007E00
ENDCHAR
STARTCHAR adieresis
ENCODING 228
SWIDTH 442 0
DWIDTH 39 0
BBX 33 73 0 0
BITMAP
007C0F8000
01FE1FC000
01FE3FE000
01FF3FE000
01FF3FE000
01FF3FE000
01FF3FE000
01FE3FE000
01FE1FE000
00FC0FC000
0000000000
0000000000
0000000000
0000000000
0003F00000
0007F00000
000FF80000
000FF80000
000FF80000
000FF80000
001FFC0000
001FFC0000
001FFC0000
001FFC0000
001FFE0000
003FFE0000
003FFE0000
003FFE0000
003FFE0000
007FFF0000
007FFF0000
007FFF0000
007FFF0000
00FFFF8000
00FF7F8000
00FF7F8000
00FF7F8000
00FF7F8000
01FF7FC000
01FF3FC000
01FE3FC000
01FE3FC000
03FE3FE000
03FE3FE000
03FE3FE000
03FE3FE000
07FC1FF000
07FC1FF000
07FFFFF000
07FFFFF000
07FFFFF000
0FFFFFF800
0FFFFFF800
0FFFFFF800
0FFFFFF800
1FFFFFFC00
1FFFFFFC00
1FF007FC00
1FF007FC00
3FE003FE00
3FE003FE00
3FE003FE00
3FE003FE00
3FE003FE00
7FC001FF00
7FC001FF00
7FC001FF00
7FC001FF00
FF8000FF80
FF8000FF80
FF8000FF80
7F8000FF00
3E00007E00
ENDCHAR
STARTCHAR aring
ENCODING 229
SWIDTH 442 0
DWIDTH 39 0
BBX 33 76 0 0
BITMAP
0001F00000
0007F80000
000FFC0000
001FFE0000
001FFE0000
001F1F0000
001E1F0000
001E1F0000
001FFF0000
001FFE0000
000FFE0000
0007FC0000
0003F00000
0000000000
0000000000
0000000000
0000000000
0003F00000
0007F00000
000FF80000
000FF80000
000FF80000
000FF80000
001FFC0000
001FFC0000
001FFC0000
001FFC0000
001FFC0000
003FFE0000
003FFE0000
003FFE0000
003FFE0000
007FFF0000
007FFF0000
007FFF0000
007FFF0000
00FFFF8000
00FF7F8000
00FF7F8000
00FF7F8000
00FF7F8000
01FF7FC000
01FF3FC000
01FE3FC000
01FE3FC000
03FE3FE000
03FE3FE000
03FE3FE000
03FE3FE000
07FC1FF000
07FC1FF000
07FFFFF000
07FFFFF000
0FFFFFF000
0FFFFFF800
0FFFFFF800
0FFFFFF800
0FFFFFF800
1FFFFFFC00
1FFFFFFC00
1FF007FC00
1FF007FC00
3FE003FE00
3FE003FE00
3FE003FE00
3FE003FE00
3FE003FE00
7FC001FF00
7FC001FF00
7FC001FF00
7FC001FF00
FF8000FF80
FF8000FF80
FF8000FF80
7F8000FF00
3E00007E00
ENDCHAR
STARTCHAR ae
ENCODING 230
SWIDTH 665 0
DWIDTH 59 0
BBX 47 57 1 0
BITMAP
0000007FFFFC
000000FFFFFE
000001FFFFFE
000001FFFFFE
000003FFFFFE
000003FFFFFE
000007FFFFFE
000007FFFFFC
00000FFE0000
00000FFE0000
00001FFE0000
00001FFE0000
00003FFE0000
00003FFE0000
00003FFE0000
00007FFE0000
00007FFE0000
0000FFFE0000
0000FFFE0000
0001FFFE0000
0001FFFE0000
0003FFFE0000
0003FFFE0000
0007FFFE0000
0007FDFFFFFC
0007FDFFFFFE
000FF9FFFFFE
000FF9FFFFFE
001FF1FFFFFE
001FF1FFFFFE
003FE1FFFFFE
003FE1FFFFFE
007FE1FFFFF8
007FFFFE0000
00FFFFFE0000
00FFFFFE0000
00FFFFFE0000
01FFFFFE0000
01FFFFFE0000
03FFFFFE0000
03FFFFFE0000
07FC01FE0000
07FC01FE0000
0FFC01FE0000
0FF801FE0000
1FF801FE0000
1FF001FE0000
1FF001FE0000
3FE001FE0000
3FE001FFFFFE
7FC001FFFFFE
7FC001FFFFFE
FF8001FFFFFE
FF8001FFFFFE
FF0001FFFFFE
FF0001FFFFFE
7E0000FFFFFC
ENDCHAR
STARTCHAR ccedilla
ENCODING 231
SWIDTH 394 0
DWIDTH 35 0
BBX 29 77 0 -18
BITMAP
007FF000
01FFFC00
07FFFE00
0FFFFF00
1FFFFF80
1FFFFFC0
3FFFFFE0
3FFFFFE0
7FFDFFF0
7FE03FF0
7FC01FF0
FFC01FF0
FF801FF0
FF800FF8
FF800FF8
FF800FF8
FF800FF8
FF800FF8
FF800FF8
FF800FF0
FF8007F0
FF800000
FF800000
FF800000
FF800000
FF800000
FF800000
FF800000
FF800000
FF800000
FF800000
FF800000
FF800000
FF800000
FF800000
FF800000
FF800000
FF8003E0
FF8007F0
FF800FF8
FF800FF8
FF800FF8
FF800FF8
FF800FF8
FF800FF8
FF800FF8
FF801FF0
FFC01FF0
7FC01FF0
7FE07FF0
7FFFFFE0
3FFFFFE0
3FFFFFC0
1FFFFFC0
0FFFFF80
07FFFF00
03FFFE00
01FFF800
003FE000
001FC000
001FC000
001FC000
001FC000
001FFE00
001FFF00
001FFF80
001FFF80
001FFFC0
001FFFC0
00007FC0
00F07FC0
01FFFFC0
01FFFFC0
00FFFF80
00FFFF00
007FFE00
001FF800
ENDCHAR
STARTCHAR egrave
ENCODING 232
SWIDTH 353 0
DWIDTH 31 0
BBX 25 76 0 0
BITMAP
03000000
07F00000
0FFE0000
0FFF0000
0FFFC000
07FFF000
03FFF800
00FFFC00
007FFE00
001FFF00
000FFF00
0001FE00
00007E00
00000000
00000000
00000000
00000000
7FFFFF00
FFFFFF80
FFFFFF80
FFFFFF80
FFFFFF80
FFFFFF80
FFFFFF80
FFFFFF80
FFFFFE00
FF800000
FF800000
FF800000
FF800000
FF800000
FF800000
FF800000
FF800000
FF800000
FF800000
FF800000
FF800000
FF800000
FF800000
FF800000
FF800000
FFFFF800
FFFFFC00
FFFFFE00
FFFFFE00
FFFFFE00
FFFFFE00
FFFFFE00
FFFFFE00
FFFFFC00
FF800000
FF800000
FF800000
FF800000
FF800000
FF800000
FF800000
FF800000
FF800000
FF800000
FF800000
FF800000
FF800000
FF800000
FF800000
FF800000
FF800000
FFFFFF00
FFFFFF80
FFFFFF80
FFFFFF80
FFFFFF80
FFFFFF80
FFFFFF80
7FFFFF00
ENDCHAR
STARTCHAR eacute
ENCODING 233
SWIDTH 353 0
DWIDTH 31 0
BBX 25 76 0 0
BITMAP
00007800
0003FC00
000FFE00
003FFE00
00FFFE00
01FFFC00
03FFF000
0FFFE000
0FFF8000
1FFF0000
1FFC0000
0FF00000
07800000
00000000
00000000
00000000
00000000
7FFFFF00
FFFFFF80
FFFFFF80
FFFFFF80
FFFFFF80
FFFFFF80
FFFFFF80
FFFFFF00
FF800000
FF800000
FF800000
FF800000
FF800000
FF800000
FF800000
FF800000
FF800000
FF800000
FF800000
FF800000
FF800000
FF800000
FF800000
FF800000
FF800000
FFFFFC00
FFFFFC00
FFFFFE00
FFFFFE00
FFFFFE00
FFFFFE00
FFFFFE00
FFFFFC00
FFFFF800
FF800000
FF800000
FF800000
FF800000
FF800000
FF800000
FF800000
FF800000
FF800000
FF800000
FF800000
FF800000
FF800000
FF800000
FF800000
FF800000
FFFFFE00
FFFFFF80
FFFFFF80
FFFFFF80
FFFFFF80
FFFFFF80
FFFFFF80
FFFFFF80
7FFFFF00
ENDCHAR
STARTCHAR ecircumflex
ENCODING 234
SWIDTH 353 0
DWIDTH 31 0
BBX 25 76 0 0
BITMAP
003E0000
00FF8000
00FFC000
01FFC000
03FFE000
07FFF000
0FFFF800
0FFFFC00
1FFFFC00
3FF7FE00
3FF7FE00
1FE3FC00
0FC1F800
00000000
00000000
00000000
00000000
7FFFFF00
FFFFFF80
FFFFFF80
FFFFFF80
FFFFFF80
FFFFFF80
FFFFFF80
FFFFFF00
FF800000
FF800000
FF800000
FF800000
FF800000
FF800000
FF800000
FF800000
FF800000
FF800000
FF800000
FF800000
FF800000
FF800000
FF800000
FF800000
FF800000
FFFFFC00
FFFFFC00
FFFFFE00
FFFFFE00
FFFFFE00
FFFFFE00
FFFFFE00
FFFFFC00
FFFFF800
FF800000
FF800000
FF800000
FF800000
FF800000
FF800000
FF800000
FF800000
FF800000
FF800000
FF800000
FF800000
FF800000
FF800000
FF800000
FF800000
FFFFFE00
FFFFFF80
FFFFFF80
FFFFFF80
FFFFFF80
FFFFFF80
FFFFFF80
FFFFFF80
7FFFFF00
ENDCHAR
STARTCHAR edieresis
ENCODING 235
SWIDTH 353 0
DWIDTH 31 0
BBX 25 73 0 0
BITMAP
07C0F800
0FE1FE00
1FF1FE00
1FF3FE00
1FF3FE00
1FF3FE00
1FF3FE00
1FF3FE00
1FE1FE00
07C0FC00
00000000
00000000
00000000
00000000
7FFFFF00
FFFFFF80
FFFFFF80
FFFFFF80
FFFFFF80
FFFFFF80
FFFFFF80
FFFFFF00
FF800000
FF800000
FF800000
FF800000
FF800000
FF800000
FF800000
FF800000
FF800000
FF800000
FF800000
FF800000
FF800000
FF800000
FF800000
FF800000
FF800000
FFFFFC00
FFFFFC00
FFFFFE00
FFFFFE00
FFFFFE00
FFFFFE00
FFFFFE00
FFFFFC00
FFFFF800
FF800000
FF800000
FF800000
FF800000
FF800000
FF800000
FF800000
FF800000
FF800000
FF800000
FF800000
FF800000
FF800000
FF800000
FF800000
FF800000
FFFFFE00
FFFFFF80
FFFFFF80
FFFFFF80
FFFFFF80
FFFFFF80
FFFFFF80
FFFFFF80
7FFFFF00
ENDCHAR
STARTCHAR igrave
ENCODING 236
SWIDTH 159 0
DWIDTH 14 0
BBX 20 76 -4 0
BITMAP
3C0000
FF8000
FFE000
FFF800
FFFC00
7FFF00
3FFF80
0FFFE0
07FFE0
01FFF0
007FE0
001FE0
0003C0
000000
000000
000000
000000
07E000
0FF000
0FF800
0FF800
0FF800
0FF800
0FF800
0FF800
0FF800
0FF800
0FF800
0FF800
0FF800
0FF800
0FF800
0FF800
0FF800
0FF800
0FF800
0FF800
0FF800
0FF800
0FF800
0FF800
0FF800
0FF800
0FF800
0FF800
0FF800
0FF800
0FF800
0FF800
0FF800
0FF800
0FF800
0FF800
0FF800
0FF800
0FF800
0FF800
0FF800
0FF800
0FF800
0FF800
0FF800
0FF800
0FF800
0FF800
0FF800
0FF800
0FF800
0FF800
0FF800
0FF800
0FF800
0FF800
0FF000
0FF000
07E000
ENDCHAR
STARTCHAR iacute
ENCODING 237
SWIDTH 159 0
DWIDTH 14 0
BBX 20 76 -5 0
BITMAP
0007C0
001FE0
007FF0
01FFF0
07FFE0
0FFFE0
3FFF80
7FFF00
FFFC00
FFF000
FFE000
7F8000
3C0000
000000
000000
000000
000000
03F000
07F800
07FC00
07FC00
07FC00
07FC00
07FC00
07FC00
07FC00
07FC00
07FC00
07FC00
07FC00
07FC00
07FC00
07FC00
07FC00
07FC00
07FC00
07FC00
07FC00
07FC00
07FC00
07FC00
07FC00
07FC00
07FC00
07FC00
07FC00
07FC00
07FC00
07FC00
07FC00
07FC00
07FC00
07FC00
07FC00
07FC00
07FC00
07FC00
07FC00
07FC00
07FC00
07FC00
07FC00
07FC00
07FC00
07FC00
07FC00
07FC00
07FC00
07FC00
07FC00
07FC00
07FC00
07FC00
07F800
07F800
03F000
ENDCHAR
STARTCHAR icircumflex
ENCODING 238
SWIDTH 159 0
DWIDTH 14 0
BBX 21 76 -6 0
BITMAP
00F800
03FE00
03FF00
07FF00
0FFF80
1FFFC0
3FFFE0
7FFFF0
7FFFF0
FFDFF8
FFDFF8
7F8FF0
3F07E0
000000
000000
000000
000000
01F800
03FC00
03FE00
03FE00
03FE00
03FE00
03FE00
03FE00
03FE00
03FE00
03FE00
03FE00
03FE00
03FE00
03FE00
03FE00
03FE00
03FE00
03FE00
03FE00
03FE00
03FE00
03FE00
03FE00
03FE00
03FE00
03FE00
03FE00
03FE00
03FE00
03FE00
03FE00
03FE00
03FE00
03FE00
03FE00
03FE00
03FE00
03FE00
03FE00
03FE00
03FE00
03FE00
03FE00
03FE00
03FE00
03FE00
03FE00
03FE00
03FE00
03FE00
03FE00
03FE00
03FE00
03FE00
03FE00
03FC00
03FC00
01F800
ENDCHAR
STARTCHAR idieresis
ENCODING 239
SWIDTH 159 0
DWIDTH 14 0
BBX 20 73 -5 0
BITMAP
3E07C0
7F0FF0
FF8FF0
FF9FF0
FF9FF0
FF9FF0
FF9FF0
FF9FF0
FF0FF0
3E07E0
000000
000000
000000
000000
03F000
07F800
07FC00
07FC00
07FC00
07FC00
07FC00
07FC00
07FC00
07FC00
07FC00
07FC00
07FC00
07FC00
07FC00
07FC00
07FC00
07FC00
07FC00
07FC00
07FC00
07FC00
07FC00
07FC00
07FC00
07FC00
07FC00
07FC00
07FC00
07FC00
07FC00
07FC00
07FC00
07FC00
07FC00
07FC00
07FC00
07FC00
07FC00
07FC00
07FC00
07FC00
07FC00
07FC00
07FC00
07FC00
07FC00
07FC00
07FC00
07FC00
07FC00
07FC00
07FC00
07FC00
07FC00
07FC00
07F800
07F800
03F000
ENDCHAR
STARTCHAR eth
ENCODING 240
SWIDTH 398 0
DWIDTH 35 0
BBX 34 57 -7 0
BITMAP
00FFFF0000
00FFFFE000
01FFFFF800
01FFFFFC00
01FFFFFE00
01FFFFFE00
01FFFFFF00
01FFFFFF00
01FF07FF80
01FF01FF80
01FF00FF80
01FF007F80
01FF007FC0
01FF007FC0
01FF007FC0
01FF007FC0
01FF007FC0
01FF007FC0
01FF007FC0
01FF007FC0
01FF007FC0
01FF007FC0
01FF007FC0
01FF007FC0
3FFFFE7FC0
FFFFFF7FC0
FFFFFF7FC0
FFFFFF7FC0
FFFFFF7FC0
FFFFFF7FC0
FFFFFF7FC0
7FFFFF7FC0
3FFF007FC0
01FF007FC0
01FF007FC0
01FF007FC0
01FF007FC0
01FF007FC0
01FF007FC0
01FF007FC0
01FF007FC0
01FF007FC0
01FF007FC0
01FF007FC0
01FF007FC0
01FF00FF80
01FF00FF80
01FF01FF80
01FF0FFF80
01FFFFFF00
01FFFFFF00
01FFFFFE00
01FFFFFC00
01FFFFFC00
01FFFFF000
00FFFFE000
007FFF0000
ENDCHAR
STARTCHAR ntilde
ENCODING 241
SWIDTH 410 0
DWIDTH 36 0
BBX 29 74 0 0
BITMAP
00FC0000
03FF0000
07FF8FF0
0FFFEFF8
1FFFFFF8
3FFFFFF8
3FFFFFF0
7FFFFFF0
7FFFFFE0
3FCFFFC0
3F87FF80
0001FE00
00000000
00000000
00000000
7E0007F0
FF0007F8
FF800FF8
FF800FF8
FF800FF8
FFC00FF8
FFC00FF8
FFE00FF8
FFE00FF8
FFE00FF8
FFF00FF8
FFF00FF8
FFF80FF8
FFF80FF8
FFF80FF8
FFFC0FF8
FFFC0FF8
FFFE0FF8
FFFE0FF8
FFFE0FF8
FFFF0FF8
FFFF0FF8
FFFF8FF8
FFFF8FF8
FFFF8FF8
FFFFCFF8
FFFFCFF8
FFFFEFF8
FFBFEFF8
FFBFEFF8
FFBFFFF8
FF9FFFF8
FF9FFFF8
FF8FFFF8
FF8FFFF8
FF8FFFF8
FF87FFF8
FF87FFF8
FF83FFF8
FF83FFF8
FF83FFF8
FF81FFF8
FF81FFF8
FF80FFF8
FF80FFF8
FF80FFF8
FF807FF8
FF807FF8
FF803FF8
FF803FF8
FF803FF8
FF801FF8
FF801FF8
FF800FF8
FF800FF8
FF800FF8
FF8007F8
FF0007F8
7E0003F0
ENDCHAR
STARTCHAR ograve
ENCODING 242
SWIDTH 406 0
DWIDTH 36 0
BBX 29 76 0 0
BITMAP
01F00000
03FE0000
03FF8000
03FFE000
03FFF000
01FFFC00
00FFFE00
003FFF00
001FFF80
0007FF80
0001FF80
00007F80
00000F00
00000000
00000000
00000000
00000000
007FF000
01FFFC00
07FFFF00
0FFFFF80
1FFFFFC0
1FFFFFC0
3FFFFFE0
3FFFFFE0
7FFDFFF0
7FE03FF0
7FC01FF0
FFC01FF0
FF800FF8
FF800FF8
FF800FF8
FF800FF8
FF800FF8
FF800FF8
FF800FF8
FF800FF8
FF800FF8
FF800FF8
FF800FF8
FF800FF8
FF800FF8
FF800FF8
FF800FF8
FF800FF8
FF800FF8
FF800FF8
FF800FF8
FF800FF8
FF800FF8
FF800FF8
FF800FF8
FF800FF8
FF800FF8
FF800FF8
FF800FF8
FF800FF8
FF800FF8
FF800FF8
FF800FF8
FF800FF8
FF800FF8
FF800FF8
FF800FF8
7FC01FF0
7FC01FF0
7FF07FF0
7FFFFFF0
3FFFFFE0
3FFFFFE0
1FFFFFC0
0FFFFF80
07FFFF00
03FFFE00
00FFFC00
003FE000
ENDCHAR
STARTCHAR oacute
ENCODING 243
SWIDTH 406 0
DWIDTH 36 0
BBX 29 76 0 0
BITMAP
00001E00
0000FF80
0003FF80
000FFF80
001FFF80
007FFF00
00FFFE00
03FFF800
03FFF000
07FFC000
03FF0000
03FC0000
01E00000
00000000
00000000
00000000
00000000
007FF000
01FFFC00
07FFFF00
0FFFFF80
1FFFFFC0
1FFFFFC0
3FFFFFE0
3FFFFFE0
7FFDFFF0
7FE03FF0
7FC01FF0
FFC01FF0
FF800FF8
FF800FF8
FF800FF8
FF800FF8
FF800FF8
FF800FF8
FF800FF8
FF800FF8
FF800FF8
FF800FF8
FF800FF8
FF800FF8
FF800FF8
FF800FF8
FF800FF8
FF800FF8
FF800FF8
FF800FF8
FF800FF8
FF800FF8
FF800FF8
FF800FF8
FF800FF8
FF800FF8
FF800FF8
FF800FF8
FF800FF8
FF800FF8
FF800FF8
FF800FF8
FF800FF8
FF800FF8
FF800FF8
FF800FF8
FF800FF8
7FC01FF0
7FC01FF0
7FF07FF0
7FFFFFF0
3FFFFFE0
3FFFFFE0
1FFFFFC0
0FFFFF80
07FFFF00
03FFFE00
00FFFC00
003FE000
ENDCHAR
STARTCHAR ocircumflex
ENCODING 244
SWIDTH 406 0
DWIDTH 36 0
BBX 29 76 0 0
BITMAP
000FC000
001FE000
003FF000
007FF800
00FFF800
01FFFC00
03FFFE00
03FFFF00
07FFFF80
07FFFF80
07FDFF80
07F8FF00
03F07E00
00000000
00000000
00000000
00000000
007FF000
01FFFC00
07FFFF00
0FFFFF80
1FFFFFC0
1FFFFFC0
3FFFFFE0
3FFFFFE0
7FFDFFF0
7FE03FF0
7FC01FF0
FFC01FF0
FF800FF8
FF800FF8
FF800FF8
FF800FF8
FF800FF8
FF800FF8
FF800FF8
FF800FF8
FF800FF8
FF800FF8
FF800FF8
FF800FF8
FF800FF8
FF800FF8
FF800FF8
FF800FF8
FF800FF8
FF800FF8
FF800FF8
FF800FF8
FF800FF8
FF800FF8
FF800FF8
FF800FF8
FF800FF8
FF800FF8
FF800FF8
FF800FF8
FF800FF8
FF800FF8
FF800FF8
FF800FF8
FF800FF8
FF800FF8
FF800FF8
7FC01FF0
7FC01FF0
7FF07FF0
7FFFFFF0
3FFFFFE0
3FFFFFE0
1FFFFFC0
0FFFFF80
07FFFF00
03FFFE00
00FFFC00
003FE000
ENDCHAR
STARTCHAR otilde
ENCODING 245
SWIDTH 406 0
DWIDTH 36 0
BBX 29 74 0 0
BITMAP
00FC0000
03FF0000
0FFF8FF0
1FFFFFF0
3FFFFFF8
3FFFFFF0
7FFFFFF0
7FFFFFE0
7FFFFFE0
7FCFFFC0
3F87FF80
0001FE00
00000000
00000000
00000000
007FF000
01FFFC00
07FFFF00
0FFFFF80
1FFFFFC0
1FFFFFC0
3FFFFFE0
3FFFFFE0
7FFDFFF0
7FE03FF0
7FC01FF0
FFC01FF0
FF800FF8
FF800FF8
FF800FF8
FF800FF8
FF800FF8
FF800FF8
FF800FF8
FF800FF8
FF800FF8
FF800FF8
FF800FF8
FF800FF8
FF800FF8
FF800FF8
FF800FF8
FF800FF8
FF800FF8
FF800FF8
FF800FF8
FF800FF8
FF800FF8
FF800FF8
FF800FF8
FF800FF8
FF800FF8
FF800FF8
FF800FF8
FF800FF8
FF800FF8
FF800FF8
FF800FF8
FF800FF8
FF800FF8
FF800FF8
FF800FF8
7FC01FF0
7FC01FF0
7FF07FF0
7FFFFFF0
3FFFFFE0
3FFFFFE0
1FFFFFC0
0FFFFF80
07FFFF00
03FFFE00
00FFFC00
003FE000
ENDCHAR
STARTCHAR odieresis
ENCODING 246
SWIDTH 406 0
DWIDTH 36 0
BBX 29 73 0 0
BITMAP
01F03E00
07F87F00
07F8FF80
07FCFF80
07FCFF80
07FCFF80
07FCFF80
07F8FF80
07F87F80
03F03E00
00000000
00000000
00000000
00000000
007FF000
01FFFC00
07FFFF00
0FFFFF80
1FFFFFC0
1FFFFFC0
3FFFFFE0
3FFFFFE0
7FFDFFF0
7FE03FF0
7FC01FF0
FFC01FF0
FF800FF8
FF800FF8
FF800FF8
FF800FF8
FF800FF8
FF800FF8
FF800FF8
FF800FF8
FF800FF8
FF800FF8
FF800FF8
FF800FF8
FF800FF8
FF800FF8
FF800FF8
FF800FF8
FF800FF8
FF800FF8
FF800FF8
FF800FF8
FF800FF8
FF800FF8
FF800FF8
FF800FF8
FF800FF8
FF800FF8
FF800FF8
FF800FF8
FF800FF8
FF800FF8
FF800FF8
FF800FF8
FF800FF8
FF800FF8
FF800FF8
7FC01FF0
7FC01FF0
7FF07FF0
7FFFFFF0
3FFFFFE0
3FFFFFE0
1FFFFFC0
0FFFFF80
07FFFF00
03FFFE00
00FFFC00
003FE000
ENDCHAR
STARTCHAR divide
ENCODING 247
SWIDTH 163 0
DWIDTH 14 0
BBX 9 34 0 13
BITMAP
7E00
FF00
FF00
FF80
FF80
FF80
FF80
FF80
FF80
FF80
FF00
7F00
0000
0000
0000
0000
0000
0000
0000
0000
0000
0000
7E00
FF00
FF80
FF80
FF80
FF80
FF80
FF80
FF80
FF80
FF00
7E00
ENDCHAR
STARTCHAR oslash
ENCODING 248
SWIDTH 406 0
DWIDTH 36 0
BBX 30 59 0 0
BITMAP
007FF1F8
01FFFFFC
07FFFFFC
0FFFFFFC
1FFFFFFC
1FFFFFFC
3FFFFFF8
3FFFFFF8
7FFDFFF0
7FE03FF0
7FC03FF0
FFC03FF0
FF807FF8
FF807FF8
FF80FFF8
FF80FFF8
FF80FFF8
FF81FFF8
FF81FFF8
FF83FFF8
FF83FFF8
FF83FFF8
FF87FFF8
FF87FFF8
FF8FFFF8
FF8FFFF8
FF8FFFF8
FF9FFFF8
FF9FFFF8
FF9FFFF8
FFBFFFF8
FFBFEFF8
FFFFEFF8
FFFFCFF8
FFFFCFF8
FFFFCFF8
FFFF8FF8
FFFF8FF8
FFFF0FF8
FFFF0FF8
FFFE0FF8
FFFE0FF8
FFFE0FF8
FFFC0FF8
FFFC0FF8
FFF80FF8
FFF80FF8
7FF81FF0
7FF01FF0
7FF07FF0
3FFFFFF0
3FFFFFE0
7FFFFFE0
7FFFFFC0
7FFFFF80
FFFFFF00
FFFFFE00
7FFFFC00
3F3FE000
ENDCHAR
STARTCHAR ugrave
ENCODING 249
SWIDTH 409 0
DWIDTH 36 0
BBX 29 76 -1 0
BITMAP
00400000
01FC0000
01FF8000
03FFE000
01FFF000
01FFFC00
00FFFE00
003FFF80
001FFFC0
0007FFC0
0001FFC0
00007FC0
00001F80
00000000
00000000
00000000
00000000
3F0003F0
7F8007F8
7F8007F8
FF8007F8
FF8007F8
FF8007F8
FF8007F8
FF8007F8
FF8007F8
FF8007F8
FF8007F8
FF8007F8
FF8007F8
FF8007F8
FF8007F8
FF8007F8
FF8007F8
FF8007F8
FF8007F8
FF8007F8
FF8007F8
FF8007F8
FF8007F8
FF8007F8
FF8007F8
FF8007F8
FF8007F8
FF8007F8
FF8007F8
FF8007F8
FF8007F8
FF8007F8
FF8007F8
FF8007F8
FF8007F8
FF8007F8
FF8007F8
FF8007F8
FF8007F8
FF8007F8
FF8007F8
FF8007F8
FF8007F8
FF8007F8
FF800FF8
7F800FF8
7F800FF8
7FC00FF8
7FC01FF8
7FE03FF8
7FFCFFF0
3FFFFFF0
3FFFFFF0
1FFFFFE0
1FFFFFC0
0FFFFF80
07FFFF00
01FFFE00
007FF800
ENDCHAR
STARTCHAR uacute
ENCODING 250
SWIDTH 409 0
DWIDTH 36 0
BBX 29 76 -1 0
BITMAP
00000200
00003F80
0000FFC0
0003FFC0
000FFFC0
001FFF80
007FFF00
00FFFE00
01FFF800
03FFE000
03FFC000
01FF0000
01F80000
00000000
00000000
00000000
00000000
3F0003F0
7F8007F8
7F8007F8
FF8007F8
FF8007F8
FF8007F8
FF8007F8
FF8007F8
FF8007F8
FF8007F8
FF8007F8
FF8007F8
FF8007F8
FF8007F8
FF8007F8
FF8007F8
FF8007F8
FF8007F8
FF8007F8
FF8007F8
FF8007F8
FF8007F8
FF8007F8
FF8007F8
FF8007F8
FF8007F8
FF8007F8
FF8007F8
FF8007F8
FF8007F8
FF8007F8
FF8007F8
FF8007F8
FF8007F8
FF8007F8
FF8007F8
FF8007F8
FF8007F8
FF8007F8
FF8007F8
FF8007F8
FF8007F8
FF8007F8
FF8007F8
FF800FF8
7F800FF8
7F800FF8
7FC00FF8
7FC01FF8
7FE03FF8
7FFCFFF0
3FFFFFF0
3FFFFFF0
1FFFFFE0
1FFFFFC0
0FFFFF80
07FFFF00
01FFFE00
007FF800
ENDCHAR
STARTCHAR ucircumflex
ENCODING 251
SWIDTH 409 0
DWIDTH 36 0
BBX 29 76 -1 0
BITMAP
00070000
001FC000
003FE000
007FF000
00FFF800
00FFFC00
01FFFE00
03FFFE00
07FFFF00
07FFFF80
0FFDFF80
07FCFF80
07F8FF00
00000000
00000000
00000000
00000000
3F0003F0
7F8007F8
7F8007F8
FF8007F8
FF8007F8
FF8007F8
FF8007F8
FF8007F8
FF8007F8
FF8007F8
FF8007F8
FF8007F8
FF8007F8
FF8007F8
FF8007F8
FF8007F8
FF8007F8
FF8007F8
FF8007F8
FF8007F8
FF8007F8
FF8007F8
FF8007F8
FF8007F8
FF8007F8
FF8007F8
FF8007F8
FF8007F8
FF8007F8
FF8007F8
FF8007F8
FF8007F8
FF8007F8
FF8007F8
FF8007F8
FF8007F8
FF8007F8
FF8007F8
FF8007F8
FF8007F8
FF8007F8
FF8007F8
FF8007F8
FF8007F8
FF800FF8
7F800FF8
7F800FF8
7FC00FF8
7FC01FF8
7FE03FF8
7FFCFFF0
3FFFFFF0
3FFFFFF0
1FFFFFE0
1FFFFFC0
0FFFFF80
07FFFF00
01FFFE00
007FF800
ENDCHAR
STARTCHAR udieresis
ENCODING 252
SWIDTH 409 0
DWIDTH 36 0
BBX 29 72 -1 0
BITMAP
03F83F80
07FC7F80
07FC7FC0
07FC7FC0
07FC7FC0
07FC7FC0
07FC7FC0
07FC7F80
03F83F80
00000000
00000000
00000000
00000000
3F0003F0
7F8007F8
7F8007F8
FF8007F8
FF8007F8
FF8007F8
FF8007F8
FF8007F8
FF8007F8
FF8007F8
FF8007F8
FF8007F8
FF8007F8
FF8007F8
FF8007F8
FF8007F8
FF8007F8
FF8007F8
FF8007F8
FF8007F8
FF8007F8
FF8007F8
FF8007F8
FF8007F8
FF8007F8
FF8007F8
FF8007F8
FF8007F8
FF8007F8
FF8007F8
FF8007F8
FF8007F8
FF8007F8
FF8007F8
FF8007F8
FF8007F8
FF8007F8
FF8007F8
FF8007F8
FF8007F8
FF8007F8
FF8007F8
FF8007F8
FF8007F8
FF800FF8
7F800FF8
7F800FF8
7FC00FF8
7FC01FF8
7FE03FF8
7FFCFFF0
3FFFFFF0
3FFFFFF0
1FFFFFE0
1FFFFFC0
0FFFFF80
07FFFF00
01FFFE00
007FF800
ENDCHAR
STARTCHAR yacute
ENCODING 253
SWIDTH 406 0
DWIDTH 36 0
BBX 33 76 -2 0
BITMAP
0000078000
00003FE000
0000FFE000
0003FFE000
0007FFE000
001FFFC000
003FFF8000
00FFFE0000
00FFFC0000
01FFF00000
00FFC00000
00FF000000
0078000000
0000000000
0000000000
0000000000
0000000000
7F0000FF00
7F8000FF00
FFC001FF80
7FC001FF00
7FE003FF00
7FE003FF00
3FF007FE00
3FF007FE00
1FF007FC00
1FF80FFC00
0FF80FFC00
0FFC1FF800
0FFC1FF800
07FE3FF000
07FE3FF000
03FF7FE000
03FF7FE000
01FF7FC000
01FFFFC000
01FFFFC000
00FFFF8000
00FFFF8000
007FFF0000
007FFF0000
003FFE0000
003FFE0000
003FFE0000
001FFC0000
001FFC0000
000FF80000
000FF80000
000FF80000
000FF80000
000FF80000
000FF80000
000FF80000
000FF80000
000FF80000
000FF80000
000FF80000
000FF80000
000FF80000
000FF80000
000FF80000
000FF80000
000FF80000
000FF80000
000FF80000
000FF80000
000FF80000
000FF80000
000FF80000
000FF80000
000FF80000
000FF80000
000FF80000
000FF80000
0007F00000
0003E00000
ENDCHAR
STARTCHAR thorn
ENCODING 254
SWIDTH 386 0
DWIDTH 34 0
BBX 31 57 0 0
BITMAP
7E000000
FF000000
FF000000
FF000000
FF000000
FF000000
FF000000
FF000000
FF000000
FF000000
FF000000
FF000000
FF000000
FF000000
FFFFF000
FFFFFF00
FFFFFF80
FFFFFFE0
FFFFFFF0
FFFFFFF8
FFFFFFF8
FFFFFFFC
FF00FFFC
FF000FFE
FF0003FE
FF0003FE
FF0001FE
FF0001FE
FF0001FE
FF0001FE
FF0003FE
FF0007FE
FF000FFE
FFFFFFFC
FFFFFFFC
FFFFFFF8
FFFFFFF8
FFFFFFF0
FFFFFFE0
FFFFFF80
FFFFFF00
FFFFF000
FF000000
FF000000
FF000000
FF000000
FF000000
FF000000
FF000000
FF000000
FF000000
FF000000
FF000000
FF000000
FF000000
FF000000
7E000000
ENDCHAR
STARTCHAR ydieresis
ENCODING 255
SWIDTH 406 0
DWIDTH 36 0
BBX 33 73 -2 0
BITMAP
007C0F8000
01FE1FC000
01FE3FE000
01FF3FE000
01FF3FE000
01FF3FE000
01FF3FE000
01FE3FE000
01FE1FE000
00FC0F8000
0000000000
0000000000
0000000000
0000000000
7F0000FF00
7F8000FF00
FFC001FF80
7FC001FF00
7FE003FF00
7FE003FF00
3FF007FE00
3FF007FE00
1FF007FC00
1FF80FFC00
0FF80FFC00
0FFC1FF800
0FFC1FF800
07FE3FF000
07FE3FF000
03FF7FE000
03FF7FE000
01FF7FC000
01FFFFC000
01FFFFC000
00FFFF8000
00FFFF8000
007FFF0000
007FFF0000
003FFE0000
003FFE0000
003FFE0000
001FFC0000
001FFC0000
000FF80000
000FF80000
000FF80000
000FF80000
000FF80000
000FF80000
000FF80000
000FF80000
000FF80000
000FF80000
000FF80000
000FF80000
000FF80000
000FF80000
000FF80000
000FF80000
000FF80000
000FF80000
000FF80000
000FF80000
000FF80000
000FF80000
000FF80000
000FF80000
000FF80000
000FF80000
000FF80000
000FF80000
0007F00000
0003E00000
ENDCHAR
STARTCHAR Amacron
ENCODING 256
SWIDTH 442 0
DWIDTH 39 0
BBX 33 72 0 0
BITMAP
007FFF8000
01FFFFC000
01FFFFE000
01FFFFE000
01FFFFE000
01FFFFE000
01FFFFE000
01FFFFC000
00FFFF8000
0000000000
0000000000
0000000000
0000000000
0003F00000
0007F00000
000FF80000
000FF80000
000FF80000
000FF80000
001FFC0000
001FFC0000
001FFC0000
001FFC0000
001FFE0000
003FFE0000
003FFE0000
003FFE0000
003FFE0000
007FFF0000
007FFF0000
007FFF0000
007FFF0000
00FFFF8000
00FF7F8000
00FF7F8000
00FF7F8000
00FF7F8000
01FF7FC000
01FF3FC000
01FE3FC000
01FE3FC000
03FE3FE000
03FE3FE000
03FE3FE000
03FE3FE000
07FC1FF000
07FC1FF000
07FFFFF000
07FFFFF000
07FFFFF000
0FFFFFF800
0FFFFFF800
0FFFFFF800
0FFFFFF800
1FFFFFFC00
1FFFFFFC00
1FF007FC00
1FF007FC00
3FE003FE00
3FE003FE00
3FE003FE00
3FE003FE00
3FE003FE00
7FC001FF00
7FC001FF00
7FC001FF00
7FC001FF00
FF8000FF80
FF8000FF80
FF8000FF80
7F8000FF00
3E00007E00
ENDCHAR
STARTCHAR amacron
ENCODING 257
SWIDTH 442 0
DWIDTH 39 0
BBX 33 72 0 0
BITMAP
007FFF8000
01FFFFC000
01FFFFE000
01FFFFE000
01FFFFE000
01FFFFE000
01FFFFE000
01FFFFC000
00FFFF8000
0000000000
0000000000
0000000000
0000000000
0003F00000
0007F00000
000FF80000
000FF80000
000FF80000
000FF80000
001FFC0000
001FFC0000
001FFC0000
001FFC0000
001FFE0000
003FFE0000
003FFE0000
003FFE0000
003FFE0000
007FFF0000
007FFF0000
007FFF0000
007FFF0000
00FFFF8000
00FF7F8000
00FF7F8000
00FF7F8000
00FF7F8000
01FF7FC000
01FF3FC000
01FE3FC000
01FE3FC000
03FE3FE000
03FE3FE000
03FE3FE000
03FE3FE000
07FC1FF000
07FC1FF000
07FFFFF000
07FFFFF000
07FFFFF000
0FFFFFF800
0FFFFFF800
0FFFFFF800
0FFFFFF800
1FFFFFFC00
1FFFFFFC00
1FF007FC00
1FF007FC00
3FE003FE00
3FE003FE00
3FE003FE00
3FE003FE00
3FE003FE00
7FC001FF00
7FC001FF00
7FC001FF00
7FC001FF00
FF8000FF80
FF8000FF80
FF8000FF80
7F8000FF00
3E00007E00
ENDCHAR
STARTCHAR Cacute
ENCODING 262
SWIDTH 394 0
DWIDTH 35 0
BBX 29 76 0 0
BITMAP
00001F00
0000FF80
0003FF80
000FFF80
001FFF80
007FFF00
00FFFE00
01FFF800
03FFF000
03FFC000
03FF0000
03FC0000
01E00000
00000000
00000000
00000000
00000000
007FF000
01FFFC00
07FFFE00
0FFFFF00
1FFFFF80
1FFFFFC0
3FFFFFE0
3FFFFFE0
7FFDFFF0
7FE03FF0
7FC01FF0
FFC01FF0
FF801FF0
FF800FF8
FF800FF8
FF800FF8
FF800FF8
FF800FF8
FF800FF8
FF800FF0
FF8007F0
FF800000
FF800000
FF800000
FF800000
FF800000
FF800000
FF800000
FF800000
FF800000
FF800000
FF800000
FF800000
FF800000
FF800000
FF800000
FF800000
FF8003E0
FF8007F0
FF800FF8
FF800FF8
FF800FF8
FF800FF8
FF800FF8
FF800FF8
FF800FF8
FF801FF0
FFC01FF0
7FC01FF0
7FE07FF0
7FFFFFE0
3FFFFFE0
3FFFFFC0
1FFFFFC0
0FFFFF80
07FFFF00
03FFFE00
01FFF800
003FE000
ENDCHAR
STARTCHAR cacute
ENCODING 263
SWIDTH 394 0
DWIDTH 35 0
BBX 29 76 0 0
BITMAP
00001F00
0000FF80
0003FF80
000FFF80
001FFF80
007FFF00
00FFFE00
01FFF800
03FFF000
03FFC000
03FF0000
03FC0000
01E00000
00000000
00000000
00000000
00000000
007FF000
01FFFC00
07FFFE00
0FFFFF00
1FFFFF80
1FFFFFC0
3FFFFFE0
3FFFFFE0
7FFDFFF0
7FE03FF0
7FC01FF0
FFC01FF0
FF801FF0
FF800FF8
FF800FF8
FF800FF8
FF800FF8
FF800FF8
FF800FF8
FF800FF0
FF8007F0
FF800000
FF800000
FF800000
FF800000
FF800000
FF800000
FF800000
FF800000
FF800000
FF800000
FF800000
FF800000
FF800000
FF800000
FF800000
FF800000
FF8003E0
FF8007F0
FF800FF8
FF800FF8
FF800FF8
FF800FF8
FF800FF8
FF800FF8
FF800FF8
FF801FF0
FFC01FF0
7FC01FF0
7FE07FF0
7FFFFFE0
3FFFFFE0
3FFFFFC0
1FFFFFC0
0FFFFF80
07FFFF00
03FFFE00
01FFF800
003FE000
ENDCHAR
STARTCHAR Ccircumflex
ENCODING 264
SWIDTH 394 0
DWIDTH 35 0
BBX 29 76 0 0
BITMAP
001F8000
003FE000
007FE000
007FF000
00FFF800
01FFFC00
03FFFE00
07FFFF00
07FFFF00
0FFFFF80
0FFDFF00
07F8FF00
03F07E00
00000000
00000000
00000000
00000000
007FF000
01FFFC00
07FFFE00
0FFFFF00
1FFFFF80
1FFFFFC0
3FFFFFE0
3FFFFFE0
7FFDFFF0
7FE03FF0
7FC01FF0
FFC01FF0
FF801FF0
FF800FF8
FF800FF8
FF800FF8
FF800FF8
FF800FF8
FF800FF8
FF800FF0
FF8007F0
FF800000
FF800000
FF800000
FF800000
FF800000
FF800000
FF800000
FF800000
FF800000
FF800000
FF800000
FF800000
FF800000
FF800000
FF800000
FF800000
FF8003E0
FF8007F0
FF800FF8
FF800FF8
FF800FF8
FF800FF8
FF800FF8
FF800FF8
FF800FF8
FF801FF0
FFC01FF0
7FC01FF0
7FE07FF0
7FFFFFE0
3FFFFFE0
3FFFFFC0
1FFFFFC0
0FFFFF80
07FFFF00
03FFFE00
01FFF800
003FE000
ENDCHAR
STARTCHAR ccircumflex
ENCODING 265
SWIDTH 394 0
DWIDTH 35 0
BBX 29 76 0 0
BITMAP
001F8000
003FE000
007FE000
007FF000
00FFF800
01FFFC00
03FFFE00
07FFFF00
07FFFF00
0FFFFF80
0FFDFF00
07F8FF00
03F07E00
00000000
00000000
00000000
00000000
007FF000
01FFFC00
07FFFE00
0FFFFF00
1FFFFF80
1FFFFFC0
3FFFFFE0
3FFFFFE0
7FFDFFF0
7FE03FF0
7FC01FF0
FFC01FF0
FF801FF0
FF800FF8
FF800FF8
FF800FF8
FF800FF8
FF800FF8
FF800FF8
FF800FF0
FF8007F0
FF800000
FF800000
FF800000
FF800000
FF800000
FF800000
FF800000
FF800000
FF800000
FF800000
FF800000
FF800000
FF800000
FF800000
FF800000
FF800000
FF8003E0
FF8007F0
FF800FF8
FF800FF8
FF800FF8
FF800FF8
FF800FF8
FF800FF8
FF800FF8
FF801FF0
FFC01FF0
7FC01FF0
7FE07FF0
7FFFFFE0
3FFFFFE0
3FFFFFC0
1FFFFFC0
0FFFFF80
07FFFF00
03FFFE00
01FFF800
003FE000
ENDCHAR
STARTCHAR Cdotaccent
ENCODING 266
SWIDTH 394 0
DWIDTH 35 0
BBX 29 72 0 0
BITMAP
001FC000
003FC000
003FE000
003FE000
003FE000
003FE000
003FE000
003FE000
001FC000
00070000
00000000
00000000
00000000
007FF000
01FFFC00
07FFFE00
0FFFFF00
1FFFFF80
1FFFFFC0
3FFFFFE0
3FFFFFE0
7FFDFFF0
7FE03FF0
7FC01FF0
FFC01FF0
FF801FF0
FF800FF8
FF800FF8
FF800FF8
FF800FF8
FF800FF8
FF800FF8
FF800FF0
FF8007F0
FF800000
FF800000
FF800000
FF800000
FF800000
FF800000
FF800000
FF800000
FF800000
FF800000
FF800000
FF800000
FF800000
FF800000
FF800000
FF800000
FF8003E0
FF8007F0
FF800FF8
FF800FF8
FF800FF8
FF800FF8
FF800FF8
FF800FF8
FF800FF8
FF801FF0
FFC01FF0
7FC01FF0
7FE07FF0
7FFFFFE0
3FFFFFE0
3FFFFFC0
1FFFFFC0
0FFFFF80
07FFFF00
03FFFE00
01FFF800
003FE000
ENDCHAR
STARTCHAR cdotaccent
ENCODING 267
SWIDTH 394 0
DWIDTH 35 0
BBX 29 72 0 0
BITMAP
001FC000
003FC000
003FE000
003FE000
003FE000
003FE000
003FE000
003FE000
001FC000
00070000
00000000
00000000
00000000
007FF000
01FFFC00
07FFFE00
0FFFFF00
1FFFFF80
1FFFFFC0
3FFFFFE0
3FFFFFE0
7FFDFFF0
7FE03FF0
7FC01FF0
FFC01FF0
FF801FF0
FF800FF8
FF800FF8
FF800FF8
FF800FF8
FF800FF8
FF800FF8
FF800FF0
FF8007F0
FF800000
FF800000
FF800000
FF800000
FF800000
FF800000
FF800000
FF800000
FF800000
FF800000
FF800000
FF800000
FF800000
FF800000
FF800000
FF800000
FF8003E0
FF8007F0
FF800FF8
FF800FF8
FF800FF8
FF800FF8
FF800FF8
FF800FF8
FF800FF8
FF801FF0
FFC01FF0
7FC01FF0
7FE07FF0
7FFFFFE0
3FFFFFE0
3FFFFFC0
1FFFFFC0
0FFFFF80
07FFFF00
03FFFE00
01FFF800
003FE000
ENDCHAR
STARTCHAR Ccaron
ENCODING 268
SWIDTH 394 0
DWIDTH 35 0
BBX 29 76 0 0
BITMAP
03F07E00
07F8FF00
0FFDFF80
0FFDFF80
07FFFF00
07FFFF00
03FFFE00
01FFFC00
00FFF800
007FF000
003FF000
003FE000
000F8000
00000000
00000000
00000000
00000000
007FF000
01FFFC00
07FFFE00
0FFFFF00
1FFFFF80
1FFFFFC0
3FFFFFE0
3FFFFFE0
7FFDFFF0
7FE03FF0
7FC01FF0
FFC01FF0
FF801FF0
FF800FF8
FF800FF8
FF800FF8
FF800FF8
FF800FF8
FF800FF8
FF800FF0
FF8007F0
FF800000
FF800000
FF800000
FF800000
FF800000
FF800000
FF800000
FF800000
FF800000
FF800000
FF800000
FF800000
FF800000
FF800000
FF800000
FF800000
FF8003E0
FF8007F0
FF800FF8
FF800FF8
FF800FF8
FF800FF8
FF800FF8
FF800FF8
FF800FF8
FF801FF0
FFC01FF0
7FC01FF0
7FE07FF0
7FFFFFE0
3FFFFFE0
3FFFFFC0
1FFFFFC0
0FFFFF80
07FFFF00
03FFFE00
01FFF800
003FE000
ENDCHAR
STARTCHAR ccaron
ENCODING 269
SWIDTH 394 0
DWIDTH 35 0
BBX 29 76 0 0
BITMAP
03F07E00
07F8FF00
0FFDFF80
0FFDFF80
07FFFF00
07FFFF00
03FFFE00
01FFFC00
00FFF800
007FF000
003FF000
003FE000
000F8000
00000000
00000000
00000000
00000000
007FF000
01FFFC00
07FFFE00
0FFFFF00
1FFFFF80
1FFFFFC0
3FFFFFE0
3FFFFFE0
7FFDFFF0
7FE03FF0
7FC01FF0
FFC01FF0
FF801FF0
FF800FF8
FF800FF8
FF800FF8
FF800FF8
FF800FF8
FF800FF8
FF800FF0
FF8007F0
FF800000
FF800000
FF800000
FF800000
FF800000
FF800000
FF800000
FF800000
FF800000
FF800000
FF800000
FF800000
FF800000
FF800000
FF800000
FF800000
FF8003E0
FF8007F0
FF800FF8
FF800FF8
FF800FF8
FF800FF8
FF800FF8
FF800FF8
FF800FF8
FF801FF0
FFC01FF0
7FC01FF0
7FE07FF0
7FFFFFE0
3FFFFFE0
3FFFFFC0
1FFFFFC0
0FFFFF80
07FFFF00
03FFFE00
01FFF800
003FE000
ENDCHAR
STARTCHAR Dcaron
ENCODING 270
SWIDTH 398 0
DWIDTH 35 0
BBX 28 76 0 0
BITMAP
0FC1F800
1FE3FC00
1FF3FE00
1FFFFE00
1FFFFE00
0FFFFC00
0FFFF800
07FFF000
03FFE000
01FFE000
00FFC000
007F8000
003F0000
00000000
00000000
00000000
00000000
7FFFC000
7FFFF800
FFFFFC00
FFFFFE00
FFFFFF00
FFFFFF80
FFFFFFC0
FFFFFFC0
FF83FFE0
FF80FFE0
FF807FE0
FF803FE0
FF803FF0
FF801FF0
FF801FF0
FF801FF0
FF801FF0
FF801FF0
FF801FF0
FF801FF0
FF801FF0
FF801FF0
FF801FF0
FF801FF0
FF801FF0
FF801FF0
FF801FF0
FF801FF0
FF801FF0
FF801FF0
FF801FF0
FF801FF0
FF801FF0
FF801FF0
FF801FF0
FF801FF0
FF801FF0
FF801FF0
FF801FF0
FF801FF0
FF801FF0
FF801FF0
FF801FF0
FF801FF0
FF801FF0
FF801FF0
FF803FF0
FF803FE0
FF807FE0
FF80FFE0
FFFFFFC0
FFFFFFC0
FFFFFFC0
FFFFFF80
FFFFFF00
FFFFFE00
FFFFFC00
7FFFF000
3FFF8000
ENDCHAR
STARTCHAR dcaron
ENCODING 271
SWIDTH 398 0
DWIDTH 35 0
BBX 28 76 0 0
BITMAP
0FC1F800
1FE3FC00
1FF3FE00
1FFFFE00
1FFFFE00
0FFFFC00
0FFFF800
07FFF000
03FFE000
01FFE000
00FFC000
007F8000
003F0000
00000000
00000000
00000000
00000000
7FFFC000
7FFFF800
FFFFFC00
FFFFFE00
FFFFFF00
FFFFFF80
FFFFFFC0
FFFFFFC0
FF83FFE0
FF80FFE0
FF807FE0
FF803FE0
FF803FF0
FF801FF0
FF801FF0
FF801FF0
FF801FF0
FF801FF0
FF801FF0
FF801FF0
FF801FF0
FF801FF0
FF801FF0
FF801FF0
FF801FF0
FF801FF0
FF801FF0
FF801FF0
FF801FF0
FF801FF0
FF801FF0
FF801FF0
FF801FF0
FF801FF0
FF801FF0
FF801FF0
FF801FF0
FF801FF0
FF801FF0
FF801FF0
FF801FF0
FF801FF0
FF801FF0
FF801FF0
FF801FF0
FF801FF0
FF803FF0
FF803FE0
FF807FE0
FF80FFE0
FFFFFFC0
FFFFFFC0
FFFFFFC0
FFFFFF80
FFFFFF00
FFFFFE00
FFFFFC00
7FFFF000
3FFF8000
ENDCHAR
STARTCHAR Dcroat
ENCODING 272
SWIDTH 418 0
DWIDTH 37 0
BBX 34 59 -1 0
BITMAP
01FFFF0000
03FFFFE000
03FFFFF000
03FFFFF800
03FFFFFC00
03FFFFFE00
03FFFFFF00
03FFFFFF00
03FE1FFF00
03FE03FF80
03FE01FF80
03FE00FF80
03FE00FF80
03FE00FF80
03FE007FC0
03FE007FC0
03FE007FC0
03FE007FC0
03FE007FC0
03FE007FC0
03FE007FC0
03FE007FC0
03FE007FC0
03FE007FC0
03FE007FC0
7FFFF87FC0
FFFFFC7FC0
FFFFFC7FC0
FFFFFC7FC0
FFFFFC7FC0
FFFFFC7FC0
FFFFFC7FC0
FFFFFC7FC0
3FFFF07FC0
03FE007FC0
03FE007FC0
03FE007FC0
03FE007FC0
03FE007FC0
03FE007FC0
03FE007FC0
03FE007FC0
03FE007FC0
03FE007FC0
03FE007FC0
03FE00FF80
03FE00FF80
03FE00FF80
03FE01FF80
03FE03FF80
03FFFFFF00
03FFFFFF00
03FFFFFE00
03FFFFFE00
03FFFFFC00
03FFFFF800
03FFFFF000
01FFFFC000
00FFFE0000
ENDCHAR
STARTCHAR dcroat
ENCODING 273
SWIDTH 418 0
DWIDTH 37 0
BBX 33 57 -1 0
BITMAP
01FFFE0000
03FFFFC000
03FFFFE000
03FFFFF800
03FFFFFC00
03FFFFFC00
03FFFFFE00
03FFFFFE00
03FE0FFF00
03FE03FF00
03FE01FF00
03FE01FF00
03FE00FF80
03FE00FF80
03FE00FF80
03FE00FF80
03FE00FF80
03FE00FF80
03FE00FF80
03FE00FF80
03FE00FF80
03FE00FF80
03FE00FF80
03FE00FF80
3FFFF0FF80
7FFFF8FF80
FFFFFCFF80
FFFFFCFF80
FFFFFCFF80
FFFFFCFF80
FFFFFCFF80
7FFFF8FF80
1FFFE0FF80
03FE00FF80
03FE00FF80
03FE00FF80
03FE00FF80
03FE00FF80
03FE00FF80
03FE00FF80
03FE00FF80
03FE00FF80
03FE00FF80
03FE00FF80
03FE00FF80
03FE01FF00
03FE01FF00
03FE03FF00
03FE1FFF00
03FFFFFE00
03FFFFFE00
03FFFFFC00
03FFFFF800
03FFFFF000
03FFFFE000
01FFFFC000
00FFFE0000
ENDCHAR
STARTCHAR Emacron
ENCODING 274
SWIDTH 353 0
DWIDTH 31 0
BBX 25 72 0 0
BITMAP
0FFFF800
1FFFFC00
1FFFFE00
1FFFFE00
1FFFFE00
1FFFFE00
1FFFFE00
1FFFFC00
0FFFF800
00000000
00000000
00000000
00000000
7FFFFF00
FFFFFF80
FFFFFF80
FFFFFF80
FFFFFF80
FFFFFF80
FFFFFF80
FFFFFF00
FF800000
FF800000
FF800000
FF800000
FF800000
FF800000
FF800000
FF800000
FF800000
FF800000
FF800000
FF800000
FF800000
FF800000
FF800000
FF800000
FF800000
FFFFFC00
FFFFFC00
FFFFFE00
FFFFFE00
FFFFFE00
FFFFFE00
FFFFFE00
FFFFFC00
FFFFF800
FF800000
FF800000
FF800000
FF800000
FF800000
FF800000
FF800000
FF800000
FF800000
FF800000
FF800000
FF800000
FF800000
FF800000
FF800000
FF800000
FFFFFE00
FFFFFF80
FFFFFF80
FFFFFF80
FFFFFF80
FFFFFF80
FFFFFF80
FFFFFF80
7FFFFF00
ENDCHAR
STARTCHAR emacron
ENCODING 275
SWIDTH 353 0
DWIDTH 31 0
BBX 25 72 0 0
BITMAP
0FFFF800
1FFFFC00
1FFFFE00
1FFFFE00
1FFFFE00
1FFFFE00
1FFFFE00
1FFFFC00
0FFFF800
00000000
00000000
00000000
00000000
7FFFFF00
FFFFFF80
FFFFFF80
FFFFFF80
FFFFFF80
FFFFFF80
FFFFFF80
FFFFFF00
FF800000
FF800000
FF800000
FF800000
FF800000
FF800000
FF800000
FF800000
FF800000
FF800000
FF800000
FF800000
FF800000
FF800000
FF800000
FF800000
FF800000
FFFFFC00
FFFFFC00
FFFFFE00
FFFFFE00
FFFFFE00
FFFFFE00
FFFFFE00
FFFFFC00
FFFFF800
FF800000
FF800000
FF800000
FF800000
FF800000
FF800000
FF800000
FF800000
FF800000
FF800000
FF800000
FF800000
FF800000
FF800000
FF800000
FF800000
FFFFFE00
FFFFFF80
FFFFFF80
FFFFFF80
FFFFFF80
FFFFFF80
FFFFFF80
FFFFFF80
7FFFFF00
ENDCHAR
STARTCHAR Ebreve
ENCODING 276
SWIDTH 353 0
DWIDTH 31 0
BBX 25 75 0 0
BITMAP
0F80F000
3FC1FC00
3FE3FE00
3FFFFE00
3FFFFE00
3FFFFC00
3FFFFC00
1FFFFC00
0FFFF800
0FFFF000
03FFC000
007F0000
00000000
00000000
00000000
00000000
7FFFFF00
FFFFFF80
FFFFFF80
FFFFFF80
FFFFFF80
FFFFFF80
FFFFFF80
FFFFFF00
FF800000
FF800000
FF800000
FF800000
FF800000
FF800000
FF800000
FF800000
FF800000
FF800000
FF800000
FF800000
FF800000
FF800000
FF800000
FF800000
FF800000
FFFFFC00
FFFFFC00
FFFFFE00
FFFFFE00
FFFFFE00
FFFFFE00
FFFFFE00
FFFFFC00
FFFFF800
FF800000
FF800000
FF800000
FF800000
FF800000
FF800000
FF800000
FF800000
FF800000
FF800000
FF800000
FF800000
FF800000
FF800000
FF800000
FF800000
FFFFFE00
FFFFFF80
FFFFFF80
FFFFFF80
FFFFFF80
FFFFFF80
FFFFFF80
FFFFFF80
7FFFFF00
ENDCHAR
STARTCHAR ebreve
ENCODING 277
SWIDTH 353 0
DWIDTH 31 0
BBX 25 75 0 0
BITMAP
0F80F000
3FC1FC00
3FE3FE00
3FFFFE00
3FFFFE00
3FFFFC00
3FFFFC00
1FFFFC00
0FFFF800
0FFFF000
03FFC000
007F0000
00000000
00000000
00000000
00000000
7FFFFF00
FFFFFF80
FFFFFF80
FFFFFF80
FFFFFF80
FFFFFF80
FFFFFF80
FFFFFF00
FF800000
FF800000
FF800000
FF800000
FF800000
FF800000
FF800000
FF800000
FF800000
FF800000
FF800000
FF800000
FF800000
FF800000
FF800000
FF800000
FF800000
FFFFFC00
FFFFFC00
FFFFFE00
FFFFFE00
FFFFFE00
FFFFFE00
FFFFFE00
FFFFFC00
FFFFF800
FF800000
FF800000
FF800000
FF800000
FF800000
FF800000
FF800000
FF800000
FF800000
FF800000
FF800000
FF800000
FF800000
FF800000
FF800000
FF800000
FFFFFE00
FFFFFF80
FFFFFF80
FFFFFF80
FFFFFF80
FFFFFF80
FFFFFF80
FFFFFF80
7FFFFF00
ENDCHAR
STARTCHAR Edotaccent
ENCODING 278
SWIDTH 353 0
DWIDTH 31 0
BBX 25 72 0 0
BITMAP
003F8000
007F8000
007FC000
007FC000
007FC000
007FC000
007FC000
007FC000
003F8000
000E0000
00000000
00000000
00000000
7FFFFF00
FFFFFF80
FFFFFF80
FFFFFF80
FFFFFF80
FFFFFF80
FFFFFF80
FFFFFF00
FF800000
FF800000
FF800000
FF800000
FF800000
FF800000
FF800000
FF800000
FF800000
FF800000
FF800000
FF800000
FF800000
FF800000
FF800000
FF800000
FF800000
FFFFFC00
FFFFFC00
FFFFFE00
FFFFFE00
FFFFFE00
FFFFFE00
FFFFFE00
FFFFFC00
FFFFF800
FF800000
FF800000
FF800000
FF800000
FF800000
FF800000
FF800000
FF800000
FF800000
FF800000
FF800000
FF800000
FF800000
FF800000
FF800000
FF800000
FFFFFE00
FFFFFF80
FFFFFF80
FFFFFF80
FFFFFF80
FFFFFF80
FFFFFF80
FFFFFF80
7FFFFF00
ENDCHAR
STARTCHAR edotaccent
ENCODING 279
SWIDTH 353 0
DWIDTH 31 0
BBX 25 72 0 0
BITMAP
003F8000
007F8000
007FC000
007FC000
007FC000
007FC000
007FC000
007FC000
003F8000
000E0000
00000000
00000000
00000000
7FFFFF00
FFFFFF80
FFFFFF80
FFFFFF80
FFFFFF80
FFFFFF80
FFFFFF80
FFFFFF00
FF800000
FF800000
FF800000
FF800000
FF800000
FF800000
FF800000
FF800000
FF800000
FF800000
FF800000
FF800000
FF800000
FF800000
FF800000
FF800000
FF800000
FFFFFC00
FFFFFC00
FFFFFE00
FFFFFE00
FFFFFE00
FFFFFE00
FFFFFE00
FFFFFC00
FFFFF800
FF800000
FF800000
FF800000
FF800000
FF800000
FF800000
FF800000
FF800000
FF800000
FF800000
FF800000
FF800000
FF800000
FF800000
FF800000
FF800000
FFFFFE00
FFFFFF80
FFFFFF80
FFFFFF80
FFFFFF80
FFFFFF80
FFFFFF80
FFFFFF80
7FFFFF00
ENDCHAR
STARTCHAR Ecaron
ENCODING 282
SWIDTH 353 0
DWIDTH 31 0
BBX 25 76 0 0
BITMAP
0FE0FC00
1FF3FE00
1FF3FE00
1FFFFE00
1FFFFE00
0FFFFC00
07FFF800
03FFF800
03FFF000
01FFE000
00FFC000
007F8000
003F0000
00000000
00000000
00000000
00000000
7FFFFF00
FFFFFF80
FFFFFF80
FFFFFF80
FFFFFF80
FFFFFF80
FFFFFF80
FFFFFF00
FF800000
FF800000
FF800000
FF800000
FF800000
FF800000
FF800000
FF800000
FF800000
FF800000
FF800000
FF800000
FF800000
FF800000
FF800000
FF800000
FF800000
FFFFFC00
FFFFFC00
FFFFFE00
FFFFFE00
FFFFFE00
FFFFFE00
FFFFFE00
FFFFFC00
FFFFF800
FF800000
FF800000
FF800000
FF800000
FF800000
FF800000
FF800000
FF800000
FF800000
FF800000
FF800000
FF800000
FF800000
FF800000
FF800000
FF800000
FFFFFE00
FFFFFF80
FFFFFF80
FFFFFF80
FFFFFF80
FFFFFF80
FFFFFF80
FFFFFF80
7FFFFF00
ENDCHAR
STARTCHAR ecaron
ENCODING 283
SWIDTH 353 0
DWIDTH 31 0
BBX 25 76 0 0
BITMAP
0FE0FC00
1FF3FE00
1FF3FE00
1FFFFE00
1FFFFE00
0FFFFC00
07FFF800
03FFF800
03FFF000
01FFE000
00FFC000
007F8000
003F0000
00000000
00000000
00000000
00000000
7FFFFF00
FFFFFF80
FFFFFF80
FFFFFF80
FFFFFF80
FFFFFF80
FFFFFF80
FFFFFF00
FF800000
FF800000
FF800000
FF800000
FF800000
FF800000
FF800000
FF800000
FF800000
FF800000
FF800000
FF800000
FF800000
FF800000
FF800000
FF800000
FF800000
FFFFFC00
FFFFFC00
FFFFFE00
FFFFFE00
FFFFFE00
FFFFFE00
FFFFFE00
FFFFFC00
FFFFF800
FF800000
FF800000
FF800000
FF800000
FF800000
FF800000
FF800000
FF800000
FF800000
FF800000
FF800000
FF800000
FF800000
FF800000
FF800000
FF800000
FFFFFE00
FFFFFF80
FFFFFF80
FFFFFF80
FFFFFF80
FFFFFF80
FFFFFF80
FFFFFF80
7FFFFF00
ENDCHAR
STARTCHAR Gcircumflex
ENCODING 284
SWIDTH 402 0
DWIDTH 35 0
BBX 29 76 0 0
BITMAP
001F8000
003FE000
007FE000
007FF000
00FFF800
01FFFC00
03FFFE00
07FFFF00
07FFFF00
0FFFFF80
0FFDFF00
07F8FF00
03F07E00
00000000
00000000
00000000
00000000
007FF000
01FFFC00
07FFFF00
0FFFFF80
1FFFFFC0
1FFFFFC0
3FFFFFE0
3FFFFFF0
7FFDFFF0
7FE03FF0
7FC01FF0
FFC01FF8
FF800FF8
FF800FF8
FF800FF8
FF800FF8
FF800FF8
FF800FF8
FF800FF8
FF8007F8
FF8007F0
FF800000
FF800000
FF800000
FF800000
FF800000
FF800000
FF800000
FF800000
FF80FFE0
FF83FFF0
FF83FFF8
FF87FFF8
FF87FFF8
FF87FFF8
FF83FFF8
FF83FFF8
FF81FFF8
FF800FF8
FF800FF8
FF800FF8
FF800FF8
FF800FF8
FF800FF8
FF800FF8
FF800FF8
FF800FF8
7FC01FF8
7FE01FF0
7FF03FF0
7FFFFFF0
3FFFFFE0
3FFFFFE0
1FFFFFC0
0FFFFFC0
07FFFF80
03FFFE00
01FFFC00
003FE000
ENDCHAR
STARTCHAR gcircumflex
ENCODING 285
SWIDTH 402 0
DWIDTH 35 0
BBX 29 76 0 0
BITMAP
001F8000
003FC000
007FE000
00FFF000
01FFF800
01FFFC00
03FFFC00
07FFFE00
0FFFFF00
0FFFFF00
0FF9FF00
0FF9FF00
03F07E00
00000000
00000000
00000000
00000000
007FF000
01FFFC00
07FFFF00
0FFFFF80
1FFFFFC0
1FFFFFC0
3FFFFFE0
3FFFFFF0
7FFDFFF0
7FE03FF0
7FC01FF0
FFC01FF8
FF800FF8
FF800FF8
FF800FF8
FF800FF8
FF800FF8
FF800FF8
FF800FF8
FF8007F8
FF8007F0
FF800000
FF800000
FF800000
FF800000
FF800000
FF800000
FF800000
FF800000
FF80FFE0
FF83FFF0
FF83FFF8
FF87FFF8
FF87FFF8
FF87FFF8
FF83FFF8
FF83FFF8
FF81FFF8
FF800FF8
FF800FF8
FF800FF8
FF800FF8
FF800FF8
FF800FF8
FF800FF8
FF800FF8
FF800FF8
7FC01FF8
7FE01FF0
7FF03FF0
7FFFFFF0
3FFFFFE0
3FFFFFE0
1FFFFFC0
0FFFFFC0
07FFFF80
03FFFE00
01FFFC00
003FE000
ENDCHAR
STARTCHAR Gbreve
ENCODING 286
SWIDTH 402 0
DWIDTH 35 0
BBX 29 75 0 0
BITMAP
03E07C00
0FF07F00
0FF8FF00
0FFFFF80
0FFFFF00
0FFFFF00
0FFFFF00
07FFFF00
07FFFE00
03FFFC00
00FFF000
001FC000
00000000
00000000
00000000
00000000
007FF000
01FFFC00
07FFFF00
0FFFFF80
1FFFFFC0
1FFFFFC0
3FFFFFE0
3FFFFFF0
7FFDFFF0
7FE03FF0
7FC01FF0
FFC01FF8
FF800FF8
FF800FF8
FF800FF8
FF800FF8
FF800FF8
FF800FF8
FF800FF8
FF8007F8
FF8007F0
FF800000
FF800000
FF800000
FF800000
FF800000
FF800000
FF800000
FF800000
FF80FFE0
FF83FFF0
FF83FFF8
FF87FFF8
FF87FFF8
FF87FFF8
FF83FFF8
FF83FFF8
FF81FFF8
FF800FF8
FF800FF8
FF800FF8
FF800FF8
FF800FF8
FF800FF8
FF800FF8
FF800FF8
FF800FF8
7FC01FF8
7FE01FF0
7FF03FF0
7FFFFFF0
3FFFFFE0
3FFFFFE0
1FFFFFC0
0FFFFFC0
07FFFF80
03FFFE00
01FFFC00
003FE000
ENDCHAR
STARTCHAR gbreve
ENCODING 287
SWIDTH 402 0
DWIDTH 35 0
BBX 29 75 0 0
BITMAP
03E03E00
07F07F00
0FF8FF80
0FFFFF80
0FFFFF80
0FFFFF80
07FFFF00
07FFFF00
03FFFE00
01FFFC00
00FFF800
001FC000
00000000
00000000
00000000
00000000
007FF000
01FFFC00
07FFFF00
0FFFFF80
1FFFFFC0
1FFFFFC0
3FFFFFE0
3FFFFFF0
7FFDFFF0
7FE03FF0
7FC01FF0
FFC01FF8
FF800FF8
FF800FF8
FF800FF8
FF800FF8
FF800FF8
FF800FF8
FF800FF8
FF8007F8
FF8007F0
FF800000
FF800000
FF800000
FF800000
FF800000
FF800000
FF800000
FF800000
FF80FFE0
FF83FFF0
FF83FFF8
FF87FFF8
FF87FFF8
FF87FFF8
FF83FFF8
FF83FFF8
FF81FFF8
FF800FF8
FF800FF8
FF800FF8
FF800FF8
FF800FF8
FF800FF8
FF800FF8
FF800FF8
FF800FF8
7FC01FF8
7FE01FF0
7FF03FF0
7FFFFFF0
3FFFFFE0
3FFFFFE0
1FFFFFC0
0FFFFFC0
07FFFF80
03FFFE00
01FFFC00
003FE000
ENDCHAR
STARTCHAR Gdotaccent
ENCODING 288
SWIDTH 402 0
DWIDTH 35 0
BBX 29 72 0 0
BITMAP
000FC000
001FE000
003FE000
003FE000
003FE000
003FE000
003FE000
001FE000
001FC000
00070000
00000000
00000000
00000000
007FF000
01FFFC00
07FFFF00
0FFFFF80
1FFFFFC0
1FFFFFC0
3FFFFFE0
3FFFFFF0
7FFDFFF0
7FE03FF0
7FC01FF0
FFC01FF8
FF800FF8
FF800FF8
FF800FF8
FF800FF8
FF800FF8
FF800FF8
FF800FF8
FF8007F8
FF8007F0
FF800000
FF800000
FF800000
FF800000
FF800000
FF800000
FF800000
FF800000
FF80FFE0
FF83FFF0
FF83FFF8
FF87FFF8
FF87FFF8
FF87FFF8
FF83FFF8
FF83FFF8
FF81FFF8
FF800FF8
FF800FF8
FF800FF8
FF800FF8
FF800FF8
FF800FF8
FF800FF8
FF800FF8
FF800FF8
7FC01FF8
7FE01FF0
7FF03FF0
7FFFFFF0
3FFFFFE0
3FFFFFE0
1FFFFFC0
0FFFFFC0
07FFFF80
03FFFE00
01FFFC00
003FE000
ENDCHAR
STARTCHAR gdotaccent
ENCODING 289
SWIDTH 402 0
DWIDTH 35 0
BBX 29 72 0 0
BITMAP
000FC000
001FE000
003FE000
003FE000
003FE000
003FE000
003FE000
001FE000
001FC000
00070000
00000000
00000000
00000000
007FF000
01FFFC00
07FFFF00
0FFFFF80
1FFFFFC0
1FFFFFC0
3FFFFFE0
3FFFFFF0
7FFDFFF0
7FE03FF0
7FC01FF0
FFC01FF8
FF800FF8
FF800FF8
FF800FF8
FF800FF8
FF800FF8
FF800FF8
FF800FF8
FF8007F8
FF8007F0
FF800000
FF800000
FF800000
FF800000
FF800000
FF800000
FF800000
FF800000
FF80FFE0
FF83FFF0
FF83FFF8
FF87FFF8
FF87FFF8
FF87FFF8
FF83FFF8
FF83FFF8
FF81FFF8
FF800FF8
FF800FF8
FF800FF8
FF800FF8
FF800FF8
FF800FF8
FF800FF8
FF800FF8
FF800FF8
7FC01FF8
7FE01FF0
7FF03FF0
7FFFFFF0
3FFFFFE0
3FFFFFE0
1FFFFFC0
0FFFFFC0
07FFFF80
03FFFE00
01FFFC00
003FE000
ENDCHAR
STARTCHAR Gcommaaccent
ENCODING 290
SWIDTH 402 0
DWIDTH 35 0
BBX 29 76 0 -17
BITMAP
003FE000
01FFFC00
07FFFF00
0FFFFF80
1FFFFFC0
1FFFFFC0
3FFFFFE0
3FFFFFE0
7FFFFFF0
7FE03FF0
7FC01FF0
FFC01FF8
FF800FF8
FF800FF8
FF800FF8
FF800FF8
FF800FF8
FF800FF8
FF800FF8
FF800FF8
FF8007F0
FF800000
FF800000
FF800000
FF800000
FF800000
FF800000
FF800000
FF800000
FF807FC0
FF81FFF0
FF83FFF8
FF87FFF8
FF87FFF8
FF87FFF8
FF83FFF8
FF83FFF8
FF81FFF8
FF800FF8
FF800FF8
FF800FF8
FF800FF8
FF800FF8
FF800FF8
FF800FF8
FF800FF8
FF800FF8
7FC01FF8
7FC01FF0
7FE03FF0
7FFFFFF0
3FFFFFE0
3FFFFFE0
1FFFFFC0
1FFFFFC0
0FFFFF80
07FFFF00
01FFFC00
007FF000
00000000
00000000
00000000
00000000
000FE000
001FF000
001FF000
001FF000
001FF000
001FF000
001FF000
001FF000
001FF000
001FF000
001FF000
000FE000
0003C000
ENDCHAR
STARTCHAR gcommaaccent
ENCODING 291
SWIDTH 402 0
DWIDTH 35 0
BBX 29 76 0 -17
BITMAP
003FE000
01FFFC00
07FFFF00
0FFFFF80
1FFFFFC0
1FFFFFC0
3FFFFFE0
3FFFFFE0
7FFFFFF0
7FE03FF0
7FC01FF0
FFC01FF8
FF800FF8
FF800FF8
FF800FF8
FF800FF8
FF800FF8
FF800FF8
FF800FF8
FF800FF8
FF8007F0
FF800000
FF800000
FF800000
FF800000
FF800000
FF800000
FF800000
FF800000
FF807FC0
FF81FFF0
FF83FFF8
FF87FFF8
FF87FFF8
FF87FFF8
FF83FFF8
FF83FFF8
FF81FFF8
FF800FF8
FF800FF8
FF800FF8
FF800FF8
FF800FF8
FF800FF8
FF800FF8
FF800FF8
FF800FF8
7FC01FF8
7FC01FF0
7FE03FF0
7FFFFFF0
3FFFFFE0
3FFFFFE0
1FFFFFC0
1FFFFFC0
0FFFFF80
07FFFF00
01FFFC00
007FF000
00000000
00000000
00000000
00000000
000FE000
001FF000
001FF000
001FF000
001FF000
001FF000
001FF000
001FF000
001FF000
001FF000
001FF000
000FE000
0003C000
ENDCHAR
STARTCHAR Hcircumflex
ENCODING 292
SWIDTH 394 0
DWIDTH 35 0
BBX 27 76 0 0
BITMAP
001F8000
007FC000
007FE000
00FFF000
01FFF000
03FFF800
07FFFC00
07FFFE00
0FFFFE00
1FFBFF00
1FFBFF00
0FF1FE00
07E0FC00
00000000
00000000
00000000
00000000
7F000FC0
FF801FE0
FF801FE0
FF801FE0
FF801FE0
FF801FE0
FF801FE0
FF801FE0
FF801FE0
FF801FE0
FF801FE0
FF801FE0
FF801FE0
FF801FE0
FF801FE0
FF801FE0
FF801FE0
FF801FE0
FF801FE0
FF801FE0
FF801FE0
FF801FE0
FF801FE0
FF801FE0
FF801FE0
FFFFFFE0
FFFFFFE0
FFFFFFE0
FFFFFFE0
FFFFFFE0
FFFFFFE0
FFFFFFE0
FFFFFFE0
FFFFFFE0
FF801FE0
FF801FE0
FF801FE0
FF801FE0
FF801FE0
FF801FE0
FF801FE0
FF801FE0
FF801FE0
FF801FE0
FF801FE0
FF801FE0
FF801FE0
FF801FE0
FF801FE0
FF801FE0
FF801FE0
FF801FE0
FF801FE0
FF801FE0
FF801FE0
FF801FE0
FF801FE0
7F001FE0
7E000FC0
ENDCHAR
STARTCHAR hcircumflex
ENCODING 293
SWIDTH 394 0
DWIDTH 35 0
BBX 27 76 0 0
BITMAP
001F8000
007FC000
007FE000
00FFF000
01FFF000
03FFF800
07FFFC00
07FFFE00
0FFFFE00
1FFBFF00
1FFBFF00
0FF1FE00
07E0FC00
00000000
00000000
00000000
00000000
7F000FC0
FF801FE0
FF801FE0
FF801FE0
FF801FE0
FF801FE0
FF801FE0
FF801FE0
FF801FE0
FF801FE0
FF801FE0
FF801FE0
FF801FE0
FF801FE0
FF801FE0
FF801FE0
FF801FE0
FF801FE0
FF801FE0
FF801FE0
FF801FE0
FF801FE0
FF801FE0
FF801FE0
FF801FE0
FFFFFFE0
FFFFFFE0
FFFFFFE0
FFFFFFE0
FFFFFFE0
FFFFFFE0
FFFFFFE0
FFFFFFE0
FFFFFFE0
FF801FE0
FF801FE0
FF801FE0
FF801FE0
FF801FE0
FF801FE0
FF801FE0
FF801FE0
FF801FE0
FF801FE0
FF801FE0
FF801FE0
FF801FE0
FF801FE0
FF801FE0
FF801FE0
FF801FE0
FF801FE0
FF801FE0
FF801FE0
FF801FE0
FF801FE0
FF801FE0
7F001FE0
7E000FC0
ENDCHAR
STARTCHAR Itilde
ENCODING 296
SWIDTH 159 0
DWIDTH 14 0
BBX 28 74 -10 0
BITMAP
01F80000
07FE0000
1FFF1FE0
3FFFFFE0
7FFFFFF0
7FFFFFE0
FFFFFFE0
FFFFFFC0
FFFFFFC0
FF9FFF80
7F0FFF00
0003FC00
00000000
00000000
00000000
001F8000
003FC000
003FE000
003FE000
003FE000
003FE000
003FE000
003FE000
003FE000
003FE000
003FE000
003FE000
003FE000
003FE000
003FE000
003FE000
003FE000
003FE000
003FE000
003FE000
003FE000
003FE000
003FE000
003FE000
003FE000
003FE000
003FE000
003FE000
003FE000
003FE000
003FE000
003FE000
003FE000
003FE000
003FE000
003FE000
003FE000
003FE000
003FE000
003FE000
003FE000
003FE000
003FE000
003FE000
003FE000
003FE000
003FE000
003FE000
003FE000
003FE000
003FE000
003FE000
003FE000
003FE000
003FE000
003FE000
003FC000
003FC000
001F8000
ENDCHAR
STARTCHAR itilde
ENCODING 297
SWIDTH 159 0
DWIDTH 14 0
BBX 28 74 -10 0
BITMAP
01F80000
07FE0000
1FFF1FE0
3FFFFFE0
7FFFFFF0
7FFFFFE0
FFFFFFE0
FFFFFFC0
FFFFFFC0
FF9FFF80
7F0FFF00
0003FC00
00000000
00000000
00000000
001F8000
003FC000
003FE000
003FE000
003FE000
003FE000
003FE000
003FE000
003FE000
003FE000
003FE000
003FE000
003FE000
003FE000
003FE000
003FE000
003FE000
003FE000
003FE000
003FE000
003FE000
003FE000
003FE000
003FE000
003FE000
003FE000
003FE000
003FE000
003FE000
003FE000
003FE000
003FE000
003FE000
003FE000
003FE000
003FE000
003FE000
003FE000
003FE000
003FE000
003FE000
003FE000
003FE000
003FE000
003FE000
003FE000
003FE000
003FE000
003FE000
003FE000
003FE000
003FE000
003FE000
003FE000
003FE000
003FE000
003FC000
003FC000
001F8000
ENDCHAR
STARTCHAR Imacron
ENCODING 298
SWIDTH 159 0
DWIDTH 14 0
BBX 20 72 -6 0
BITMAP
3FFFC0
FFFFE0
FFFFF0
FFFFF0
FFFFF0
FFFFF0
FFFFF0
FFFFE0
7FFFC0
000000
000000
000000
000000
01F800
03FC00
03FE00
03FE00
03FE00
03FE00
03FE00
03FE00
03FE00
03FE00
03FE00
03FE00
03FE00
03FE00
03FE00
03FE00
03FE00
03FE00
03FE00
03FE00
03FE00
03FE00
03FE00
03FE00
03FE00
03FE00
03FE00
03FE00
03FE00
03FE00
03FE00
03FE00
03FE00
03FE00
03FE00
03FE00
03FE00
03FE00
03FE00
03FE00
03FE00
03FE00
03FE00
03FE00
03FE00
03FE00
03FE00
03FE00
03FE00
03FE00
03FE00
03FE00
03FE00
03FE00
03FE00
03FE00
03FC00
03FC00
01F800
ENDCHAR
STARTCHAR imacron
ENCODING 299
SWIDTH 159 0
DWIDTH 14 0
BBX 20 72 -6 0
BITMAP
3FFFC0
FFFFE0
FFFFF0
FFFFF0
FFFFF0
FFFFF0
FFFFF0
FFFFE0
7FFFC0
000000
000000
000000
000000
01F800
03FC00
03FE00
03FE00
03FE00
03FE00
03FE00
03FE00
03FE00
03FE00
03FE00
03FE00
03FE00
03FE00
03FE00
03FE00
03FE00
03FE00
03FE00
03FE00
03FE00
03FE00
03FE00
03FE00
03FE00
03FE00
03FE00
03FE00
03FE00
03FE00
03FE00
03FE00
03FE00
03FE00
03FE00
03FE00
03FE00
03FE00
03FE00
03FE00
03FE00
03FE00
03FE00
03FE00
03FE00
03FE00
03FE00
03FE00
03FE00
03FE00
03FE00
03FE00
03FE00
03FE00
03FE00
03FE00
03FC00
03FC00
01F800
ENDCHAR
STARTCHAR Ibreve
ENCODING 300
SWIDTH 159 0
DWIDTH 14 0
BBX 21 75 -7 0
BITMAP
1F03E0
7F07F8
FF8FF8
FFFFF8
FFFFF8
7FFFF8
7FFFF8
7FFFF0
3FFFE0
1FFFE0
07FF80
01FC00
000000
000000
000000
000000
00FC00
01FE00
01FF00
01FF00
01FF00
01FF00
01FF00
01FF00
01FF00
01FF00
01FF00
01FF00
01FF00
01FF00
01FF00
01FF00
01FF00
01FF00
01FF00
01FF00
01FF00
01FF00
01FF00
01FF00
01FF00
01FF00
01FF00
01FF00
01FF00
01FF00
01FF00
01FF00
01FF00
01FF00
01FF00
01FF00
01FF00
01FF00
01FF00
01FF00
01FF00
01FF00
01FF00
01FF00
01FF00
01FF00
01FF00
01FF00
01FF00
01FF00
01FF00
01FF00
01FF00
01FF00
01FF00
01FF00
01FE00
01FE00
00FC00
ENDCHAR
STARTCHAR ibreve
ENCODING 301
SWIDTH 159 0
DWIDTH 14 0
BBX 21 75 -7 0
BITMAP
1F03E0
7F07F8
FF8FF8
FFFFF8
FFFFF8
7FFFF8
7FFFF8
7FFFF0
3FFFE0
1FFFE0
07FF80
01FC00
000000
000000
000000
000000
00FC00
01FE00
01FF00
01FF00
01FF00
01FF00
01FF00
01FF00
01FF00
01FF00
01FF00
01FF00
01FF00
01FF00
01FF00
01FF00
01FF00
01FF00
01FF00
01FF00
01FF00
01FF00
01FF00
01FF00
01FF00
01FF00
01FF00
01FF00
01FF00
01FF00
01FF00
01FF00
01FF00
01FF00
01FF00
01FF00
01FF00
01FF00
01FF00
01FF00
01FF00
01FF00
01FF00
01FF00
01FF00
01FF00
01FF00
01FF00
01FF00
01FF00
01FF00
01FF00
01FF00
01FF00
01FF00
01FF00
01FE00
01FE00
00FC00
ENDCHAR
STARTCHAR Idotaccent
ENCODING 304
SWIDTH 159 0
DWIDTH 14 0
BBX 9 72 0 0
BITMAP
7E00
FF00
FF80
FF80
FF80
FF80
FF80
FF00
7F00
3C00
0000
0000
0000
7E00
FF00
FF80
FF80
FF80
FF80
FF80
FF80
FF80
FF80
FF80
FF80
FF80
FF80
FF80
FF80
FF80
FF80
FF80
FF80
FF80
FF80
FF80
FF80
FF80
FF80
FF80
FF80
FF80
FF80
FF80
FF80
FF80
FF80
FF80
FF80
FF80
FF80
FF80
FF80
FF80
FF80
FF80
FF80
FF80
FF80
FF80
FF80
FF80
FF80
FF80
FF80
FF80
FF80
FF80
FF80
FF00
FF00
7E00
ENDCHAR
STARTCHAR dotlessi
ENCODING 305
SWIDTH 159 0
DWIDTH 14 0
BBX 8 57 1 0
BITMAP
7E
FF
FF
FF
FF
FF
FF
FF
FF
FF
FF
FF
FF
FF
FF
FF
FF
FF
FF
FF
FF
FF
FF
FF
FF
FF
FF
FF
FF
FF
FF
FF
FF
FF
FF
FF
FF
FF
FF
FF
FF
FF
FF
FF
FF
FF
FF
FF
FF
FF
FF
FF
FF
FF
FF
FF
7E
ENDCHAR
STARTCHAR Jcircumflex
ENCODING 308
SWIDTH 374 0
DWIDTH 33 0
BBX 35 76 -1 0
BITMAP
000007E000
00000FF800
00001FF800
00001FFC00
00003FFE00
00007FFF00
0000FFFF80
0001FFFFC0
0001FFFFC0
0003FF7FE0
0003FF7FE0
0001FE3FC0
0000FC1F80
0000000000
0000000000
0000000000
0000000000
00000FC000
00001FE000
00001FE000
00001FE000
00001FE000
00001FE000
00001FE000
00001FE000
00001FE000
00001FE000
00001FE000
00001FE000
00001FE000
00001FE000
00001FE000
00001FE000
00001FE000
00001FE000
00001FE000
00001FE000
00001FE000
00001FE000
00001FE000
00001FE000
00001FE000
00001FE000
00001FE000
00001FE000
00001FE000
00001FE000
00001FE000
00001FE000
00001FE000
00001FE000
00001FE000
00001FE000
00001FE000
00001FE000
00001FE000
7F001FE000
FF801FE000
FF801FE000
FF801FE000
FF801FE000
FF801FE000
FF801FE000
FF803FE000
7FC03FE000
7FC03FE000
7FE07FE000
7FFFFFC000
3FFFFFC000
3FFFFFC000
1FFFFF8000
1FFFFF0000
0FFFFF0000
07FFFC0000
01FFF80000
007FC00000
ENDCHAR
STARTCHAR jcircumflex
ENCODING 309
SWIDTH 374 0
DWIDTH 33 0
BBX 35 76 -1 0
BITMAP
000007E000
00000FF800
00001FF800
00001FFC00
00003FFE00
00007FFF00
0000FFFF80
0001FFFFC0
0001FFFFC0
0003FF7FE0
0003FF7FE0
0001FE3FC0
0000FC1F80
0000000000
0000000000
0000000000
0000000000
00000FC000
00001FE000
00001FE000
00001FE000
00001FE000
00001FE000
00001FE000
00001FE000
00001FE000
00001FE000
00001FE000
00001FE000
00001FE000
00001FE000
00001FE000
00001FE000
00001FE000
00001FE000
00001FE000
00001FE000
00001FE000
00001FE000
00001FE000
00001FE000
00001FE000
00001FE000
00001FE000
00001FE000
00001FE000
00001FE000
00001FE000
00001FE000
00001FE000
00001FE000
00001FE000
00001FE000
00001FE000
00001FE000
00001FE000
7F001FE000
FF801FE000
FF801FE000
FF801FE000
FF801FE000
FF801FE000
FF801FE000
FF803FE000
7FC03FE000
7FC03FE000
7FE07FE000
7FFFFFC000
3FFFFFC000
3FFFFFC000
1FFFFF8000
1FFFFF0000
0FFFFF0000
07FFFC0000
01FFF80000
007FC00000
ENDCHAR
STARTCHAR Kcommaaccent
ENCODING 310
SWIDTH 388 0
DWIDTH 34 0
BBX 30 75 0 -16
BITMAP
7F0003F8
FF0007FC
FF8007FC
FF800FFC
FF801FFC
FF801FF8
FF803FF8
FF803FF0
FF807FE0
FF80FFE0
FF80FFC0
FF81FFC0
FF81FF80
FF83FF00
FF87FF00
FF87FE00
FF8FFC00
FF9FFC00
FF9FF800
FFBFF800
FFBFF000
FFFFE000
FFFFE000
FFFFC000
FFFFC000
FFFF8000
FFFF0000
FFFF0000
FFFE0000
FFFF0000
FFFF8000
FFFF8000
FFFFC000
FFFFC000
FFFFE000
FFFFE000
FFFFF000
FFBFF800
FF9FF800
FF9FFC00
FF8FFC00
FF87FE00
FF87FE00
FF83FF00
FF83FF00
FF81FF80
FF81FFC0
FF80FFC0
FF807FE0
FF807FE0
FF803FF0
FF803FF0
FF801FF8
FF801FFC
FF800FFC
FF8007FC
FF8007FC
FF0003FC
7E0001F8
00000000
00000000
00000000
00000000
001FC000
003FE000
003FE000
003FE000
003FE000
003FE000
003FE000
003FE000
003FE000
003FE000
003FE000
001FC000
ENDCHAR
STARTCHAR kcommaaccent
ENCODING 311
SWIDTH 388 0
DWIDTH 34 0
BBX 30 75 0 -16
BITMAP
7F0003F8
FF0007FC
FF8007FC
FF800FFC
FF801FFC
FF801FF8
FF803FF8
FF803FF0
FF807FE0
FF80FFE0
FF80FFC0
FF81FFC0
FF81FF80
FF83FF00
FF87FF00
FF87FE00
FF8FFC00
FF9FFC00
FF9FF800
FFBFF800
FFBFF000
FFFFE000
FFFFE000
FFFFC000
FFFFC000
FFFF8000
FFFF0000
FFFF0000
FFFE0000
FFFF0000
FFFF8000
FFFF8000
FFFFC000
FFFFC000
FFFFE000
FFFFE000
FFFFF000
FFBFF800
FF9FF800
FF9FFC00
FF8FFC00
FF87FE00
FF87FE00
FF83FF00
FF83FF00
FF81FF80
FF81FFC0
FF80FFC0
FF807FE0
FF807FE0
FF803FF0
FF803FF0
FF801FF8
FF801FFC
FF800FFC
FF8007FC
FF8007FC
FF0003FC
7E0001F8
00000000
00000000
00000000
00000000
001FC000
003FE000
003FE000
003FE000
003FE000
003FE000
003FE000
003FE000
003FE000
003FE000
003FE000
001FC000
ENDCHAR
STARTCHAR Lacute
ENCODING 313
SWIDTH 335 0
DWIDTH 29 0
BBX 31 76 -6 0
BITMAP
0007C000
003FE000
00FFE000
03FFE000
07FFE000
1FFFC000
3FFF8000
7FFE0000
FFFC0000
FFF00000
FFC00000
FF000000
7C000000
00000000
00000000
00000000
00000000
01F80000
03FC0000
07FC0000
07FC0000
07FC0000
07FC0000
07FC0000
07FC0000
07FC0000
07FC0000
07FC0000
07FC0000
07FC0000
07FC0000
07FC0000
07FC0000
07FC0000
07FC0000
07FC0000
07FC0000
07FC0000
07FC0000
07FC0000
07FC0000
07FC0000
07FC0000
07FC0000
07FC0000
07FC0000
07FC0000
07FC0000
07FC0000
07FC0000
07FC0000
07FC0000
07FC0000
07FC0000
07FC0000
07FC0000
07FC0000
07FC0000
07FC0000
07FC0000
07FC0000
07FC0000
07FC0000
07FC0000
07FC0000
07FC0000
07FC0000
07FFFFF0
07FFFFFC
07FFFFFC
07FFFFFE
07FFFFFE
07FFFFFE
03FFFFFC
03FFFFFC
01FFFFF8
ENDCHAR
STARTCHAR lacute
ENCODING 314
SWIDTH 335 0
DWIDTH 29 0
BBX 31 76 -6 0
BITMAP
0007C000
003FE000
00FFE000
03FFE000
07FFE000
1FFFC000
3FFF8000
7FFE0000
FFFC0000
FFF00000
FFC00000
FF000000
7C000000
00000000
00000000
00000000
00000000
01F80000
03FC0000
07FC0000
07FC0000
07FC0000
07FC0000
07FC0000
07FC0000
07FC0000
07FC0000
07FC0000
07FC0000
07FC0000
07FC0000
07FC0000
07FC0000
07FC0000
07FC0000
07FC0000
07FC0000
07FC0000
07FC0000
07FC0000
07FC0000
07FC0000
07FC0000
07FC0000
07FC0000
07FC0000
07FC0000
07FC0000
07FC0000
07FC0000
07FC0000
07FC0000
07FC0000
07FC0000
07FC0000
07FC0000
07FC0000
07FC0000
07FC0000
07FC0000
07FC0000
07FC0000
07FC0000
07FC0000
07FC0000
07FC0000
07FC0000
07FFFFF0
07FFFFFC
07FFFFFC
07FFFFFE
07FFFFFE
07FFFFFE
03FFFFFC
03FFFFFC
01FFFFF8
ENDCHAR
STARTCHAR Lcommaaccent
ENCODING 315
SWIDTH 335 0
DWIDTH 29 0
BBX 26 75 -1 -16
BITMAP
3F000000
7F800000
FF800000
FF800000
FF800000
FF800000
FF800000
FF800000
FF800000
FF800000
FF800000
FF800000
FF800000
FF800000
FF800000
FF800000
FF800000
FF800000
FF800000
FF800000
FF800000
FF800000
FF800000
FF800000
FF800000
FF800000
FF800000
FF800000
FF800000
FF800000
FF800000
FF800000
FF800000
FF800000
FF800000
FF800000
FF800000
FF800000
FF800000
FF800000
FF800000
FF800000
FF800000
FF800000
FF800000
FF800000
FF800000
FF800000
FF800000
FF800000
FFFFFE00
FFFFFF80
FFFFFF80
FFFFFFC0
FFFFFFC0
FFFFFFC0
7FFFFF80
7FFFFF80
3FFFFF00
00000000
00000000
00000000
00000000
007F0000
007F8000
00FF8000
00FF8000
00FF8000
00FF8000
00FF8000
00FF8000
00FF8000
00FF8000
007F8000
007F0000
ENDCHAR
STARTCHAR lcommaaccent
ENCODING 316
SWIDTH 335 0
DWIDTH 29 0
BBX 26 75 -1 -16
BITMAP
3F000000
7F800000
FF800000
FF800000
FF800000
FF800000
FF800000
FF800000
FF800000
FF800000
FF800000
FF800000
FF800000
FF800000
FF800000
FF800000
FF800000
FF800000
FF800000
FF800000
FF800000
FF800000
FF800000
FF800000
FF800000
FF800000
FF800000
FF800000
FF800000
FF800000
FF800000
FF800000
FF800000
FF800000
FF800000
FF800000
FF800000
FF800000
FF800000
FF800000
FF800000
FF800000
FF800000
FF800000
FF800000
FF800000
FF800000
FF800000
FF800000
FF800000
FFFFFE00
FFFFFF80
FFFFFF80
FFFFFFC0
FFFFFFC0
FFFFFFC0
7FFFFF80
7FFFFF80
3FFFFF00
00000000
00000000
00000000
00000000
007F0000
007F8000
00FF8000
00FF8000
00FF8000
00FF8000
00FF8000
00FF8000
00FF8000
00FF8000
007F8000
007F0000
ENDCHAR
STARTCHAR Lcaron
ENCODING 317
SWIDTH 335 0
DWIDTH 29 0
BBX 31 67 -6 3
BITMAP
3C07C000
FF1FE000
FF9FF000
FFFFF000
FFFFF000
FFFFE000
7FFFC000
3FFF8000
1FFF8000
0FFF0000
0FFE0000
07FE0000
03FE0000
03FE0000
03FE0000
03FE0000
03FE0000
03FE0000
03FE0000
03FE0000
03FE0000
03FE0000
03FE0000
03FE0000
03FE0000
03FE0000
03FE0000
03FE0000
03FE0000
03FE0000
03FE0000
03FE0000
03FE0000
03FE0000
03FE0000
03FE0000
03FE0000
03FE0000
03FE0000
03FE0000
03FE0000
03FE0000
03FE0000
03FE0000
03FE0000
03FE0000
03FE0000
03FE0000
03FE0000
03FE0000
03FE0000
03FE0000
03FE0000
03FE0000
03FE0000
03FE0000
03FE0000
03FE0000
03FFFFF8
03FFFFFC
03FFFFFE
03FFFFFE
03FFFFFE
03FFFFFE
03FFFFFE
03FFFFFC
01FFFFF8
ENDCHAR
STARTCHAR Lslash
ENCODING 321
SWIDTH 414 0
DWIDTH 36 0
BBX 35 59 -6 0
BITMAP
001FC00000
003FE00000
003FE00000
003FE00000
003FE00000
003FE00000
003FE00000
003FE00000
003FE00000
003FE00000
003FE00000
003FE00000
003FE00000
003FE00000
003FE00000
003FE00000
003FE00000
003FE1E000
003FE3F000
003FE7F800
003FEFF800
003FFFFC00
003FFFFC00
003FFFF800
003FFFF800
003FFFF000
003FFFE000
003FFFC000
003FFF8000
003FFF0000
003FFE0000
007FFC0000
00FFF80000
01FFF00000
03FFE00000
07FFE00000
0FFFE00000
1FFFE00000
3FFFE00000
7FFFE00000
FFFFE00000
FFFFE00000
FFFFE00000
FFFFE00000
7FBFE00000
3F3FE00000
1E3FE00000
003FE00000
003FE00000
003FE00000
003FFFFF80
003FFFFFE0
003FFFFFE0
003FFFFFE0
003FFFFFE0
003FFFFFE0
003FFFFFE0
001FFFFFE0
000FFFFFC0
ENDCHAR
STARTCHAR lslash
ENCODING 322
SWIDTH 414 0
DWIDTH 36 0
BBX 34 57 -6 0
BITMAP
001FC00000
003FE00000
003FE00000
003FE00000
003FE00000
003FE00000
003FE00000
003FE00000
003FE00000
003FE00000
003FE00000
003FE00000
003FE00000
003FE00000
003FE00000
003FE00000
003FE0C000
003FE3E000
003FE7F000
003FEFF800
003FFFF800
003FFFF800
003FFFF800
003FFFF000
003FFFE000
003FFFC000
003FFF8000
003FFF0000
003FFE0000
003FFC0000
007FF80000
00FFF00000
01FFE00000
03FFE00000
07FFE00000
0FFFE00000
1FFFE00000
3FFFE00000
7FFFE00000
7FFFE00000
FFFFE00000
FFFFE00000
7FBFE00000
3F3FE00000
1E3FE00000
003FE00000
003FE00000
003FE00000
003FFFFF00
003FFFFFC0
003FFFFFC0
003FFFFFC0
003FFFFFC0
003FFFFFC0
003FFFFFC0
001FFFFFC0
000FFFFF80
ENDCHAR
STARTCHAR Nacute
ENCODING 323
SWIDTH 410 0
DWIDTH 36 0
BBX 29 76 0 0
BITMAP
00003C00
0001FE00
0007FF00
001FFF00
003FFF00
00FFFE00
01FFFC00
07FFF000
07FFE000
0FFF8000
0FFE0000
07F80000
03C00000
00000000
00000000
00000000
00000000
7E0007F0
FF0007F8
FF800FF8
FF800FF8
FF800FF8
FFC00FF8
FFC00FF8
FFE00FF8
FFE00FF8
FFE00FF8
FFF00FF8
FFF00FF8
FFF80FF8
FFF80FF8
FFF80FF8
FFFC0FF8
FFFC0FF8
FFFE0FF8
FFFE0FF8
FFFE0FF8
FFFF0FF8
FFFF0FF8
FFFF8FF8
FFFF8FF8
FFFF8FF8
FFFFCFF8
FFFFCFF8
FFFFEFF8
FFBFEFF8
FFBFEFF8
FFBFFFF8
FF9FFFF8
FF9FFFF8
FF8FFFF8
FF8FFFF8
FF8FFFF8
FF87FFF8
FF87FFF8
FF83FFF8
FF83FFF8
FF83FFF8
FF81FFF8
FF81FFF8
FF80FFF8
FF80FFF8
FF80FFF8
FF807FF8
FF807FF8
FF803FF8
FF803FF8
FF803FF8
FF801FF8
FF801FF8
FF800FF8
FF800FF8
FF800FF8
FF8007F8
FF0007F8
7E0003F0
ENDCHAR
STARTCHAR nacute
ENCODING 324
SWIDTH 410 0
DWIDTH 36 0
BBX 29 76 0 0
BITMAP
00003C00
0001FE00
0007FF00
001FFF00
003FFF00
00FFFE00
01FFFC00
07FFF000
07FFE000
0FFF8000
0FFE0000
07F80000
03C00000
00000000
00000000
00000000
00000000
7E0007F0
FF0007F8
FF800FF8
FF800FF8
FF800FF8
FFC00FF8
FFC00FF8
FFE00FF8
FFE00FF8
FFE00FF8
FFF00FF8
FFF00FF8
FFF80FF8
FFF80FF8
FFF80FF8
FFFC0FF8
FFFC0FF8
FFFE0FF8
FFFE0FF8
FFFE0FF8
FFFF0FF8
FFFF0FF8
FFFF8FF8
FFFF8FF8
FFFF8FF8
FFFFCFF8
FFFFCFF8
FFFFEFF8
FFBFEFF8
FFBFEFF8
FFBFFFF8
FF9FFFF8
FF9FFFF8
FF8FFFF8
FF8FFFF8
FF8FFFF8
FF87FFF8
FF87FFF8
FF83FFF8
FF83FFF8
FF83FFF8
FF81FFF8
FF81FFF8
FF80FFF8
FF80FFF8
FF80FFF8
FF807FF8
FF807FF8
FF803FF8
FF803FF8
FF803FF8
FF801FF8
FF801FF8
FF800FF8
FF800FF8
FF800FF8
FF8007F8
FF0007F8
7E0003F0
ENDCHAR
STARTCHAR Ncommaaccent
ENCODING 325
SWIDTH 410 0
DWIDTH 36 0
BBX 29 75 0 -16
BITMAP
7E0007F0
FF0007F8
FF800FF8
FF800FF8
FF800FF8
FFC00FF8
FFC00FF8
FFE00FF8
FFE00FF8
FFE00FF8
FFF00FF8
FFF00FF8
FFF80FF8
FFF80FF8
FFF80FF8
FFFC0FF8
FFFC0FF8
FFFE0FF8
FFFE0FF8
FFFE0FF8
FFFF0FF8
FFFF0FF8
FFFF8FF8
FFFF8FF8
FFFF8FF8
FFFFCFF8
FFFFCFF8
FFFFEFF8
FFBFEFF8
FFBFEFF8
FFBFFFF8
FF9FFFF8
FF9FFFF8
FF8FFFF8
FF8FFFF8
FF8FFFF8
FF87FFF8
FF87FFF8
FF83FFF8
FF83FFF8
FF83FFF8
FF81FFF8
FF81FFF8
FF80FFF8
FF80FFF8
FF80FFF8
FF807FF8
FF807FF8
FF803FF8
FF803FF8
FF803FF8
FF801FF8
FF801FF8
FF800FF8
FF800FF8
FF800FF8
FF8007F8
FF0007F8
7E0003F0
00000000
00000000
00000000
00000000
000FE000
000FF000
000FF000
000FF000
000FF000
000FF000
000FF000
000FF000
000FF000
000FF000
000FF000
000FE000
ENDCHAR
STARTCHAR ncommaaccent
ENCODING 326
SWIDTH 410 0
DWIDTH 36 0
BBX 29 75 0 -16
BITMAP
7E0007F0
FF0007F8
FF800FF8
FF800FF8
FF800FF8
FFC00FF8
FFC00FF8
FFE00FF8
FFE00FF8
FFE00FF8
FFF00FF8
FFF00FF8
FFF80FF8
FFF80FF8
FFF80FF8
FFFC0FF8
FFFC0FF8
FFFE0FF8
FFFE0FF8
FFFE0FF8
FFFF0FF8
FFFF0FF8
FFFF8FF8
FFFF8FF8
FFFF8FF8
FFFFCFF8
FFFFCFF8
FFFFEFF8
FFBFEFF8
FFBFEFF8
FFBFFFF8
FF9FFFF8
FF9FFFF8
FF8FFFF8
FF8FFFF8
FF8FFFF8
FF87FFF8
FF87FFF8
FF83FFF8
FF83FFF8
FF83FFF8
FF81FFF8
FF81FFF8
FF80FFF8
FF80FFF8
FF80FFF8
FF807FF8
FF807FF8
FF803FF8
FF803FF8
FF803FF8
FF801FF8
FF801FF8
FF800FF8
FF800FF8
FF800FF8
FF8007F8
FF0007F8
7E0003F0
00000000
00000000
00000000
00000000
000FE000
000FF000
000FF000
000FF000
000FF000
000FF000
000FF000
000FF000
000FF000
000FF000
000FF000
000FE000
ENDCHAR
STARTCHAR Ncaron
ENCODING 327
SWIDTH 410 0
DWIDTH 36 0
BBX 29 76 0 0
BITMAP
03F07E00
07F8FF00
0FFDFF80
0FFDFF80
07FFFF00
07FFFF00
03FFFE00
01FFFC00
00FFF800
007FF000
003FF000
003FE000
000F8000
00000000
00000000
00000000
00000000
7E0007F0
FF0007F8
FF800FF8
FF800FF8
FF800FF8
FFC00FF8
FFC00FF8
FFE00FF8
FFE00FF8
FFE00FF8
FFF00FF8
FFF00FF8
FFF80FF8
FFF80FF8
FFF80FF8
FFFC0FF8
FFFC0FF8
FFFE0FF8
FFFE0FF8
FFFE0FF8
FFFF0FF8
FFFF0FF8
FFFF8FF8
FFFF8FF8
FFFF8FF8
FFFFCFF8
FFFFCFF8
FFFFEFF8
FFBFEFF8
FFBFEFF8
FFBFFFF8
FF9FFFF8
FF9FFFF8
FF8FFFF8
FF8FFFF8
FF8FFFF8
FF87FFF8
FF87FFF8
FF83FFF8
FF83FFF8
FF83FFF8
FF81FFF8
FF81FFF8
FF80FFF8
FF80FFF8
FF80FFF8
FF807FF8
FF807FF8
FF803FF8
FF803FF8
FF803FF8
FF801FF8
FF801FF8
FF800FF8
FF800FF8
FF800FF8
FF8007F8
FF0007F8
7E0003F0
ENDCHAR
STARTCHAR ncaron
ENCODING 328
SWIDTH 410 0
DWIDTH 36 0
BBX 29 76 0 0
BITMAP
03F07E00
07F8FF00
0FFDFF80
0FFDFF80
07FFFF00
07FFFF00
03FFFE00
01FFFC00
00FFF800
007FF000
003FF000
003FE000
000F8000
00000000
00000000
00000000
00000000
7E0007F0
FF0007F8
FF800FF8
FF800FF8
FF800FF8
FFC00FF8
FFC00FF8
FFE00FF8
FFE00FF8
FFE00FF8
FFF00FF8
FFF00FF8
FFF80FF8
FFF80FF8
FFF80FF8
FFFC0FF8
FFFC0FF8
FFFE0FF8
FFFE0FF8
FFFE0FF8
FFFF0FF8
FFFF0FF8
FFFF8FF8
FFFF8FF8
FFFF8FF8
FFFFCFF8
FFFFCFF8
FFFFEFF8
FFBFEFF8
FFBFEFF8
FFBFFFF8
FF9FFFF8
FF9FFFF8
FF8FFFF8
FF8FFFF8
FF8FFFF8
FF87FFF8
FF87FFF8
FF83FFF8
FF83FFF8
FF83FFF8
FF81FFF8
FF81FFF8
FF80FFF8
FF80FFF8
FF80FFF8
FF807FF8
FF807FF8
FF803FF8
FF803FF8
FF803FF8
FF801FF8
FF801FF8
FF800FF8
FF800FF8
FF800FF8
FF8007F8
FF0007F8
7E0003F0
ENDCHAR
STARTCHAR Omacron
ENCODING 332
SWIDTH 406 0
DWIDTH 36 0
BBX 29 72 0 0
BITMAP
03FFFC00
07FFFF00
0FFFFF00
0FFFFF00
0FFFFF00
0FFFFF00
0FFFFF00
07FFFF00
03FFFE00
00000000
00000000
00000000
00000000
007FF000
01FFFC00
07FFFF00
0FFFFF80
1FFFFFC0
1FFFFFC0
3FFFFFE0
3FFFFFE0
7FFDFFF0
7FE03FF0
7FC01FF0
FFC01FF0
FF800FF8
FF800FF8
FF800FF8
FF800FF8
FF800FF8
FF800FF8
FF800FF8
FF800FF8
FF800FF8
FF800FF8
FF800FF8
FF800FF8
FF800FF8
FF800FF8
FF800FF8
FF800FF8
FF800FF8
FF800FF8
FF800FF8
FF800FF8
FF800FF8
FF800FF8
FF800FF8
FF800FF8
FF800FF8
FF800FF8
FF800FF8
FF800FF8
FF800FF8
FF800FF8
FF800FF8
FF800FF8
FF800FF8
FF800FF8
FF800FF8
7FC01FF0
7FC01FF0
7FF07FF0
7FFFFFF0
3FFFFFE0
3FFFFFE0
1FFFFFC0
0FFFFF80
07FFFF00
03FFFE00
00FFFC00
003FE000
ENDCHAR
STARTCHAR omacron
ENCODING 333
SWIDTH 406 0
DWIDTH 36 0
BBX 29 72 0 0
BITMAP
03FFFC00
07FFFF00
0FFFFF00
0FFFFF00
0FFFFF00
0FFFFF00
0FFFFF00
07FFFF00
03FFFE00
00000000
00000000
00000000
00000000
007FF000
01FFFC00
07FFFF00
0FFFFF80
1FFFFFC0
1FFFFFC0
3FFFFFE0
3FFFFFE0
7FFDFFF0
7FE03FF0
7FC01FF0
FFC01FF0
FF800FF8
FF800FF8
FF800FF8
FF800FF8
FF800FF8
FF800FF8
FF800FF8
FF800FF8
FF800FF8
FF800FF8
FF800FF8
FF800FF8
FF800FF8
FF800FF8
FF800FF8
FF800FF8
FF800FF8
FF800FF8
FF800FF8
FF800FF8
FF800FF8
FF800FF8
FF800FF8
FF800FF8
FF800FF8
FF800FF8
FF800FF8
FF800FF8
FF800FF8
FF800FF8
FF800FF8
FF800FF8
FF800FF8
FF800FF8
FF800FF8
7FC01FF0
7FC01FF0
7FF07FF0
7FFFFFF0
3FFFFFE0
3FFFFFE0
1FFFFFC0
0FFFFF80
07FFFF00
03FFFE00
00FFFC00
003FE000
ENDCHAR
STARTCHAR Obreve
ENCODING 334
SWIDTH 406 0
DWIDTH 36 0
BBX 29 75 0 0
BITMAP
03E03C00
07F07F00
0FF8FF80
0FFFFF80
0FFFFF80
0FFFFF00
0FFFFF00
07FFFF00
03FFFE00
01FFFC00
00FFF800
001FC000
00000000
00000000
00000000
00000000
007FF000
01FFFC00
07FFFF00
0FFFFF80
1FFFFFC0
1FFFFFC0
3FFFFFE0
3FFFFFE0
7FFDFFF0
7FE03FF0
7FC01FF0
FFC01FF0
FF800FF8
FF800FF8
FF800FF8
FF800FF8
FF800FF8
FF800FF8
FF800FF8
FF800FF8
FF800FF8
FF800FF8
FF800FF8
FF800FF8
FF800FF8
FF800FF8
FF800FF8
FF800FF8
FF800FF8
FF800FF8
FF800FF8
FF800FF8
FF800FF8
FF800FF8
FF800FF8
FF800FF8
FF800FF8
FF800FF8
FF800FF8
FF800FF8
FF800FF8
FF800FF8
FF800FF8
FF800FF8
FF800FF8
FF800FF8
FF800FF8
7FC01FF0
7FC01FF0
7FF07FF0
7FFFFFF0
3FFFFFE0
3FFFFFE0
1FFFFFC0
0FFFFF80
07FFFF00
03FFFE00
00FFFC00
003FE000
ENDCHAR
STARTCHAR obreve
ENCODING 335
SWIDTH 406 0
DWIDTH 36 0
BBX 29 75 0 0
BITMAP
03E03C00
07F07F00
0FF8FF80
0FFFFF80
0FFFFF80
0FFFFF00
0FFFFF00
07FFFF00
03FFFE00
01FFFC00
00FFF800
001FC000
00000000
00000000
00000000
00000000
007FF000
01FFFC00
07FFFF00
0FFFFF80
1FFFFFC0
1FFFFFC0
3FFFFFE0
3FFFFFE0
7FFDFFF0
7FE03FF0
7FC01FF0
FFC01FF0
FF800FF8
FF800FF8
FF800FF8
FF800FF8
FF800FF8
FF800FF8
FF800FF8
FF800FF8
FF800FF8
FF800FF8
FF800FF8
FF800FF8
FF800FF8
FF800FF8
FF800FF8
FF800FF8
FF800FF8
FF800FF8
FF800FF8
FF800FF8
FF800FF8
FF800FF8
FF800FF8
FF800FF8
FF800FF8
FF800FF8
FF800FF8
FF800FF8
FF800FF8
FF800FF8
FF800FF8
FF800FF8
FF800FF8
FF800FF8
FF800FF8
7FC01FF0
7FC01FF0
7FF07FF0
7FFFFFF0
3FFFFFE0
3FFFFFE0
1FFFFFC0
0FFFFF80
07FFFF00
03FFFE00
00FFFC00
003FE000
ENDCHAR
STARTCHAR OE
ENCODING 338
SWIDTH 544 0
DWIDTH 48 0
BBX 40 59 0 0
BITMAP
0007FFFFFE
003FFFFFFF
007FFFFFFF
01FFFFFFFF
03FFFFFFFF
07FFFFFFFF
0FFFFFFFFF
0FFFFFFFFE
1FFFFF0000
1FFDFF0000
3FF9FF0000
3FF1FF0000
7FE1FF0000
7FC1FF0000
7FC1FF0000
7FC1FF0000
7F81FF0000
FF81FF0000
FF81FF0000
FF81FF0000
FF81FF0000
FF81FF0000
FF81FF0000
FF81FF0000
FF81FF0000
FF81FFFFFE
FF81FFFFFF
FF81FFFFFF
FF81FFFFFF
FF81FFFFFF
FF81FFFFFF
FF81FFFFFF
FF81FFFFFE
FF81FFFFFC
FF81FF0000
FF81FF0000
FF81FF0000
FF81FF0000
FF81FF0000
FF81FF0000
FF81FF0000
7F81FF0000
7F81FF0000
7FC1FF0000
7FC1FF0000
7FC1FF0000
7FE1FF0000
3FF1FF0000
3FF9FF0000
3FFDFF0000
1FFFFFFFFC
1FFFFFFFFE
0FFFFFFFFF
07FFFFFFFF
03FFFFFFFF
01FFFFFFFF
00FFFFFFFF
003FFFFFFF
0007FFFFFE
ENDCHAR
STARTCHAR oe
ENCODING 339
SWIDTH 544 0
DWIDTH 48 0
BBX 38 57 1 0
BITMAP
000FFFFFF8
003FFFFFFC
00FFFFFFFC
03FFFFFFFC
07FFFFFFFC
0FFFFFFFFC
0FFFFFFFFC
1FFFFFFFF8
3FFFFC0000
3FFBFC0000
7FE3FC0000
7FC3FC0000
FFC3FC0000
FF83FC0000
FF83FC0000
FF03FC0000
FF03FC0000
FF03FC0000
FF03FC0000
FF03FC0000
FF03FC0000
FF03FC0000
FF03FC0000
FF03FC0000
FF03FFFFF0
FF03FFFFFC
FF03FFFFFC
FF03FFFFFC
FF03FFFFFC
FF03FFFFFC
FF03FFFFFC
FF03FFFFF8
FF03FFFFE0
FF03FC0000
FF03FC0000
FF03FC0000
FF03FC0000
FF03FC0000
FF03FC0000
FF03FC0000
FF03FC0000
FF83FC0000
FF83FC0000
FF83FC0000
FFC3FC0000
7FC3FC0000
7FE3FC0000
7FFBFC0000
3FFFFC0000
3FFFFFFFF8
1FFFFFFFFC
0FFFFFFFFC
07FFFFFFFC
03FFFFFFFC
01FFFFFFFC
007FFFFFFC
000FFFFFF8
ENDCHAR
STARTCHAR Racute
ENCODING 340
SWIDTH 398 0
DWIDTH 35 0
BBX 29 76 0 0
BITMAP
00000800
0000FE00
0007FE00
000FFF00
003FFF00
00FFFE00
01FFFC00
03FFF000
07FFE000
0FFF8000
0FFF0000
0FFC0000
07E00000
00000000
00000000
00000000
00000000
3FFFE000
7FFFFC00
FFFFFF00
FFFFFF80
FFFFFFC0
FFFFFFE0
FFFFFFE0
FFFFFFF0
FFFFFFF0
FF803FF0
FF801FF0
FF801FF8
FF800FF8
FF800FF8
FF800FF8
FF800FF8
FF800FF8
FF800FF8
FF800FF8
FF800FF8
FF800FF8
FF800FF8
FF801FF8
FF801FF0
FF807FF0
FF83FFF0
FFFFFFF0
FFFFFFE0
FFFFFFC0
FFFFFFC0
FFFFFF80
FFFFFF80
FFFFFFC0
FFFFFFE0
FFFFFFE0
FF807FF0
FF803FF0
FF801FF0
FF801FF0
FF801FF0
FF800FF0
FF800FF0
FF800FF0
FF800FF0
FF800FF0
FF800FF0
FF800FF0
FF800FF0
FF800FF0
FF800FF0
FF800FF0
FF800FF0
FF800FF0
FF800FF0
FF800FF0
FF800FF0
FF800FF0
FF800FF0
7F0007E0
ENDCHAR
STARTCHAR racute
ENCODING 341
SWIDTH 398 0
DWIDTH 35 0
BBX 29 76 0 0
BITMAP
00000800
0000FE00
0007FE00
000FFF00
003FFF00
00FFFE00
01FFFC00
03FFF000
07FFE000
0FFF8000
0FFF0000
0FFC0000
07E00000
00000000
00000000
00000000
00000000
3FFFE000
7FFFFC00
FFFFFF00
FFFFFF80
FFFFFFC0
FFFFFFE0
FFFFFFE0
FFFFFFF0
FFFFFFF0
FF803FF0
FF801FF0
FF801FF8
FF800FF8
FF800FF8
FF800FF8
FF800FF8
FF800FF8
FF800FF8
FF800FF8
FF800FF8
FF800FF8
FF800FF8
FF801FF8
FF801FF0
FF807FF0
FF83FFF0
FFFFFFF0
FFFFFFE0
FFFFFFC0
FFFFFFC0
FFFFFF80
FFFFFF80
FFFFFFC0
FFFFFFE0
FFFFFFE0
FF807FF0
FF803FF0
FF801FF0
FF801FF0
FF801FF0
FF800FF0
FF800FF0
FF800FF0
FF800FF0
FF800FF0
FF800FF0
FF800FF0
FF800FF0
FF800FF0
FF800FF0
FF800FF0
FF800FF0
FF800FF0
FF800FF0
FF800FF0
FF800FF0
FF800FF0
FF800FF0
7F0007E0
ENDCHAR
STARTCHAR Rcommaaccent
ENCODING 342
SWIDTH 398 0
DWIDTH 35 0
BBX 29 76 0 -17
BITMAP
3FFFE000
7FFFFC00
FFFFFF00
FFFFFF80
FFFFFFC0
FFFFFFE0
FFFFFFE0
FFFFFFF0
FFFFFFF0
FF803FF0
FF801FF0
FF801FF8
FF800FF8
FF800FF8
FF800FF8
FF800FF8
FF800FF8
FF800FF8
FF800FF8
FF800FF8
FF800FF8
FF800FF8
FF801FF8
FF801FF0
FF807FF0
FF83FFF0
FFFFFFF0
FFFFFFE0
FFFFFFC0
FFFFFFC0
FFFFFF80
FFFFFF80
FFFFFFC0
FFFFFFE0
FFFFFFE0
FF807FF0
FF803FF0
FF801FF0
FF801FF0
FF801FF0
FF800FF0
FF800FF0
FF800FF0
FF800FF0
FF800FF0
FF800FF0
FF800FF0
FF800FF0
FF800FF0
FF800FF0
FF800FF0
FF800FF0
FF800FF0
FF800FF0
FF800FF0
FF800FF0
FF800FF0
FF800FF0
7F0007E0
00000000
00000000
00000000
00000000
001F8000
003FC000
003FE000
003FE000
003FE000
003FE000
003FE000
003FE000
003FE000
003FE000
003FE000
003FC000
000F8000
ENDCHAR
STARTCHAR rcommaaccent
ENCODING 343
SWIDTH 398 0
DWIDTH 35 0
BBX 29 76 0 -17
BITMAP
3FFFE000
7FFFFC00
FFFFFF00
FFFFFF80
FFFFFFC0
FFFFFFE0
FFFFFFE0
FFFFFFF0
FFFFFFF0
FF803FF0
FF801FF0
FF801FF8
FF800FF8
FF800FF8
FF800FF8
FF800FF8
FF800FF8
FF800FF8
FF800FF8
FF800FF8
FF800FF8
FF800FF8
FF801FF8
FF801FF0
FF807FF0
FF83FFF0
FFFFFFF0
FFFFFFE0
FFFFFFC0
FFFFFFC0
FFFFFF80
FFFFFF80
FFFFFFC0
FFFFFFE0
FFFFFFE0
FF807FF0
FF803FF0
FF801FF0
FF801FF0
FF801FF0
FF800FF0
FF800FF0
FF800FF0
FF800FF0
FF800FF0
FF800FF0
FF800FF0
FF800FF0
FF800FF0
FF800FF0
FF800FF0
FF800FF0
FF800FF0
FF800FF0
FF800FF0
FF800FF0
FF800FF0
FF800FF0
7F0007E0
00000000
00000000
00000000
00000000
001F8000
003FC000
003FE000
003FE000
003FE000
003FE000
003FE000
003FE000
003FE000
003FE000
003FE000
003FC000
000F8000
ENDCHAR
STARTCHAR Rcaron
ENCODING 344
SWIDTH 398 0
DWIDTH 35 0
BBX 29 76 0 0
BITMAP
07807000
1FE1FC00
1FF3FE00
1FF7FE00
1FFFFE00
1FFFFC00
0FFFF800
07FFF800
03FFF000
01FFE000
00FFC000
00FF8000
007F0000
00000000
00000000
00000000
00000000
3FFFE000
7FFFFC00
FFFFFF00
FFFFFF80
FFFFFFC0
FFFFFFE0
FFFFFFE0
FFFFFFF0
FFFFFFF0
FF803FF0
FF801FF0
FF801FF8
FF800FF8
FF800FF8
FF800FF8
FF800FF8
FF800FF8
FF800FF8
FF800FF8
FF800FF8
FF800FF8
FF800FF8
FF801FF8
FF801FF0
FF807FF0
FF83FFF0
FFFFFFF0
FFFFFFE0
FFFFFFC0
FFFFFFC0
FFFFFF80
FFFFFF80
FFFFFFC0
FFFFFFE0
FFFFFFE0
FF807FF0
FF803FF0
FF801FF0
FF801FF0
FF801FF0
FF800FF0
FF800FF0
FF800FF0
FF800FF0
FF800FF0
FF800FF0
FF800FF0
FF800FF0
FF800FF0
FF800FF0
FF800FF0
FF800FF0
FF800FF0
FF800FF0
FF800FF0
FF800FF0
FF800FF0
FF800FF0
7F0007E0
ENDCHAR
STARTCHAR rcaron
ENCODING 345
SWIDTH 398 0
DWIDTH 35 0
BBX 29 76 0 0
BITMAP
07807000
1FE1FC00
1FF3FE00
1FF7FE00
1FFFFE00
1FFFFC00
0FFFF800
07FFF800
03FFF000
01FFE000
00FFC000
00FF8000
007F0000
00000000
00000000
00000000
00000000
3FFFE000
7FFFFC00
FFFFFF00
FFFFFF80
FFFFFFC0
FFFFFFE0
FFFFFFE0
FFFFFFF0
FFFFFFF0
FF803FF0
FF801FF0
FF801FF8
FF800FF8
FF800FF8
FF800FF8
FF800FF8
FF800FF8
FF800FF8
FF800FF8
FF800FF8
FF800FF8
FF800FF8
FF801FF8
FF801FF0
FF807FF0
FF83FFF0
FFFFFFF0
FFFFFFE0
FFFFFFC0
FFFFFFC0
FFFFFF80
FFFFFF80
FFFFFFC0
FFFFFFE0
FFFFFFE0
FF807FF0
FF803FF0
FF801FF0
FF801FF0
FF801FF0
FF800FF0
FF800FF0
FF800FF0
FF800FF0
FF800FF0
FF800FF0
FF800FF0
FF800FF0
FF800FF0
FF800FF0
FF800FF0
FF800FF0
FF800FF0
FF800FF0
FF800FF0
FF800FF0
FF800FF0
FF800FF0
7F0007E0
ENDCHAR
STARTCHAR Sacute
ENCODING 346
SWIDTH 398 0
DWIDTH 35 0
BBX 29 75 0 0
BITMAP
0000FE00
0003FF00
000FFF00
003FFF00
007FFE00
01FFFC00
03FFF800
07FFE000
0FFFC000
0FFF0000
07FC0000
07E00000
00000000
00000000
00000000
00000000
003FE000
01FFFC00
03FFFE00
0FFFFF80
1FFFFF80
1FFFFFC0
3FFFFFE0
3FFFFFE0
7FFFFFF0
7FF07FF0
7FC01FF0
FFC01FF8
FF800FF8
FF800FF8
FF800FF8
FF800FF8
FF800FF8
FF800FF8
FFC00FF8
FFC00FF8
7FE007F0
7FF001E0
7FF80000
3FFC0000
1FFE0000
1FFF0000
0FFF8000
07FFC000
03FFF000
01FFF800
00FFFC00
007FFE00
003FFF00
000FFF80
0007FFC0
0003FFE0
0001FFE0
00007FF0
7F003FF0
FF003FF0
FF801FF8
FF800FF8
FF800FF8
FF800FF8
FF800FF8
FF800FF8
FF800FF8
FFC00FF8
7FC01FF8
7FE03FF8
7FFDFFF0
3FFFFFF0
3FFFFFE0
1FFFFFE0
1FFFFFC0
0FFFFF80
07FFFF00
01FFFE00
007FF000
ENDCHAR
STARTCHAR sacute
ENCODING 347
SWIDTH 398 0
DWIDTH 35 0
BBX 29 75 0 0
BITMAP
0000FE00
0003FF00
000FFF00
003FFF00
007FFE00
01FFFC00
03FFF800
07FFE000
0FFFC000
0FFF0000
07FC0000
07E00000
00000000
00000000
00000000
00000000
003FE000
01FFFC00
03FFFE00
0FFFFF80
1FFFFF80
1FFFFFC0
3FFFFFE0
3FFFFFE0
7FFFFFF0
7FF07FF0
7FC01FF0
FFC01FF8
FF800FF8
FF800FF8
FF800FF8
FF800FF8
FF800FF8
FF800FF8
FFC00FF8
FFC00FF8
7FE007F0
7FF001E0
7FF80000
3FFC0000
1FFE0000
1FFF0000
0FFF8000
07FFC000
03FFF000
01FFF800
00FFFC00
007FFE00
003FFF00
000FFF80
0007FFC0
0003FFE0
0001FFE0
00007FF0
7F003FF0
FF003FF0
FF801FF8
FF800FF8
FF800FF8
FF800FF8
FF800FF8
FF800FF8
FF800FF8
FFC00FF8
7FC01FF8
7FE03FF8
7FFDFFF0
3FFFFFF0
3FFFFFE0
1FFFFFE0
1FFFFFC0
0FFFFF80
07FFFF00
01FFFE00
007FF000
ENDCHAR
STARTCHAR Scircumflex
ENCODING 348
SWIDTH 398 0
DWIDTH 35 0
BBX 29 76 0 0
BITMAP
00070000
001FC000
003FE000
007FF000
00FFF800
01FFFC00
01FFFE00
03FFFE00
07FFFF00
07FFFF80
0FFDFF80
07FCFF80
07F8FF00
00000000
00000000
00000000
00000000
003FE000
01FFFC00
03FFFE00
0FFFFF80
1FFFFF80
1FFFFFC0
3FFFFFE0
3FFFFFE0
7FFFFFF0
7FF07FF0
7FC01FF0
FFC01FF8
FF800FF8
FF800FF8
FF800FF8
FF800FF8
FF800FF8
FF800FF8
FFC00FF8
FFC00FF8
7FE007F0
7FF001E0
7FF80000
3FFC0000
1FFE0000
1FFF0000
0FFF8000
07FFC000
03FFF000
01FFF800
00FFFC00
007FFE00
003FFF00
000FFF80
0007FFC0
0003FFE0
0001FFE0
00007FF0
7F003FF0
FF003FF0
FF801FF8
FF800FF8
FF800FF8
FF800FF8
FF800FF8
FF800FF8
FF800FF8
FFC00FF8
7FC01FF8
7FE03FF8
7FFDFFF0
3FFFFFF0
3FFFFFE0
1FFFFFE0
1FFFFFC0
0FFFFF80
07FFFF00
01FFFE00
007FF000
ENDCHAR
STARTCHAR scircumflex
ENCODING 349
SWIDTH 398 0
DWIDTH 35 0
BBX 29 76 0 0
BITMAP
00070000
001FC000
003FE000
007FF000
00FFF800
01FFFC00
01FFFE00
03FFFE00
07FFFF00
07FFFF80
0FFDFF80
07FCFF80
07F8FF00
00000000
00000000
00000000
00000000
003FE000
01FFFC00
03FFFE00
0FFFFF80
1FFFFF80
1FFFFFC0
3FFFFFE0
3FFFFFE0
7FFFFFF0
7FF07FF0
7FC01FF0
FFC01FF8
FF800FF8
FF800FF8
FF800FF8
FF800FF8
FF800FF8
FF800FF8
FFC00FF8
FFC00FF8
7FE007F0
7FF001E0
7FF80000
3FFC0000
1FFE0000
1FFF0000
0FFF8000
07FFC000
03FFF000
01FFF800
00FFFC00
007FFE00
003FFF00
000FFF80
0007FFC0
0003FFE0
0001FFE0
00007FF0
7F003FF0
FF003FF0
FF801FF8
FF800FF8
FF800FF8
FF800FF8
FF800FF8
FF800FF8
FF800FF8
FFC00FF8
7FC01FF8
7FE03FF8
7FFDFFF0
3FFFFFF0
3FFFFFE0
1FFFFFE0
1FFFFFC0
0FFFFF80
07FFFF00
01FFFE00
007FF000
ENDCHAR
STARTCHAR Scedilla
ENCODING 350
SWIDTH 398 0
DWIDTH 35 0
BBX 29 78 0 -19
BITMAP
003FE000
01FFFC00
03FFFE00
0FFFFF80
1FFFFF80
1FFFFFC0
3FFFFFE0
3FFFFFE0
7FFFFFF0
7FF07FF0
7FC01FF0
FFC01FF8
FF800FF8
FF800FF8
FF800FF8
FF800FF8
FF800FF8
FF800FF8
FFC00FF8
FFC00FF8
7FE007F0
7FF001E0
7FF80000
3FFC0000
1FFE0000
1FFF0000
0FFF8000
07FFC000
03FFF000
01FFF800
00FFFC00
007FFE00
003FFF00
000FFF80
0007FFC0
0003FFE0
0001FFE0
00007FF0
7F003FF0
FF003FF0
FF801FF8
FF800FF8
FF800FF8
FF800FF8
FF800FF8
FF800FF8
FF800FF8
FFC00FF8
7FC01FF8
7FE03FF8
7FFDFFF0
3FFFFFF0
3FFFFFE0
1FFFFFE0
1FFFFFC0
0FFFFF80
07FFFF00
01FFFE00
007FF000
001FC000
001FC000
001FC000
001FC000
001FFC00
001FFF00
001FFF80
001FFF80
001FFFC0
001FFFC0
000FFFC0
00401FC0
00FFFFC0
00FFFFC0
00FFFF80
00FFFF80
007FFF00
003FFC00
000FF000
ENDCHAR
STARTCHAR scedilla
ENCODING 351
SWIDTH 398 0
DWIDTH 35 0
BBX 29 78 0 -19
BITMAP
003FE000
01FFFC00
03FFFE00
0FFFFF80
1FFFFF80
1FFFFFC0
3FFFFFE0
3FFFFFE0
7FFFFFF0
7FF07FF0
7FC01FF0
FFC01FF8
FF800FF8
FF800FF8
FF800FF8
FF800FF8
FF800FF8
FF800FF8
FFC00FF8
FFC00FF8
7FE007F0
7FF001E0
7FF80000
3FFC0000
1FFE0000
1FFF0000
0FFF8000
07FFC000
03FFF000
01FFF800
00FFFC00
007FFE00
003FFF00
000FFF80
0007FFC0
0003FFE0
0001FFE0
00007FF0
7F003FF0
FF003FF0
FF801FF8
FF800FF8
FF800FF8
FF800FF8
FF800FF8
FF800FF8
FF800FF8
FFC00FF8
7FC01FF8
7FE03FF8
7FFDFFF0
3FFFFFF0
3FFFFFE0
1FFFFFE0
1FFFFFC0
0FFFFF80
07FFFF00
01FFFE00
007FF000
001FC000
001FC000
001FC000
001FC000
001FFC00
001FFF00
001FFF80
001FFF80
001FFFC0
001FFFC0
000FFFC0
00401FC0
00FFFFC0
00FFFFC0
00FFFF80
00FFFF80
007FFF00
003FFC00
000FF000
ENDCHAR
STARTCHAR Scaron
ENCODING 352
SWIDTH 398 0
DWIDTH 35 0
BBX 29 76 0 0
BITMAP
01E03C00
07F8FF00
07FCFF80
07FDFF80
07FFFF80
07FFFF00
03FFFE00
01FFFE00
00FFFC00
007FF800
007FF000
003FE000
001FC000
00000000
00000000
00000000
00000000
003FE000
01FFFC00
03FFFE00
0FFFFF80
1FFFFF80
1FFFFFC0
3FFFFFE0
3FFFFFE0
7FFFFFF0
7FF07FF0
7FC01FF0
FFC01FF8
FF800FF8
FF800FF8
FF800FF8
FF800FF8
FF800FF8
FF800FF8
FFC00FF8
FFC00FF8
7FE007F0
7FF001E0
7FF80000
3FFC0000
1FFE0000
1FFF0000
0FFF8000
07FFC000
03FFF000
01FFF800
00FFFC00
007FFE00
003FFF00
000FFF80
0007FFC0
0003FFE0
0001FFE0
00007FF0
7F003FF0
FF003FF0
FF801FF8
FF800FF8
FF800FF8
FF800FF8
FF800FF8
FF800FF8
FF800FF8
FFC00FF8
7FC01FF8
7FE03FF8
7FFDFFF0
3FFFFFF0
3FFFFFE0
1FFFFFE0
1FFFFFC0
0FFFFF80
07FFFF00
01FFFE00
007FF000
ENDCHAR
STARTCHAR scaron
ENCODING 353
SWIDTH 398 0
DWIDTH 35 0
BBX 29 76 0 0
BITMAP
01E03C00
07F8FF00
07FCFF80
07FDFF80
07FFFF80
07FFFF00
03FFFE00
01FFFE00
00FFFC00
007FF800
007FF000
003FE000
001FC000
00000000
00000000
00000000
00000000
003FE000
01FFFC00
03FFFE00
0FFFFF80
1FFFFF80
1FFFFFC0
3FFFFFE0
3FFFFFE0
7FFFFFF0
7FF07FF0
7FC01FF0
FFC01FF8
FF800FF8
FF800FF8
FF800FF8
FF800FF8
FF800FF8
FF800FF8
FFC00FF8
FFC00FF8
7FE007F0
7FF001E0
7FF80000
3FFC0000
1FFE0000
1FFF0000
0FFF8000
07FFC000
03FFF000
01FFF800
00FFFC00
007FFE00
003FFF00
000FFF80
0007FFC0
0003FFE0
0001FFE0
00007FF0
7F003FF0
FF003FF0
FF801FF8
FF800FF8
FF800FF8
FF800FF8
FF800FF8
FF800FF8
FF800FF8
FFC00FF8
7FC01FF8
7FE03FF8
7FFDFFF0
3FFFFFF0
3FFFFFE0
1FFFFFE0
1FFFFFC0
0FFFFF80
07FFFF00
01FFFE00
007FF000
ENDCHAR
STARTCHAR Tcommaaccent
ENCODING 354
SWIDTH 401 0
DWIDTH 35 0
BBX 29 76 0 -17
BITMAP
7FFFFFF0
FFFFFFF8
FFFFFFF8
FFFFFFF8
FFFFFFF8
FFFFFFF8
FFFFFFF8
FFFFFFF8
7FFFFFE0
003FE000
003FE000
003FE000
003FE000
003FE000
003FE000
003FE000
003FE000
003FE000
003FE000
003FE000
003FE000
003FE000
003FE000
003FE000
003FE000
003FE000
003FE000
003FE000
003FE000
003FE000
003FE000
003FE000
003FE000
003FE000
003FE000
003FE000
003FE000
003FE000
003FE000
003FE000
003FE000
003FE000
003FE000
003FE000
003FE000
003FE000
003FE000
003FE000
003FE000
003FE000
003FE000
003FE000
003FE000
003FE000
003FE000
003FE000
003FE000
003FC000
001FC000
00000000
00000000
00000000
00000000
000FC000
001FE000
003FE000
003FE000
003FE000
003FE000
003FE000
003FE000
003FE000
003FE000
003FE000
001FE000
000FC000
ENDCHAR
STARTCHAR tcommaaccent
ENCODING 355
SWIDTH 401 0
DWIDTH 35 0
BBX 29 76 0 -17
BITMAP
7FFFFFF0
FFFFFFF8
FFFFFFF8
FFFFFFF8
FFFFFFF8
FFFFFFF8
FFFFFFF8
FFFFFFF8
7FFFFFE0
003FE000
003FE000
003FE000
003FE000
003FE000
003FE000
003FE000
003FE000
003FE000
003FE000
003FE000
003FE000
003FE000
003FE000
003FE000
003FE000
003FE000
003FE000
003FE000
003FE000
003FE000
003FE000
003FE000
003FE000
003FE000
003FE000
003FE000
003FE000
003FE000
003FE000
003FE000
003FE000
003FE000
003FE000
003FE000
003FE000
003FE000
003FE000
003FE000
003FE000
003FE000
003FE000
003FE000
003FE000
003FE000
003FE000
003FE000
003FE000
003FC000
001FC000
00000000
00000000
00000000
00000000
000FC000
001FE000
003FE000
003FE000
003FE000
003FE000
003FE000
003FE000
003FE000
003FE000
003FE000
001FE000
000FC000
ENDCHAR
STARTCHAR Tcaron
ENCODING 356
SWIDTH 401 0
DWIDTH 35 0
BBX 29 76 0 0
BITMAP
01E01C00
07F87F00
07FCFF80
07FDFF80
07FFFF80
07FFFF00
03FFFF00
01FFFE00
00FFFC00
007FF800
003FF000
003FE000
001FC000
00000000
00000000
00000000
00000000
7FFFFFF0
FFFFFFF8
FFFFFFF8
FFFFFFF8
FFFFFFF8
FFFFFFF8
FFFFFFF8
FFFFFFF8
7FFFFFE0
003FE000
003FE000
003FE000
003FE000
003FE000
003FE000
003FE000
003FE000
003FE000
003FE000
003FE000
003FE000
003FE000
003FE000
003FE000
003FE000
003FE000
003FE000
003FE000
003FE000
003FE000
003FE000
003FE000
003FE000
003FE000
003FE000
003FE000
003FE000
003FE000
003FE000
003FE000
003FE000
003FE000
003FE000
003FE000
003FE000
003FE000
003FE000
003FE000
003FE000
003FE000
003FE000
003FE000
003FE000
003FE000
003FE000
003FE000
003FE000
003FC000
001FC000
ENDCHAR
STARTCHAR tcaron
ENCODING 357
SWIDTH 401 0
DWIDTH 35 0
BBX 29 76 0 0
BITMAP
01E01C00
07F87F00
07FCFF80
07FDFF80
07FFFF80
07FFFF00
03FFFF00
01FFFE00
00FFFC00
007FF800
003FF000
003FE000
001FC000
00000000
00000000
00000000
00000000
7FFFFFF0
FFFFFFF8
FFFFFFF8
FFFFFFF8
FFFFFFF8
FFFFFFF8
FFFFFFF8
FFFFFFF8
7FFFFFE0
003FE000
003FE000
003FE000
003FE000
003FE000
003FE000
003FE000
003FE000
003FE000
003FE000
003FE000
003FE000
003FE000
003FE000
003FE000
003FE000
003FE000
003FE000
003FE000
003FE000
003FE000
003FE000
003FE000
003FE000
003FE000
003FE000
003FE000
003FE000
003FE000
003FE000
003FE000
003FE000
003FE000
003FE000
003FE000
003FE000
003FE000
003FE000
003FE000
003FE000
003FE000
003FE000
003FE000
003FE000
003FE000
003FE000
003FE000
003FE000
003FC000
001FC000
ENDCHAR
STARTCHAR Utilde
ENCODING 360
SWIDTH 409 0
DWIDTH 36 0
BBX 29 74 -1 0
BITMAP
00780000
03FE0000
07FF87E0
1FFFCFF0
1FFFFFF0
3FFFFFF0
7FFFFFF0
7FFFFFF0
7FFFFFE0
7FDFFFC0
3F87FF80
0003FF00
00003000
00000000
00000000
3F0003F0
7F8007F8
7F8007F8
FF8007F8
FF8007F8
FF8007F8
FF8007F8
FF8007F8
FF8007F8
FF8007F8
FF8007F8
FF8007F8
FF8007F8
FF8007F8
FF8007F8
FF8007F8
FF8007F8
FF8007F8
FF8007F8
FF8007F8
FF8007F8
FF8007F8
FF8007F8
FF8007F8
FF8007F8
FF8007F8
FF8007F8
FF8007F8
FF8007F8
FF8007F8
FF8007F8
FF8007F8
FF8007F8
FF8007F8
FF8007F8
FF8007F8
FF8007F8
FF8007F8
FF8007F8
FF8007F8
FF8007F8
FF8007F8
FF8007F8
FF8007F8
FF800FF8
7F800FF8
7F800FF8
7FC00FF8
7FC01FF8
7FE03FF8
7FFCFFF0
3FFFFFF0
3FFFFFF0
1FFFFFE0
1FFFFFC0
0FFFFF80
07FFFF00
01FFFE00
007FF800
ENDCHAR
STARTCHAR utilde
ENCODING 361
SWIDTH 409 0
DWIDTH 36 0
BBX 29 74 -1 0
BITMAP
00FC0000
03FF0000
0FFF8FF0
0FFFEFF0
1FFFFFF8
3FFFFFF8
7FFFFFF0
7FFFFFF0
7FFFFFE0
7FCFFFC0
3F87FF80
0001FE00
00000000
00000000
00000000
3F0003F0
7F8007F8
FF8007F8
FF8007F8
FF8007F8
FF8007F8
FF8007F8
FF8007F8
FF8007F8
FF8007F8
FF8007F8
FF8007F8
FF8007F8
FF8007F8
FF8007F8
FF8007F8
FF8007F8
FF8007F8
FF8007F8
FF8007F8
FF8007F8
FF8007F8
FF8007F8
FF8007F8
FF8007F8
FF8007F8
FF8007F8
FF8007F8
FF8007F8
FF8007F8
FF8007F8
FF8007F8
FF8007F8
FF8007F8
FF8007F8
FF8007F8
FF8007F8
FF8007F8
FF8007F8
FF8007F8
FF8007F8
FF8007F8
FF8007F8
FF8007F8
FF8007F8
7F800FF8
7FC00FF8
7FC00FF8
7FE01FF8
7FF03FF8
3FFFFFF0
3FFFFFF0
3FFFFFE0
1FFFFFE0
0FFFFFC0
07FFFF80
03FFFF00
00FFFC00
003FF000
ENDCHAR
STARTCHAR Umacron
ENCODING 362
SWIDTH 409 0
DWIDTH 36 0
BBX 29 71 -1 0
BITMAP
03FFFF00
07FFFF80
07FFFF80
07FFFF80
07FFFF80
07FFFF80
07FFFF80
03FFFF00
00000000
00000000
00000000
00000000
3F0003F0
7F8007F8
7F8007F8
FF8007F8
FF8007F8
FF8007F8
FF8007F8
FF8007F8
FF8007F8
FF8007F8
FF8007F8
FF8007F8
FF8007F8
FF8007F8
FF8007F8
FF8007F8
FF8007F8
FF8007F8
FF8007F8
FF8007F8
FF8007F8
FF8007F8
FF8007F8
FF8007F8
FF8007F8
FF8007F8
FF8007F8
FF8007F8
FF8007F8
FF8007F8
FF8007F8
FF8007F8
FF8007F8
FF8007F8
FF8007F8
FF8007F8
FF8007F8
FF8007F8
FF8007F8
FF8007F8
FF8007F8
FF8007F8
FF8007F8
FF8007F8
FF800FF8
7F800FF8
7F800FF8
7FC00FF8
7FC01FF8
7FE03FF8
7FFCFFF0
3FFFFFF0
3FFFFFF0
1FFFFFE0
1FFFFFC0
0FFFFF80
07FFFF00
01FFFE00
007FF800
ENDCHAR
STARTCHAR umacron
ENCODING 363
SWIDTH 409 0
DWIDTH 36 0
BBX 29 72 -1 0
BITMAP
01FFFE00
03FFFF80
07FFFF80
07FFFF80
07FFFF80
07FFFF80
07FFFF80
03FFFF80
01FFFF00
00000000
00000000
00000000
00000000
3F0003F0
7F8007F8
FF8007F8
FF8007F8
FF8007F8
FF8007F8
FF8007F8
FF8007F8
FF8007F8
FF8007F8
FF8007F8
FF8007F8
FF8007F8
FF8007F8
FF8007F8
FF8007F8
FF8007F8
FF8007F8
FF8007F8
FF8007F8
FF8007F8
FF8007F8
FF8007F8
FF8007F8
FF8007F8
FF8007F8
FF8007F8
FF8007F8
FF8007F8
FF8007F8
FF8007F8
FF8007F8
FF8007F8
FF8007F8
FF8007F8
FF8007F8
FF8007F8
FF8007F8
FF8007F8
FF8007F8
FF8007F8
FF8007F8
FF8007F8
FF8007F8
FF8007F8
7F800FF8
7FC00FF8
7FC00FF8
7FE01FF8
7FF03FF8
3FFFFFF0
3FFFFFF0
3FFFFFE0
1FFFFFE0
0FFFFFC0
07FFFF80
03FFFF00
00FFFC00
003FF000
ENDCHAR
STARTCHAR Ubreve
ENCODING 364
SWIDTH 409 0
DWIDTH 36 0
BBX 29 75 -1 0
BITMAP
00601000
07F07F00
0FF87F80
0FFDFF80
0FFFFF80
0FFFFF80
07FFFF80
07FFFF00
03FFFF00
03FFFE00
00FFFC00
003FF000
00000000
00000000
00000000
00000000
3F0003F0
7F8007F8
7F8007F8
FF8007F8
FF8007F8
FF8007F8
FF8007F8
FF8007F8
FF8007F8
FF8007F8
FF8007F8
FF8007F8
FF8007F8
FF8007F8
FF8007F8
FF8007F8
FF8007F8
FF8007F8
FF8007F8
FF8007F8
FF8007F8
FF8007F8
FF8007F8
FF8007F8
FF8007F8
FF8007F8
FF8007F8
FF8007F8
FF8007F8
FF8007F8
FF8007F8
FF8007F8
FF8007F8
FF8007F8
FF8007F8
FF8007F8
FF8007F8
FF8007F8
FF8007F8
FF8007F8
FF8007F8
FF8007F8
FF8007F8
FF8007F8
FF800FF8
7F800FF8
7F800FF8
7FC00FF8
7FC01FF8
7FE03FF8
7FFCFFF0
3FFFFFF0
3FFFFFF0
1FFFFFE0
1FFFFFC0
0FFFFF80
07FFFF00
01FFFE00
007FF800
ENDCHAR
STARTCHAR ubreve
ENCODING 365
SWIDTH 409 0
DWIDTH 36 0
BBX 29 75 -1 0
BITMAP
01F03E00
07F87F80
07F87F80
07FFFF80
07FFFF80
07FFFF80
07FFFF80
07FFFF00
03FFFF00
01FFFE00
00FFF800
001FE000
00000000
00000000
00000000
00000000
3F0003F0
7F8007F8
FF8007F8
FF8007F8
FF8007F8
FF8007F8
FF8007F8
FF8007F8
FF8007F8
FF8007F8
FF8007F8
FF8007F8
FF8007F8
FF8007F8
FF8007F8
FF8007F8
FF8007F8
FF8007F8
FF8007F8
FF8007F8
FF8007F8
FF8007F8
FF8007F8
FF8007F8
FF8007F8
FF8007F8
FF8007F8
FF8007F8
FF8007F8
FF8007F8
FF8007F8
FF8007F8
FF8007F8
FF8007F8
FF8007F8
FF8007F8
FF8007F8
FF8007F8
FF8007F8
FF8007F8
FF8007F8
FF8007F8
FF8007F8
FF8007F8
FF8007F8
7F800FF8
7FC00FF8
7FC00FF8
7FE01FF8
7FF03FF8
3FFFFFF0
3FFFFFF0
3FFFFFE0
1FFFFFE0
0FFFFFC0
07FFFF80
03FFFF00
00FFFC00
003FF000
ENDCHAR
STARTCHAR Uring
ENCODING 366
SWIDTH 409 0
DWIDTH 36 0
BBX 29 76 -1 0
BITMAP
00070000
001FC000
003FF000
007FF000
007FF800
00FCF800
00F8F800
00F8F800
00FCF800
007FF800
007FF000
003FF000
001FC000
00030000
00000000
00000000
00000000
3F0003F0
7F8007F8
7F8007F8
FF8007F8
FF8007F8
FF8007F8
FF8007F8
FF8007F8
FF8007F8
FF8007F8
FF8007F8
FF8007F8
FF8007F8
FF8007F8
FF8007F8
FF8007F8
FF8007F8
FF8007F8
FF8007F8
FF8007F8
FF8007F8
FF8007F8
FF8007F8
FF8007F8
FF8007F8
FF8007F8
FF8007F8
FF8007F8
FF8007F8
FF8007F8
FF8007F8
FF8007F8
FF8007F8
FF8007F8
FF8007F8
FF8007F8
FF8007F8
FF8007F8
FF8007F8
FF8007F8
FF8007F8
FF8007F8
FF8007F8
FF8007F8
FF8007F8
7F800FF8
7FC00FF8
7FC00FF8
7FC01FF8
7FE01FF8
7FFCFFF0
3FFFFFF0
3FFFFFF0
1FFFFFE0
1FFFFFC0
0FFFFFC0
07FFFF00
01FFFE00
007FF000
ENDCHAR
STARTCHAR uring
ENCODING 367
SWIDTH 409 0
DWIDTH 36 0
BBX 29 76 -1 0
BITMAP
00078000
001FE000
003FF000
007FF800
007FF800
0078FC00
00F87C00
00F87C00
007DF800
007FF800
003FF000
001FF000
000FC000
00000000
00000000
00000000
00000000
3F0003F0
7F8007F8
FF8007F8
FF8007F8
FF8007F8
FF8007F8
FF8007F8
FF8007F8
FF8007F8
FF8007F8
FF8007F8
FF8007F8
FF8007F8
FF8007F8
FF8007F8
FF8007F8
FF8007F8
FF8007F8
FF8007F8
FF8007F8
FF8007F8
FF8007F8
FF8007F8
FF8007F8
FF8007F8
FF8007F8
FF8007F8
FF8007F8
FF8007F8
FF8007F8
FF8007F8
FF8007F8
FF8007F8
FF8007F8
FF8007F8
FF8007F8
FF8007F8
FF8007F8
FF8007F8
FF8007F8
FF8007F8
FF8007F8
FF8007F8
FF8007F8
FF8007F8
7F800FF8
7FC00FF8
7FC00FF8
7FE01FF8
7FF03FF8
3FFFFFF0
3FFFFFF0
3FFFFFE0
1FFFFFE0
0FFFFFC0
07FFFF80
03FFFF00
01FFFC00
003FE000
ENDCHAR
STARTCHAR Wcircumflex
ENCODING 372
SWIDTH 560 0
DWIDTH 49 0
BBX 43 76 0 0
BITMAP
00001F800000
00003FC00000
00007FE00000
0000FFF00000
0001FFF80000
0003FFF80000
0003FFFC0000
0007FFFE0000
000FFFFF0000
000FFFFF0000
000FF9FF0000
000FF9FF0000
0007E0FC0000
000000000000
000000000000
000000000000
000000000000
7E003F001FC0
FF007F803FC0
FF807F803FE0
FF807F803FE0
FF807FC07FC0
FF807FC07FC0
FF80FFC07FC0
FF80FFC07FC0
7F80FFC07FC0
7FC0FFC07FC0
7FC0FFE0FF80
7FC0FFE0FF80
7FC1FFE0FF80
7FC1FFE0FF80
3FC1FFE0FF80
3FE1FFE0FF80
3FE1FFF0FF00
3FE1FFF1FF00
3FE3FFF1FF00
3FE3FFF1FF00
1FE3FFF1FF00
1FE3FFF9FF00
1FF3FFF9FF00
1FF3FFF9FE00
1FF7FFFBFE00
1FF7FFFBFE00
1FF7FFFBFE00
0FF7FFFFFE00
0FFFFFFFFE00
0FFFFFFFFC00
0FFFFBFFFC00
0FFFFBFFFC00
0FFFFBFFFC00
07FFF3FFFC00
07FFF3FFFC00
07FFF3FFF800
07FFF1FFF800
07FFF1FFF800
07FFE1FFF800
03FFE1FFF800
03FFE1FFF800
03FFE1FFF800
03FFE0FFF000
03FFE0FFF000
03FFC0FFF000
01FFC0FFF000
01FFC0FFF000
01FFC0FFF000
01FFC07FE000
01FFC07FE000
01FF807FE000
00FF807FE000
00FF807FE000
00FF807FE000
00FF803FC000
00FF803FC000
00FF003FC000
007F003FC000
003E001F8000
ENDCHAR
STARTCHAR wcircumflex
ENCODING 373
SWIDTH 560 0
DWIDTH 49 0
BBX 43 76 0 0
BITMAP
00001F800000
00003FC00000
00007FE00000
0000FFF00000
0001FFF80000
0003FFF80000
0003FFFC0000
0007FFFE0000
000FFFFF0000
000FFFFF0000
000FF9FF0000
000FF9FF0000
0007E0FC0000
000000000000
000000000000
000000000000
000000000000
7E003F001FC0
FF007F803FC0
FF807F803FE0
FF807F803FE0
FF807FC07FC0
FF807FC07FC0
FF80FFC07FC0
FF80FFC07FC0
7F80FFC07FC0
7FC0FFC07FC0
7FC0FFE0FF80
7FC0FFE0FF80
7FC1FFE0FF80
7FC1FFE0FF80
3FC1FFE0FF80
3FE1FFE0FF80
3FE1FFF0FF00
3FE1FFF1FF00
3FE3FFF1FF00
3FE3FFF1FF00
1FE3FFF1FF00
1FE3FFF9FF00
1FF3FFF9FF00
1FF3FFF9FE00
1FF7FFFBFE00
1FF7FFFBFE00
1FF7FFFBFE00
0FF7FFFFFE00
0FFFFFFFFE00
0FFFFFFFFC00
0FFFFBFFFC00
0FFFFBFFFC00
0FFFFBFFFC00
07FFF3FFFC00
07FFF3FFFC00
07FFF3FFF800
07FFF1FFF800
07FFF1FFF800
07FFE1FFF800
03FFE1FFF800
03FFE1FFF800
03FFE1FFF800
03FFE0FFF000
03FFE0FFF000
03FFC0FFF000
01FFC0FFF000
01FFC0FFF000
01FFC0FFF000
01FFC07FE000
01FFC07FE000
01FF807FE000
00FF807FE000
00FF807FE000
00FF807FE000
00FF803FC000
00FF803FC000
00FF003FC000
007F003FC000
003E001F8000
ENDCHAR
STARTCHAR Ycircumflex
ENCODING 374
SWIDTH 406 0
DWIDTH 36 0
BBX 33 76 -2 0
BITMAP
0003F00000
0007F80000
000FFC0000
001FFE0000
003FFE0000
007FFF0000
007FFF8000
00FFFFC000
01FFFFE000
01FFFFE000
01FF3FE000
01FE3FC000
00FC1F8000
0000000000
0000000000
0000000000
0000000000
7F0000FF00
7F8000FF00
FFC001FF80
7FC001FF00
7FE003FF00
7FE003FF00
3FF007FE00
3FF007FE00
1FF007FC00
1FF80FFC00
0FF80FFC00
0FFC1FF800
0FFC1FF800
07FE3FF000
07FE3FF000
03FF7FE000
03FF7FE000
01FF7FC000
01FFFFC000
01FFFFC000
00FFFF8000
00FFFF8000
007FFF0000
007FFF0000
003FFE0000
003FFE0000
003FFE0000
001FFC0000
001FFC0000
000FF80000
000FF80000
000FF80000
000FF80000
000FF80000
000FF80000
000FF80000
000FF80000
000FF80000
000FF80000
000FF80000
000FF80000
000FF80000
000FF80000
000FF80000
000FF80000
000FF80000
000FF80000
000FF80000
000FF80000
000FF80000
000FF80000
000FF80000
000FF80000
000FF80000
000FF80000
000FF80000
000FF80000
0007F00000
0003E00000
ENDCHAR
STARTCHAR ycircumflex
ENCODING 375
SWIDTH 406 0
DWIDTH 36 0
BBX 33 76 -2 0
BITMAP
0003F00000
0007F80000
000FFC0000
001FFE0000
003FFE0000
007FFF0000
007FFF8000
00FFFFC000
01FFFFE000
01FFFFE000
01FF3FE000
01FE3FC000
00FC1F8000
0000000000
0000000000
0000000000
0000000000
7F0000FF00
7F8000FF00
FFC001FF80
7FC001FF00
7FE003FF00
7FE003FF00
3FF007FE00
3FF007FE00
1FF007FC00
1FF80FFC00
0FF80FFC00
0FFC1FF800
0FFC1FF800
07FE3FF000
07FE3FF000
03FF7FE000
03FF7FE000
01FF7FC000
01FFFFC000
01FFFFC000
00FFFF8000
00FFFF8000
007FFF0000
007FFF0000
003FFE0000
003FFE0000
003FFE0000
001FFC0000
001FFC0000
000FF80000
000FF80000
000FF80000
000FF80000
000FF80000
000FF80000
000FF80000
000FF80000
000FF80000
000FF80000
000FF80000
000FF80000
000FF80000
000FF80000
000FF80000
000FF80000
000FF80000
000FF80000
000FF80000
000FF80000
000FF80000
000FF80000
000FF80000
000FF80000
000FF80000
000FF80000
000FF80000
000FF80000
0007F00000
0003E00000
ENDCHAR
STARTCHAR Ydieresis
ENCODING 376
SWIDTH 406 0
DWIDTH 36 0
BBX 33 73 -2 0
BITMAP
007C0F8000
01FE1FC000
01FE3FE000
01FF3FE000
01FF3FE000
01FF3FE000
01FF3FE000
01FE3FE000
01FE1FE000
00FC0F8000
0000000000
0000000000
0000000000
0000000000
7F0000FF00
7F8000FF00
FFC001FF80
7FC001FF00
7FE003FF00
7FE003FF00
3FF007FE00
3FF007FE00
1FF007FC00
1FF80FFC00
0FF80FFC00
0FFC1FF800
0FFC1FF800
07FE3FF000
07FE3FF000
03FF7FE000
03FF7FE000
01FF7FC000
01FFFFC000
01FFFFC000
00FFFF8000
00FFFF8000
007FFF0000
007FFF0000
003FFE0000
003FFE0000
003FFE0000
001FFC0000
001FFC0000
000FF80000
000FF80000
000FF80000
000FF80000
000FF80000
000FF80000
000FF80000
000FF80000
000FF80000
000FF80000
000FF80000
000FF80000
000FF80000
000FF80000
000FF80000
000FF80000
000FF80000
000FF80000
000FF80000
000FF80000
000FF80000
000FF80000
000FF80000
000FF80000
000FF80000
000FF80000
000FF80000
000FF80000
0007F00000
0003E00000
ENDCHAR
STARTCHAR Zacute
ENCODING 377
SWIDTH 411 0
DWIDTH 36 0
BBX 30 76 -1 0
BITMAP
00001F00
00007F80
0003FF80
0007FF80
001FFF80
003FFF80
00FFFE00
01FFFC00
03FFF000
03FFC000
03FF8000
03FC0000
00F00000
00000000
00000000
00000000
00000000
7FFFFFF8
7FFFFFFC
FFFFFFFC
FFFFFFFC
FFFFFFFC
FFFFFFFC
7FFFFFFC
7FFFFFF8
00001FF8
00001FF0
00003FF0
00003FF0
00003FE0
00007FE0
00007FC0
0000FFC0
0000FFC0
0001FF80
0001FF80
0001FF00
0003FF00
0003FE00
0007FE00
0007FE00
0007FC00
000FFC00
000FF800
001FF800
001FF800
003FF000
003FF000
003FE000
007FE000
007FC000
00FFC000
00FFC000
00FF8000
01FF8000
01FF0000
03FF0000
03FE0000
07FE0000
07FE0000
07FC0000
0FFC0000
0FF80000
1FF80000
1FF80000
1FF00000
3FF00000
3FFFFFF0
7FFFFFF8
7FFFFFFC
7FFFFFFC
7FFFFFFC
7FFFFFFC
7FFFFFFC
7FFFFFF8
3FFFFFF0
ENDCHAR
STARTCHAR zacute
ENCODING 378
SWIDTH 411 0
DWIDTH 36 0
BBX 30 76 -1 0
BITMAP
00001F00
00007F80
0003FF80
0007FF80
001FFF80
003FFF80
00FFFE00
01FFFC00
03FFF000
03FFC000
03FF8000
03FC0000
00F00000
00000000
00000000
00000000
00000000
7FFFFFF8
7FFFFFFC
FFFFFFFC
FFFFFFFC
FFFFFFFC
FFFFFFFC
7FFFFFFC
7FFFFFF8
00001FF8
00001FF0
00003FF0
00003FF0
00003FE0
00007FE0
00007FC0
0000FFC0
0000FFC0
0001FF80
0001FF80
0001FF00
0003FF00
0003FE00
0007FE00
0007FE00
0007FC00
000FFC00
000FF800
001FF800
001FF800
003FF000
003FF000
003FE000
007FE000
007FC000
00FFC000
00FFC000
00FF8000
01FF8000
01FF0000
03FF0000
03FE0000
07FE0000
07FE0000
07FC0000
0FFC0000
0FF80000
1FF80000
1FF80000
1FF00000
3FF00000
3FFFFFF0
7FFFFFF8
7FFFFFFC
7FFFFFFC
7FFFFFFC
7FFFFFFC
7FFFFFFC
7FFFFFF8
3FFFFFF0
ENDCHAR
STARTCHAR Zdotaccent
ENCODING 379
SWIDTH 411 0
DWIDTH 36 0
BBX 30 72 -1 0
BITMAP
000FC000
001FE000
001FF000
001FF000
001FF000
001FF000
001FF000
001FF000
000FE000
00038000
00000000
00000000
00000000
7FFFFFF8
7FFFFFFC
FFFFFFFC
FFFFFFFC
FFFFFFFC
FFFFFFFC
7FFFFFFC
7FFFFFF8
00001FF8
00001FF0
00003FF0
00003FF0
00003FE0
00007FE0
00007FC0
0000FFC0
0000FFC0
0001FF80
0001FF80
0001FF00
0003FF00
0003FE00
0007FE00
0007FE00
0007FC00
000FFC00
000FF800
001FF800
001FF800
003FF000
003FF000
003FE000
007FE000
007FC000
00FFC000
00FFC000
00FF8000
01FF8000
01FF0000
03FF0000
03FE0000
07FE0000
07FE0000
07FC0000
0FFC0000
0FF80000
1FF80000
1FF80000
1FF00000
3FF00000
3FFFFFF0
7FFFFFF8
7FFFFFFC
7FFFFFFC
7FFFFFFC
7FFFFFFC
7FFFFFFC
7FFFFFF8
3FFFFFF0
ENDCHAR
STARTCHAR zdotaccent
ENCODING 380
SWIDTH 411 0
DWIDTH 36 0
BBX 30 72 -1 0
BITMAP
000FC000
001FE000
001FF000
001FF000
001FF000
001FF000
001FF000
001FF000
000FE000
00038000
00000000
00000000
00000000
7FFFFFF8
7FFFFFFC
FFFFFFFC
FFFFFFFC
FFFFFFFC
FFFFFFFC
7FFFFFFC
7FFFFFF8
00001FF8
00001FF0
00003FF0
00003FF0
00003FE0
00007FE0
00007FC0
0000FFC0
0000FFC0
0001FF80
0001FF80
0001FF00
0003FF00
0003FE00
0007FE00
0007FE00
0007FC00
000FFC00
000FF800
001FF800
001FF800
003FF000
003FF000
003FE000
007FE000
007FC000
00FFC000
00FFC000
00FF8000
01FF8000
01FF0000
03FF0000
03FE0000
07FE0000
07FE0000
07FC0000
0FFC0000
0FF80000
1FF80000
1FF80000
1FF00000
3FF00000
3FFFFFF0
7FFFFFF8
7FFFFFFC
7FFFFFFC
7FFFFFFC
7FFFFFFC
7FFFFFFC
7FFFFFF8
3FFFFFF0
ENDCHAR
STARTCHAR Zcaron
ENCODING 381
SWIDTH 419 0
DWIDTH 37 0
BBX 30 76 -1 0
BITMAP
03F03F00
07FCFF80
07FCFF80
07FFFF80
07FFFF80
03FFFF00
01FFFE00
00FFFE00
00FFFC00
007FF800
003FF000
001FE000
000FC000
00000000
00000000
00000000
00000000
7FFFFFF8
7FFFFFFC
FFFFFFFC
FFFFFFFC
FFFFFFFC
FFFFFFFC
7FFFFFFC
7FFFFFF8
00001FF8
00001FF0
00003FF0
00003FF0
00003FE0
00007FE0
00007FC0
0000FFC0
0000FFC0
0001FF80
0001FF80
0001FF00
0003FF00
0003FE00
0007FE00
0007FE00
0007FC00
000FFC00
000FF800
001FF800
001FF800
003FF000
003FF000
003FE000
007FE000
007FC000
00FFC000
00FFC000
00FF8000
01FF8000
01FF0000
03FF0000
03FE0000
07FE0000
07FE0000
07FC0000
0FFC0000
0FF80000
1FF80000
1FF80000
1FF00000
3FF00000
3FFFFFF0
7FFFFFF8
7FFFFFFC
7FFFFFFC
7FFFFFFC
7FFFFFFC
7FFFFFFC
7FFFFFF8
3FFFFFF0
ENDCHAR
STARTCHAR zcaron
ENCODING 382
SWIDTH 419 0
DWIDTH 37 0
BBX 30 76 -1 0
BITMAP
03F03F00
07FCFF80
07FCFF80
07FFFF80
07FFFF80
03FFFF00
01FFFE00
00FFFE00
00FFFC00
007FF800
003FF000
001FE000
000FC000
00000000
00000000
00000000
00000000
7FFFFFF8
7FFFFFFC
FFFFFFFC
FFFFFFFC
FFFFFFFC
FFFFFFFC
7FFFFFFC
7FFFFFF8
00001FF8
00001FF0
00003FF0
00003FF0
00003FE0
00007FE0
00007FC0
0000FFC0
0000FFC0
0001FF80
0001FF80
0001FF00
0003FF00
0003FE00
0007FE00
0007FE00
0007FC00
000FFC00
000FF800
001FF800
001FF800
003FF000
003FF000
003FE000
007FE000
007FC000
00FFC000
00FFC000
00FF8000
01FF8000
01FF0000
03FF0000
03FE0000
07FE0000
07FE0000
07FC0000
0FFC0000
0FF80000
1FF80000
1FF80000
1FF00000
3FF00000
3FFFFFF0
7FFFFFF8
7FFFFFFC
7FFFFFFC
7FFFFFFC
7FFFFFFC
7FFFFFFC
7FFFFFF8
3FFFFFF0
ENDCHAR
STARTCHAR AEacute
ENCODING 508
SWIDTH 665 0
DWIDTH 59 0
BBX 50 76 0 0
BITMAP
000000003C0000
00000001FE0000
00000007FF0000
0000001FFF0000
0000003FFF0000
000000FFFE0000
000001FFFC0000
000007FFF00000
000007FFE00000
00000FFF800000
00000FFE000000
000007F8000000
000003C0000000
00000000000000
00000000000000
00000000000000
00000000000000
0000007FFFFF80
0000007FFFFF80
000000FFFFFFC0
000000FFFFFFC0
000001FFFFFFC0
000001FFFFFFC0
000003FFFFFFC0
000003FFFFFF80
000007FF800000
000007FF800000
000007FF800000
00000FFF800000
00000FFF800000
00001FFF800000
00001FFF800000
00003FFF800000
00003FFF800000
00007FFF800000
00007FFF800000
0000FFFF800000
0000FFFF800000
0000FFFF800000
0001FFFF800000
0001FFFF800000
0003FFFF800000
0003FEFFFFFF00
0007FEFFFFFF80
0007FEFFFFFFC0
000FFCFFFFFFC0
000FFCFFFFFFC0
000FF8FFFFFFC0
001FF8FFFFFFC0
001FF0FFFFFF80
003FF0FFFFFF00
003FFFFF800000
007FFFFF800000
007FFFFF800000
00FFFFFF800000
00FFFFFF800000
01FFFFFF800000
01FFFFFF800000
01FFFFFF800000
03FFFFFF800000
03FE00FF800000
07FE00FF800000
07FC00FF800000
0FFC00FF800000
0FF800FF800000
1FF800FF800000
1FF000FF800000
3FF000FFFFFF00
3FF000FFFFFF80
3FE000FFFFFFC0
7FE000FFFFFFC0
7FC000FFFFFFC0
FFC000FFFFFFC0
FF8000FFFFFFC0
7F80007FFFFF80
3F00003FFFFF00
ENDCHAR
STARTCHAR aeacute
ENCODING 509
SWIDTH 665 0
DWIDTH 59 0
BBX 50 76 0 0
BITMAP
000000003C0000
00000001FE0000
00000007FF0000
0000001FFF0000
0000003FFF0000
000000FFFE0000
000001FFFC0000
000007FFF00000
000007FFE00000
00000FFF800000
00000FFE000000
000007F8000000
000003C0000000
00000000000000
00000000000000
00000000000000
00000000000000
0000007FFFFF80
0000007FFFFF80
000000FFFFFFC0
000000FFFFFFC0
000001FFFFFFC0
000001FFFFFFC0
000003FFFFFFC0
000003FFFFFF80
000007FF800000
000007FF800000
000007FF800000
00000FFF800000
00000FFF800000
00001FFF800000
00001FFF800000
00003FFF800000
00003FFF800000
00007FFF800000
00007FFF800000
0000FFFF800000
0000FFFF800000
0000FFFF800000
0001FFFF800000
0001FFFF800000
0003FFFF800000
0003FEFFFFFF00
0007FEFFFFFF80
0007FEFFFFFFC0
000FFCFFFFFFC0
000FFCFFFFFFC0
000FF8FFFFFFC0
001FF8FFFFFFC0
001FF0FFFFFF80
003FF0FFFFFF00
003FFFFF800000
007FFFFF800000
007FFFFF800000
00FFFFFF800000
00FFFFFF800000
01FFFFFF800000
01FFFFFF800000
01FFFFFF800000
03FFFFFF800000
03FE00FF800000
07FE00FF800000
07FC00FF800000
0FFC00FF800000
0FF800FF800000
1FF800FF800000
1FF000FF800000
3FF000FFFFFF00
3FF000FFFFFF80
3FE000FFFFFFC0
7FE000FFFFFFC0
7FC000FFFFFFC0
FFC000FFFFFFC0
FF8000FFFFFFC0
7F80007FFFFF80
3F00003FFFFF00
ENDCHAR
STARTCHAR Oslashacute
ENCODING 510
SWIDTH 406 0
DWIDTH 36 0
BBX 30 76 0 0
BITMAP
00003E00
0001FF00
0007FF00
001FFF00
003FFF00
00FFFE00
01FFFC00
03FFF000
07FFE000
07FF8000
07FE0000
07F80000
03C00000
00000000
00000000
00000000
00000000
007FF1F8
01FFFFFC
07FFFFFC
0FFFFFFC
1FFFFFFC
1FFFFFFC
3FFFFFF8
3FFFFFF8
7FFFFFF0
7FFFFFF0
7FFFFFF0
FFFFFFF0
FFFFFFF8
FFFFFFF8
FFFFFFF8
FFFFFFF8
FFFFFFF8
FFFFFFF8
FFFFFFF8
FFFFFFF8
FFFFFFF8
FFFFFFF8
FFFFFFF8
FFFFFFF8
FFFFFFF8
FFFFFFF8
FFFFFFF8
FFFFFFF8
FFFFFFF8
FFFFFFF8
FFFFFFF8
FFFFFFF8
FFFFFFF8
FFFFFFF8
FFFFFFF8
FFFFFFF8
FFFFFFF8
FFFFFFF8
FFFFFFF8
FFFFFFF8
FFFFFFF8
FFFFFFF8
FFFFFFF8
FFFFFFF8
FFFFFFF8
FFFFFFF8
FFFFFFF8
7FFFFFF0
7FFFFFF0
7FFFFFF0
7FFFFFF0
3FFFFFE0
7FFFFFE0
7FFFFFC0
7FFFFF80
FFFFFF00
FFFFFE00
7FFFFC00
3F3FE000
ENDCHAR
STARTCHAR oslashacute
ENCODING 511
SWIDTH 406 0
DWIDTH 36 0
BBX 30 59 0 0
BITMAP
007FF1F8
01FFFFFC
07FFFFFC
0FFFFFFC
1FFFFFFC
1FFFFFFC
3FFFFFF8
3FFFFFF8
7FFFFFF0
7FFFFFF0
7FFFFFF0
FFFFFFF0
FFFFFFF8
FFFFFFF8
FFFFFFF8
FFFFFFF8
FFFFFFF8
FFFFFFF8
FFFFFFF8
FFFFFFF8
FFFFFFF8
FFFFFFF8
FFFFFFF8
FFFFFFF8
FFFFFFF8
FFFFFFF8
FFFFFFF8
FFFFFFF8
FFFFFFF8
FFFFFFF8
FFFFFFF8
FFFFFFF8
FFFFFFF8
FFFFFFF8
FFFFFFF8
FFFFFFF8
FFFFFFF8
FFFFFFF8
FFFFFFF8
FFFFFFF8
FFFFFFF8
FFFFFFF8
FFFFFFF8
FFFFFFF8
FFFFFFF8
FFFFFFF8
FFFFFFF8
7FFFFFF0
7FFFFFF0
7FFFFFF0
7FFFFFF0
3FFFFFE0
7FFFFFE0
7FFFFFC0
7FFFFF80
FFFFFF00
FFFFFE00
7FFFFC00
3F3FE000
ENDCHAR
STARTCHAR circumflex
ENCODING 710
SWIDTH 237 0
DWIDTH 21 0
BBX 22 13 -1 63
BITMAP
01F800
03FE00
07FE00
0FFF00
0FFF80
1FFFC0
3FFFE0
7FFFF0
FFFFF0
FFDFF0
FFDFF0
7F8FF0
3F07E0
ENDCHAR
STARTCHAR caron
ENCODING 711
SWIDTH 232 0
DWIDTH 20 0
BBX 22 13 -1 63
BITMAP
3F07E0
7F8FF0
FFDFF0
FFDFF0
7FFFF0
7FFFE0
3FFFE0
1FFFC0
0FFF80
07FF00
07FE00
03FC00
00F800
ENDCHAR
STARTCHAR breve
ENCODING 728
SWIDTH 241 0
DWIDTH 21 0
BBX 21 12 -1 63
BITMAP
1E03C0
7F07F0
FF8FF8
FFFFF8
FFFFF8
7FFFF8
7FFFF8
7FFFF0
3FFFF0
1FFFE0
0FFF80
01FE00
ENDCHAR
STARTCHAR dotaccent
ENCODING 729
SWIDTH 82 0
DWIDTH 7 0
BBX 8 10 -1 62
BITMAP
7E
FF
FF
FF
FF
FF
FF
FF
FF
3C
ENDCHAR
STARTCHAR ring
ENCODING 730
SWIDTH 140 0
DWIDTH 12 0
BBX 13 13 -1 63
BITMAP
0F80
3FE0
7FF0
7FF0
FFF8
F8F8
F8F8
F8F8
FFF8
7FF0
7FF0
3FE0
0F80
ENDCHAR
STARTCHAR tilde
ENCODING 732
SWIDTH 319 0
DWIDTH 28 0
BBX 28 12 -1 62
BITMAP
01FC0000
07FF0780
0FFF9FE0
1FFFFFF0
3FFFFFF0
7FFFFFF0
7FFFFFE0
FFFFFFE0
FFFFFFC0
7F9FFF80
3F07FF00
0001FC00
ENDCHAR
STARTCHAR Wgrave
ENCODING 7808
SWIDTH 560 0
DWIDTH 49 0
BBX 43 76 0 0
BITMAP
0001E0000000
0007FC000000
0007FF000000
0007FFC00000
0007FFE00000
0003FFF80000
0001FFFC0000
00007FFF0000
00003FFF0000
00000FFF8000
000003FF0000
000000FF0000
0000001E0000
000000000000
000000000000
000000000000
000000000000
7E003F001FC0
FF007F803FC0
FF807F803FE0
FF807F803FE0
FF807FC07FC0
FF807FC07FC0
FF80FFC07FC0
FF80FFC07FC0
7F80FFC07FC0
7FC0FFC07FC0
7FC0FFE0FF80
7FC0FFE0FF80
7FC1FFE0FF80
7FC1FFE0FF80
3FC1FFE0FF80
3FE1FFE0FF80
3FE1FFF0FF00
3FE1FFF1FF00
3FE3FFF1FF00
3FE3FFF1FF00
1FE3FFF1FF00
1FE3FFF9FF00
1FF3FFF9FF00
1FF3FFF9FE00
1FF7FFFBFE00
1FF7FFFBFE00
1FF7FFFBFE00
0FF7FFFFFE00
0FFFFFFFFE00
0FFFFFFFFC00
0FFFFBFFFC00
0FFFFBFFFC00
0FFFFBFFFC00
07FFF3FFFC00
07FFF3FFFC00
07FFF3FFF800
07FFF1FFF800
07FFF1FFF800
07FFE1FFF800
03FFE1FFF800
03FFE1FFF800
03FFE1FFF800
03FFE0FFF000
03FFE0FFF000
03FFC0FFF000
01FFC0FFF000
01FFC0FFF000
01FFC0FFF000
01FFC07FE000
01FFC07FE000
01FF807FE000
00FF807FE000
00FF807FE000
00FF807FE000
00FF803FC000
00FF803FC000
00FF003FC000
007F003FC000
003E001F8000
ENDCHAR
STARTCHAR wgrave
ENCODING 7809
SWIDTH 560 0
DWIDTH 49 0
BBX 43 76 0 0
BITMAP
0001E0000000
0007FC000000
0007FF000000
0007FFC00000
0007FFE00000
0003FFF80000
0001FFFC0000
00007FFF0000
00003FFF0000
00000FFF8000
000003FF0000
000000FF0000
0000001E0000
000000000000
000000000000
000000000000
000000000000
7E003F001FC0
FF007F803FC0
FF807F803FE0
FF807F803FE0
FF807FC07FC0
FF807FC07FC0
FF80FFC07FC0
FF80FFC07FC0
7F80FFC07FC0
7FC0FFC07FC0
7FC0FFE0FF80
7FC0FFE0FF80
7FC1FFE0FF80
7FC1FFE0FF80
3FC1FFE0FF80
3FE1FFE0FF80
3FE1FFF0FF00
3FE1FFF1FF00
3FE3FFF1FF00
3FE3FFF1FF00
1FE3FFF1FF00
1FE3FFF9FF00
1FF3FFF9FF00
1FF3FFF9FE00
1FF7FFFBFE00
1FF7FFFBFE00
1FF7FFFBFE00
0FF7FFFFFE00
0FFFFFFFFE00
0FFFFFFFFC00
0FFFFBFFFC00
0FFFFBFFFC00
0FFFFBFFFC00
07FFF3FFFC00
07FFF3FFFC00
07FFF3FFF800
07FFF1FFF800
07FFF1FFF800
07FFE1FFF800
03FFE1FFF800
03FFE1FFF800
03FFE1FFF800
03FFE0FFF000
03FFE0FFF000
03FFC0FFF000
01FFC0FFF000
01FFC0FFF000
01FFC0FFF000
01FFC07FE000
01FFC07FE000
01FF807FE000
00FF807FE000
00FF807FE000
00FF807FE000
00FF803FC000
00FF803FC000
00FF003FC000
007F003FC000
003E001F8000
ENDCHAR
STARTCHAR Wacute
ENCODING 7810
SWIDTH 560 0
DWIDTH 49 0
BBX 43 76 0 0
BITMAP
0000007C0000
000001FE0000
000007FF0000
00001FFF0000
00007FFE0000
0000FFFE0000
0003FFF80000
0007FFF00000
000FFFC00000
000FFF800000
000FFE000000
0007F8000000
0003C0000000
000000000000
000000000000
000000000000
000000000000
7E003F001FC0
FF007F803FC0
FF807F803FE0
FF807F803FE0
FF807FC07FC0
FF807FC07FC0
FF80FFC07FC0
FF80FFC07FC0
7F80FFC07FC0
7FC0FFC07FC0
7FC0FFE0FF80
7FC0FFE0FF80
7FC1FFE0FF80
7FC1FFE0FF80
3FC1FFE0FF80
3FE1FFE0FF80
3FE1FFF0FF00
3FE1FFF1FF00
3FE3FFF1FF00
3FE3FFF1FF00
1FE3FFF1FF00
1FE3FFF9FF00
1FF3FFF9FF00
1FF3FFF9FE00
1FF7FFFBFE00
1FF7FFFBFE00
1FF7FFFBFE00
0FF7FFFFFE00
0FFFFFFFFE00
0FFFFFFFFC00
0FFFFBFFFC00
0FFFFBFFFC00
0FFFFBFFFC00
07FFF3FFFC00
07FFF3FFFC00
07FFF3FFF800
07FFF1FFF800
07FFF1FFF800
07FFE1FFF800
03FFE1FFF800
03FFE1FFF800
03FFE1FFF800
03FFE0FFF000
03FFE0FFF000
03FFC0FFF000
01FFC0FFF000
01FFC0FFF000
01FFC0FFF000
01FFC07FE000
01FFC07FE000
01FF807FE000
00FF807FE000
00FF807FE000
00FF807FE000
00FF803FC000
00FF803FC000
00FF003FC000
007F003FC000
003E001F8000
ENDCHAR
STARTCHAR wacute
ENCODING 7811
SWIDTH 560 0
DWIDTH 49 0
BBX 43 76 0 0
BITMAP
0000007C0000
000001FE0000
000007FF0000
00001FFF0000
00007FFE0000
0000FFFE0000
0003FFF80000
0007FFF00000
000FFFC00000
000FFF800000
000FFE000000
0007F8000000
0003C0000000
000000000000
000000000000
000000000000
000000000000
7E003F001FC0
FF007F803FC0
FF807F803FE0
FF807F803FE0
FF807FC07FC0
FF807FC07FC0
FF80FFC07FC0
FF80FFC07FC0
7F80FFC07FC0
7FC0FFC07FC0
7FC0FFE0FF80
7FC0FFE0FF80
7FC1FFE0FF80
7FC1FFE0FF80
3FC1FFE0FF80
3FE1FFE0FF80
3FE1FFF0FF00
3FE1FFF1FF00
3FE3FFF1FF00
3FE3FFF1FF00
1FE3FFF1FF00
1FE3FFF9FF00
1FF3FFF9FF00
1FF3FFF9FE00
1FF7FFFBFE00
1FF7FFFBFE00
1FF7FFFBFE00
0FF7FFFFFE00
0FFFFFFFFE00
0FFFFFFFFC00
0FFFFBFFFC00
0FFFFBFFFC00
0FFFFBFFFC00
07FFF3FFFC00
07FFF3FFFC00
07FFF3FFF800
07FFF1FFF800
07FFF1FFF800
07FFE1FFF800
03FFE1FFF800
03FFE1FFF800
03FFE1FFF800
03FFE0FFF000
03FFE0FFF000
03FFC0FFF000
01FFC0FFF000
01FFC0FFF000
01FFC0FFF000
01FFC07FE000
01FFC07FE000
01FF807FE000
00FF807FE000
00FF807FE000
00FF807FE000
00FF803FC000
00FF803FC000
00FF003FC000
007F003FC000
003E001F8000
ENDCHAR
STARTCHAR Wdieresis
ENCODING 7812
SWIDTH 560 0
DWIDTH 49 0
BBX 43 73 0 0
BITMAP
0003E07C0000
000FF0FE0000
000FF1FF0000
000FF9FF0000
000FF9FF0000
000FF9FF0000
000FF9FF0000
000FF1FF0000
000FF0FE0000
0007E07C0000
000000000000
000000000000
000000000000
000000000000
7E003F001FC0
FF007F803FC0
FF807F803FE0
FF807F803FE0
FF807FC07FC0
FF807FC07FC0
FF80FFC07FC0
FF80FFC07FC0
7F80FFC07FC0
7FC0FFC07FC0
7FC0FFE0FF80
7FC0FFE0FF80
7FC1FFE0FF80
7FC1FFE0FF80
3FC1FFE0FF80
3FE1FFE0FF80
3FE1FFF0FF00
3FE1FFF1FF00
3FE3FFF1FF00
3FE3FFF1FF00
1FE3FFF1FF00
1FE3FFF9FF00
1FF3FFF9FF00
1FF3FFF9FE00
1FF7FFFBFE00
1FF7FFFBFE00
1FF7FFFBFE00
0FF7FFFFFE00
0FFFFFFFFE00
0FFFFFFFFC00
0FFFFBFFFC00
0FFFFBFFFC00
0FFFFBFFFC00
07FFF3FFFC00
07FFF3FFFC00
07FFF3FFF800
07FFF1FFF800
07FFF1FFF800
07FFE1FFF800
03FFE1FFF800
03FFE1FFF800
03FFE1FFF800
03FFE0FFF000
03FFE0FFF000
03FFC0FFF000
01FFC0FFF000
01FFC0FFF000
01FFC0FFF000
01FFC07FE000
01FFC07FE000
01FF807FE000
00FF807FE000
00FF807FE000
00FF807FE000
00FF803FC000
00FF803FC000
00FF003FC000
007F003FC000
003E001F8000
ENDCHAR
STARTCHAR wdieresis
ENCODING 7813
SWIDTH 560 0
DWIDTH 49 0
BBX 43 73 0 0
BITMAP
0003E07C0000
000FF0FE0000
000FF1FF0000
000FF9FF0000
000FF9FF0000
000FF9FF0000
000FF9FF0000
000FF1FF0000
000FF0FE0000
0007E07C0000
000000000000
000000000000
000000000000
000000000000
7E003F001FC0
FF007F803FC0
FF807F803FE0
FF807F803FE0
FF807FC07FC0
FF807FC07FC0
FF80FFC07FC0
FF80FFC07FC0
7F80FFC07FC0
7FC0FFC07FC0
7FC0FFE0FF80
7FC0FFE0FF80
7FC1FFE0FF80
7FC1FFE0FF80
3FC1FFE0FF80
3FE1FFE0FF80
3FE1FFF0FF00
3FE1FFF1FF00
3FE3FFF1FF00
3FE3FFF1FF00
1FE3FFF1FF00
1FE3FFF9FF00
1FF3FFF9FF00
1FF3FFF9FE00
1FF7FFFBFE00
1FF7FFFBFE00
1FF7FFFBFE00
0FF7FFFFFE00
0FFFFFFFFE00
0FFFFFFFFC00
0FFFFBFFFC00
0FFFFBFFFC00
0FFFFBFFFC00
07FFF3FFFC00
07FFF3FFFC00
07FFF3FFF800
07FFF1FFF800
07FFF1FFF800
07FFE1FFF800
03FFE1FFF800
03FFE1FFF800
03FFE1FFF800
03FFE0FFF000
03FFE0FFF000
03FFC0FFF000
01FFC0FFF000
01FFC0FFF000
01FFC0FFF000
01FFC07FE000
01FFC07FE000
01FF807FE000
00FF807FE000
00FF807FE000
00FF807FE000
00FF803FC000
00FF803FC000
00FF003FC000
007F003FC000
003E001F8000
ENDCHAR
STARTCHAR Ygrave
ENCODING 7922
SWIDTH 406 0
DWIDTH 36 0
BBX 33 76 -2 0
BITMAP
007C000000
00FF800000
00FFE00000
00FFF80000
00FFFC0000
007FFF0000
003FFF8000
000FFFC000
0007FFE000
0001FFE000
00007FE000
00001FE000
000003C000
0000000000
0000000000
0000000000
0000000000
7F0000FF00
7F8000FF00
FFC001FF80
7FC001FF00
7FE003FF00
7FE003FF00
3FF007FE00
3FF007FE00
1FF007FC00
1FF80FFC00
0FF80FFC00
0FFC1FF800
0FFC1FF800
07FE3FF000
07FE3FF000
03FF7FE000
03FF7FE000
01FF7FC000
01FFFFC000
01FFFFC000
00FFFF8000
00FFFF8000
007FFF0000
007FFF0000
003FFE0000
003FFE0000
003FFE0000
001FFC0000
001FFC0000
000FF80000
000FF80000
000FF80000
000FF80000
000FF80000
000FF80000
000FF80000
000FF80000
000FF80000
000FF80000
000FF80000
000FF80000
000FF80000
000FF80000
000FF80000
000FF80000
000FF80000
000FF80000
000FF80000
000FF80000
000FF80000
000FF80000
000FF80000
000FF80000
000FF80000
000FF80000
000FF80000
000FF80000
0007F00000
0003E00000
ENDCHAR
STARTCHAR ygrave
ENCODING 7923
SWIDTH 406 0
DWIDTH 36 0
BBX 33 76 -2 0
BITMAP
007C000000
00FF800000
00FFE00000
00FFF80000
00FFFC0000
007FFF0000
003FFF8000
000FFFC000
0007FFE000
0001FFE000
00007FE000
00001FE000
000003C000
0000000000
0000000000
0000000000
0000000000
7F0000FF00
7F8000FF00
FFC001FF80
7FC001FF00
7FE003FF00
7FE003FF00
3FF007FE00
3FF007FE00
1FF007FC00
1FF80FFC00
0FF80FFC00
0FFC1FF800
0FFC1FF800
07FE3FF000
07FE3FF000
03FF7FE000
03FF7FE000
01FF7FC000
01FFFFC000
01FFFFC000
00FFFF8000
00FFFF8000
007FFF0000
007FFF0000
003FFE0000
003FFE0000
003FFE0000
001FFC0000
001FFC0000
000FF80000
000FF80000
000FF80000
000FF80000
000FF80000
000FF80000
000FF80000
000FF80000
000FF80000
000FF80000
000FF80000
000FF80000
000FF80000
000FF80000
000FF80000
000FF80000
000FF80000
000FF80000
000FF80000
000FF80000
000FF80000
000FF80000
000FF80000
000FF80000
000FF80000
000FF80000
000FF80000
000FF80000
0007F00000
0003E00000
ENDCHAR
STARTCHAR endash
ENCODING 8211
SWIDTH 349 0
DWIDTH 31 0
BBX 26 9 0 25
BITMAP
3FFFFF00
7FFFFF80
FFFFFFC0
FFFFFFC0
FFFFFFC0
FFFFFFC0
FFFFFFC0
7FFFFF80
3FFFFF00
ENDCHAR
STARTCHAR emdash
ENCODING 8212
SWIDTH 349 0
DWIDTH 31 0
BBX 26 9 0 25
BITMAP
3FFFFF00
7FFFFF80
FFFFFFC0
FFFFFFC0
FFFFFFC0
FFFFFFC0
FFFFFFC0
7FFFFF80
3FFFFF00
ENDCHAR
STARTCHAR quoteleft
ENCODING 8216
SWIDTH 131 0
DWIDTH 12 0
BBX 8 13 0 46
BITMAP
7E
FF
FF
FF
FF
FF
FF
FF
FF
FF
FF
FF
7E
ENDCHAR
STARTCHAR quoteright
ENCODING 8217
SWIDTH 131 0
DWIDTH 12 0
BBX 8 13 0 46
BITMAP
7E
FF
FF
FF
FF
FF
FF
FF
FF
FF
FF
FF
7E
ENDCHAR
STARTCHAR quotedblleft
ENCODING 8220
SWIDTH 200 0
DWIDTH 18 0
BBX 13 13 0 46
BITMAP
7FF0
FFF8
FFF8
FFF8
FFF8
FFF8
FFF8
FFF8
FFF8
FFF8
FFF8
FFF8
7FF0
ENDCHAR
STARTCHAR quotedblright
ENCODING 8221
SWIDTH 200 0
DWIDTH 18 0
BBX 13 13 0 46
BITMAP
7FF0
FFF8
FFF8
FFF8
FFF8
FFF8
FFF8
FFF8
FFF8
FFF8
FFF8
FFF8
7FF0
ENDCHAR
STARTCHAR bullet
ENCODING 8226
SWIDTH 155 0
DWIDTH 14 0
BBX 12 12 0 27
BITMAP
1F00
3FC0
7FE0
FFF0
FFF0
FFF0
FFF0
FFF0
FFF0
7FE0
7FC0
3F80
ENDCHAR
STARTCHAR fraction
ENCODING 8260
SWIDTH 260 0
DWIDTH 23 0
BBX 31 59 -5 0
BITMAP
000001FC
000003FC
000003FE
000007FC
000007FC
00000FFC
00000FF8
00000FF8
00001FF8
00001FF0
00003FF0
00003FE0
00003FE0
00007FE0
00007FC0
0000FFC0
0000FF80
0000FF80
0001FF80
0001FF00
0003FF00
0003FE00
0003FE00
0007FE00
0007FC00
000FFC00
000FF800
000FF800
001FF800
001FF000
003FF000
003FE000
007FE000
007FE000
007FC000
00FFC000
00FF8000
01FF8000
01FF8000
01FF0000
03FF0000
03FE0000
07FE0000
07FE0000
07FC0000
0FFC0000
0FF80000
1FF80000
1FF80000
1FF00000
3FF00000
3FE00000
7FE00000
7FE00000
7FC00000
FFC00000
FF800000
7F800000
3F000000
ENDCHAR
STARTCHAR Euro
ENCODING 8364
SWIDTH 370 0
DWIDTH 33 0
BBX 32 59 -3 0
BITMAP
0003FF80
000FFFE0
003FFFF8
007FFFFC
00FFFFFE
01FFFFFF
01FFFFFF
03FFFFFF
03FFFFFE
07FF00FE
07FE007C
07FE0038
07FC0000
07FC0000
0FF80000
0FF80000
0FF80000
0FF80000
0FF80000
1FF80000
7FFFFF80
FFFFFFC0
FFFFFFC0
FFFFFFC0
FFFFFFC0
FFFFFFC0
FFFFFFC0
7FFFFF80
0FF80000
0FF80000
0FF80000
0FF80000
0FF80000
0FF80000
7FFFFF80
FFFFFFC0
FFFFFFC0
FFFFFFC0
FFFFFFC0
FFFFFFC0
FFFFFFC0
7FFFFF80
0FF80000
0FF80000
0FF80000
07FC0000
07FC0030
07FE007C
07FE00FE
07FF81FF
03FFFFFF
03FFFFFF
01FFFFFF
00FFFFFF
00FFFFFE
007FFFFC
001FFFF0
000FFFE0
0001FF00
ENDCHAR
STARTCHAR trademark
ENCODING 8482
SWIDTH 650 0
DWIDTH 57 0
BBX 53 25 1 34
BITMAP
7FFFF81F0001E0
FFFFFC1F8003F0
FFFFFE3F8007F0
FFFFFE3FC007F8
FFFFFE3FC00FF8
FFFFFE3FE00FF8
FFFFFC3FE01FF8
7FFFF83FF01FF8
01FE003FF03FF8
01FE003FF83FF8
01FE003FF83FF8
01FE003FFC7FF8
01FE003FFC7FF8
01FE003FBEFFF8
01FE003FBEFFF8
01FE003FBFFFF8
01FE003FBFF7F8
01FE003F9FF7F8
01FE003F9FF7F8
01FE003F9FE7F8
01FE003F8FE7F8
01FE003F8FE7F8
01FE003F8FE3F0
00FE001F07C3F0
007800040381E0
ENDCHAR
STARTCHAR commaaccent
ENCODING 63171
SWIDTH 260 0
DWIDTH 23 0
BBX 9 13 6 -16
BITMAP
1C00
7F00
FF80
FF80
FF80
FF80
FF80
FF80
FF80
FF80
FF80
FF00
7F00
ENDCHAR
STARTCHAR Acute
ENCODING 63177
SWIDTH 247 0
DWIDTH 22 0
BBX 20 13 0 63
BITMAP
0007C0
001FE0
00FFF0
01FFF0
07FFE0
0FFFE0
3FFF80
7FFF00
FFFC00
FFF000
FFE000
7F0000
3C0000
ENDCHAR
STARTCHAR Caron
ENCODING 63178
SWIDTH 232 0
DWIDTH 20 0
BBX 22 13 -1 63
BITMAP
3F07E0
7F8FF0
FFDFF0
FFDFF0
7FFFF0
7FFFE0
3FFFE0
1FFFC0
0FFF80
07FF00
07FE00
03FC00
00F800
ENDCHAR
STARTCHAR Dieresis
ENCODING 63179
SWIDTH 229 0
DWIDTH 20 0
BBX 20 10 -1 63
BITMAP
3E03C0
7F0FF0
FF8FF0
FF8FF0
FF8FF0
FF8FF0
FF8FF0
FF8FF0
7F0FF0
3E07E0
ENDCHAR
STARTCHAR Grave
ENCODING 63182
SWIDTH 222 0
DWIDTH 20 0
BBX 20 13 0 63
BITMAP
300000
7F0000
FFE000
FFF000
FFFC00
7FFF00
3FFF80
0FFFC0
07FFE0
01FFF0
007FF0
001FE0
0007E0
ENDCHAR
STARTCHAR Macron
ENCODING 63184
SWIDTH 231 0
DWIDTH 20 0
BBX 21 9 -1 63
BITMAP
3FFFE0
7FFFF0
7FFFF0
FFFFF8
FFFFF8
FFFFF8
7FFFF0
7FFFF0
3FFFE0
ENDCHAR
STARTCHAR uniF8FF
ENCODING 63743
SWIDTH 0 0
DWIDTH 0 0
BBX 1 1 0 0
BITMAP
00
ENDCHAR
STARTCHAR .notdef
ENCODING -1
SWIDTH 210 0
DWIDTH 18 0
BBX 1 1 0 0
BITMAP
00
ENDCHAR
STARTCHAR Ring
ENCODING -1
SWIDTH 140 0
DWIDTH 12 0
BBX 13 13 -1 63
BITMAP
0F80
3FE0
7FF0
7FF0
FFF8
F8F8
F8F8
F8F8
FFF8
7FF0
7FF0
3FE0
0F80
ENDCHAR
STARTCHAR Tilde
ENCODING -1
SWIDTH 319 0
DWIDTH 28 0
BBX 28 13 -1 55
BITMAP
01F80000
07FE0000
0FFF0FE0
1FFF9FF0
3FFFFFF0
7FFFFFF0
7FFFFFF0
FFFFFFE0
FFFFFFC0
7FDFFFC0
7F8FFF80
0003FE00
00007000
ENDCHAR
STARTCHAR Circumflex
ENCODING -1
SWIDTH 237 0
DWIDTH 21 0
BBX 22 13 -1 63
BITMAP
01F800
03FE00
07FE00
0FFF00
0FFF80
1FFFC0
3FFFE0
7FFFF0
FFFFF0
FFDFF0
FFDFF0
7F8FF0
3F07E0
ENDCHAR
STARTCHAR Cedilla
ENCODING -1
SWIDTH 201 0
DWIDTH 18 0
BBX 19 21 -1 -19
BITMAP
0FC000
0FE000
0FE000
0FE000
0FE000
0FF800
0FFF00
0FFF80
0FFFC0
0FFFC0
0FFFE0
07FFE0
000FE0
781FE0
FFFFE0
FFFFC0
FFFFC0
7FFF80
3FFF00
1FFE00
03C000
ENDCHAR
STARTCHAR commaaccent.cap
ENCODING -1
SWIDTH 260 0
DWIDTH 23 0
BBX 9 12 6 -16
BITMAP
7F00
FF00
FF80
FF80
FF80
FF80
FF80
FF80
FF80
FF00
FF00
7E00
ENDCHAR
STARTCHAR Breve
ENCODING -1
SWIDTH 241 0
DWIDTH 21 0
BBX 21 12 -1 63
BITMAP
1E03C0
7F07F0
FF8FF8
FFFFF8
FFFFF8
7FFFF8
7FFFF8
7FFFF0
3FFFF0
1FFFE0
0FFF80
01FE00
ENDCHAR
ENDFONT
